solid ASCII
  facet normal -9.972038e-01 -7.454073e-16 7.473009e-02
    outer loop
      vertex   -4.449739e-02 -2.000000e-03 6.706902e-03
      vertex   -4.449739e-02 0.000000e+00 6.706902e-03
      vertex   -4.500000e-02 -2.000000e-03 5.510911e-18
    endloop
  endfacet
  facet normal -9.972038e-01 0.000000e+00 7.473009e-02
    outer loop
      vertex   -4.500000e-02 -2.000000e-03 5.510911e-18
      vertex   -4.449739e-02 0.000000e+00 6.706902e-03
      vertex   -4.500000e-02 0.000000e+00 5.510911e-18
    endloop
  endfacet
  facet normal -9.972038e-01 0.000000e+00 -7.473009e-02
    outer loop
      vertex   -4.500000e-02 -2.000000e-03 5.510911e-18
      vertex   -4.500000e-02 0.000000e+00 5.510911e-18
      vertex   -4.449739e-02 -2.000000e-03 -6.706902e-03
    endloop
  endfacet
  facet normal -9.972038e-01 7.454073e-16 -7.473009e-02
    outer loop
      vertex   -4.449739e-02 -2.000000e-03 -6.706902e-03
      vertex   -4.500000e-02 0.000000e+00 5.510911e-18
      vertex   -4.449739e-02 0.000000e+00 -6.706902e-03
    endloop
  endfacet
  facet normal -9.749279e-01 2.219571e-15 -2.225209e-01
    outer loop
      vertex   -4.449739e-02 -2.000000e-03 -6.706902e-03
      vertex   -4.449739e-02 0.000000e+00 -6.706902e-03
      vertex   -4.300078e-02 -2.000000e-03 -1.326398e-02
    endloop
  endfacet
  facet normal -9.749279e-01 -1.452399e-15 -2.225209e-01
    outer loop
      vertex   -4.300078e-02 -2.000000e-03 -1.326398e-02
      vertex   -4.449739e-02 0.000000e+00 -6.706902e-03
      vertex   -4.300078e-02 0.000000e+00 -1.326398e-02
    endloop
  endfacet
  facet normal -9.308737e-01 -6.078883e-17 -3.653410e-01
    outer loop
      vertex   -4.300078e-02 -2.000000e-03 -1.326398e-02
      vertex   -4.300078e-02 0.000000e+00 -1.326398e-02
      vertex   -4.054360e-02 -2.000000e-03 -1.952477e-02
    endloop
  endfacet
  facet normal -9.308737e-01 0.000000e+00 -3.653410e-01
    outer loop
      vertex   -4.054360e-02 -2.000000e-03 -1.952477e-02
      vertex   -4.300078e-02 0.000000e+00 -1.326398e-02
      vertex   -4.054360e-02 0.000000e+00 -1.952477e-02
    endloop
  endfacet
  facet normal -8.660254e-01 0.000000e+00 -5.000000e-01
    outer loop
      vertex   -4.054360e-02 -2.000000e-03 -1.952477e-02
      vertex   -4.054360e-02 0.000000e+00 -1.952477e-02
      vertex   -3.718074e-02 -2.000000e-03 -2.534940e-02
    endloop
  endfacet
  facet normal -8.660254e-01 -4.677079e-15 -5.000000e-01
    outer loop
      vertex   -3.718074e-02 -2.000000e-03 -2.534940e-02
      vertex   -4.054360e-02 0.000000e+00 -1.952477e-02
      vertex   -3.718074e-02 0.000000e+00 -2.534940e-02
    endloop
  endfacet
  facet normal -7.818315e-01 -2.729657e-15 -6.234898e-01
    outer loop
      vertex   -3.718074e-02 -2.000000e-03 -2.534940e-02
      vertex   -3.718074e-02 0.000000e+00 -2.534940e-02
      vertex   -3.298733e-02 -2.000000e-03 -3.060777e-02
    endloop
  endfacet
  facet normal -7.818315e-01 -3.828373e-15 -6.234898e-01
    outer loop
      vertex   -3.298733e-02 -2.000000e-03 -3.060777e-02
      vertex   -3.718074e-02 0.000000e+00 -2.534940e-02
      vertex   -3.298733e-02 0.000000e+00 -3.060777e-02
    endloop
  endfacet
  facet normal -6.801727e-01 -3.543355e-16 -7.330519e-01
    outer loop
      vertex   -3.298733e-02 -2.000000e-03 -3.060777e-02
      vertex   -3.298733e-02 0.000000e+00 -3.060777e-02
      vertex   -2.805704e-02 -2.000000e-03 -3.518242e-02
    endloop
  endfacet
  facet normal -6.801727e-01 0.000000e+00 -7.330519e-01
    outer loop
      vertex   -2.805704e-02 -2.000000e-03 -3.518242e-02
      vertex   -3.298733e-02 0.000000e+00 -3.060777e-02
      vertex   -2.805704e-02 0.000000e+00 -3.518242e-02
    endloop
  endfacet
  facet normal -5.633201e-01 0.000000e+00 -8.262388e-01
    outer loop
      vertex   -2.805704e-02 -2.000000e-03 -3.518242e-02
      vertex   -2.805704e-02 0.000000e+00 -3.518242e-02
      vertex   -2.250000e-02 -2.000000e-03 -3.897114e-02
    endloop
  endfacet
  facet normal -5.633201e-01 -4.886023e-15 -8.262388e-01
    outer loop
      vertex   -2.250000e-02 -2.000000e-03 -3.897114e-02
      vertex   -2.805704e-02 0.000000e+00 -3.518242e-02
      vertex   -2.250000e-02 0.000000e+00 -3.897114e-02
    endloop
  endfacet
  facet normal -4.338837e-01 -3.763342e-15 -9.009689e-01
    outer loop
      vertex   -2.250000e-02 -2.000000e-03 -3.897114e-02
      vertex   -2.250000e-02 0.000000e+00 -3.897114e-02
      vertex   -1.644035e-02 -2.000000e-03 -4.188932e-02
    endloop
  endfacet
  facet normal -4.338837e-01 -2.895483e-15 -9.009689e-01
    outer loop
      vertex   -1.644035e-02 -2.000000e-03 -4.188932e-02
      vertex   -2.250000e-02 0.000000e+00 -3.897114e-02
      vertex   -1.644035e-02 0.000000e+00 -4.188932e-02
    endloop
  endfacet
  facet normal -2.947552e-01 -7.752406e-16 -9.555728e-01
    outer loop
      vertex   -1.644035e-02 -2.000000e-03 -4.188932e-02
      vertex   -1.644035e-02 0.000000e+00 -4.188932e-02
      vertex   -1.001344e-02 -2.000000e-03 -4.387176e-02
    endloop
  endfacet
  facet normal -2.947552e-01 0.000000e+00 -9.555728e-01
    outer loop
      vertex   -1.001344e-02 -2.000000e-03 -4.387176e-02
      vertex   -1.644035e-02 0.000000e+00 -4.188932e-02
      vertex   -1.001344e-02 0.000000e+00 -4.387176e-02
    endloop
  endfacet
  facet normal -1.490423e-01 0.000000e+00 -9.888308e-01
    outer loop
      vertex   -1.001344e-02 -2.000000e-03 -4.387176e-02
      vertex   -1.001344e-02 0.000000e+00 -4.387176e-02
      vertex   -3.362854e-03 -2.000000e-03 -4.487417e-02
    endloop
  endfacet
  facet normal -1.490423e-01 -1.518964e-15 -9.888308e-01
    outer loop
      vertex   -3.362854e-03 -2.000000e-03 -4.487417e-02
      vertex   -1.001344e-02 0.000000e+00 -4.387176e-02
      vertex   -3.362854e-03 0.000000e+00 -4.487417e-02
    endloop
  endfacet
  facet normal 0.000000e+00 0.000000e+00 -1.000000e+00
    outer loop
      vertex   -3.362854e-03 -2.000000e-03 -4.487417e-02
      vertex   -3.362854e-03 0.000000e+00 -4.487417e-02
      vertex   3.362854e-03 -2.000000e-03 -4.487417e-02
    endloop
  endfacet
  facet normal -1.031697e-15 -3.469447e-15 -1.000000e+00
    outer loop
      vertex   3.362854e-03 -2.000000e-03 -4.487417e-02
      vertex   -3.362854e-03 0.000000e+00 -4.487417e-02
      vertex   3.362854e-03 0.000000e+00 -4.487417e-02
    endloop
  endfacet
  facet normal 1.490423e-01 -1.200727e-15 -9.888308e-01
    outer loop
      vertex   3.362854e-03 -2.000000e-03 -4.487417e-02
      vertex   3.362854e-03 0.000000e+00 -4.487417e-02
      vertex   1.001344e-02 -2.000000e-03 -4.387176e-02
    endloop
  endfacet
  facet normal 1.490423e-01 0.000000e+00 -9.888308e-01
    outer loop
      vertex   1.001344e-02 -2.000000e-03 -4.387176e-02
      vertex   3.362854e-03 0.000000e+00 -4.487417e-02
      vertex   1.001344e-02 0.000000e+00 -4.387176e-02
    endloop
  endfacet
  facet normal 2.947552e-01 0.000000e+00 -9.555728e-01
    outer loop
      vertex   1.001344e-02 -2.000000e-03 -4.387176e-02
      vertex   1.001344e-02 0.000000e+00 -4.387176e-02
      vertex   1.644035e-02 -2.000000e-03 -4.188932e-02
    endloop
  endfacet
  facet normal 2.947552e-01 -2.473968e-16 -9.555728e-01
    outer loop
      vertex   1.644035e-02 -2.000000e-03 -4.188932e-02
      vertex   1.001344e-02 0.000000e+00 -4.387176e-02
      vertex   1.644035e-02 0.000000e+00 -4.188932e-02
    endloop
  endfacet
  facet normal 4.338837e-01 1.390146e-15 -9.009689e-01
    outer loop
      vertex   1.644035e-02 -2.000000e-03 -4.188932e-02
      vertex   1.644035e-02 0.000000e+00 -4.188932e-02
      vertex   2.250000e-02 -2.000000e-03 -3.897114e-02
    endloop
  endfacet
  facet normal 4.338837e-01 -1.850908e-15 -9.009689e-01
    outer loop
      vertex   2.250000e-02 -2.000000e-03 -3.897114e-02
      vertex   1.644035e-02 0.000000e+00 -4.188932e-02
      vertex   2.250000e-02 0.000000e+00 -3.897114e-02
    endloop
  endfacet
  facet normal 5.633201e-01 1.172271e-15 -8.262388e-01
    outer loop
      vertex   2.250000e-02 -2.000000e-03 -3.897114e-02
      vertex   2.250000e-02 0.000000e+00 -3.897114e-02
      vertex   2.805704e-02 -2.000000e-03 -3.518242e-02
    endloop
  endfacet
  facet normal 5.633201e-01 0.000000e+00 -8.262388e-01
    outer loop
      vertex   2.805704e-02 -2.000000e-03 -3.518242e-02
      vertex   2.250000e-02 0.000000e+00 -3.897114e-02
      vertex   2.805704e-02 0.000000e+00 -3.518242e-02
    endloop
  endfacet
  facet normal 6.801727e-01 0.000000e+00 -7.330519e-01
    outer loop
      vertex   2.805704e-02 -2.000000e-03 -3.518242e-02
      vertex   2.805704e-02 0.000000e+00 -3.518242e-02
      vertex   3.298733e-02 -2.000000e-03 -3.060777e-02
    endloop
  endfacet
  facet normal 6.801727e-01 7.212582e-16 -7.330519e-01
    outer loop
      vertex   3.298733e-02 -2.000000e-03 -3.060777e-02
      vertex   2.805704e-02 0.000000e+00 -3.518242e-02
      vertex   3.298733e-02 0.000000e+00 -3.060777e-02
    endloop
  endfacet
  facet normal 7.818315e-01 2.729657e-15 -6.234898e-01
    outer loop
      vertex   3.298733e-02 -2.000000e-03 -3.060777e-02
      vertex   3.298733e-02 0.000000e+00 -3.060777e-02
      vertex   3.718074e-02 -2.000000e-03 -2.534940e-02
    endloop
  endfacet
  facet normal 7.818315e-01 -2.146031e-15 -6.234898e-01
    outer loop
      vertex   3.718074e-02 -2.000000e-03 -2.534940e-02
      vertex   3.298733e-02 0.000000e+00 -3.060777e-02
      vertex   3.718074e-02 0.000000e+00 -2.534940e-02
    endloop
  endfacet
  facet normal 8.660254e-01 -6.227377e-17 -5.000000e-01
    outer loop
      vertex   3.718074e-02 -2.000000e-03 -2.534940e-02
      vertex   3.718074e-02 0.000000e+00 -2.534940e-02
      vertex   4.054360e-02 -2.000000e-03 -1.952477e-02
    endloop
  endfacet
  facet normal 8.660254e-01 0.000000e+00 -5.000000e-01
    outer loop
      vertex   4.054360e-02 -2.000000e-03 -1.952477e-02
      vertex   3.718074e-02 0.000000e+00 -2.534940e-02
      vertex   4.054360e-02 0.000000e+00 -1.952477e-02
    endloop
  endfacet
  facet normal 9.308737e-01 0.000000e+00 -3.653410e-01
    outer loop
      vertex   4.054360e-02 -2.000000e-03 -1.952477e-02
      vertex   4.054360e-02 0.000000e+00 -1.952477e-02
      vertex   4.300078e-02 -2.000000e-03 -1.326398e-02
    endloop
  endfacet
  facet normal 9.308737e-01 -4.119477e-15 -3.653410e-01
    outer loop
      vertex   4.300078e-02 -2.000000e-03 -1.326398e-02
      vertex   4.054360e-02 0.000000e+00 -1.952477e-02
      vertex   4.300078e-02 0.000000e+00 -1.326398e-02
    endloop
  endfacet
  facet normal 9.749279e-01 -2.509080e-15 -2.225209e-01
    outer loop
      vertex   4.300078e-02 -2.000000e-03 -1.326398e-02
      vertex   4.300078e-02 0.000000e+00 -1.326398e-02
      vertex   4.449739e-02 -2.000000e-03 -6.706902e-03
    endloop
  endfacet
  facet normal 9.749279e-01 1.162890e-15 -2.225209e-01
    outer loop
      vertex   4.449739e-02 -2.000000e-03 -6.706902e-03
      vertex   4.300078e-02 0.000000e+00 -1.326398e-02
      vertex   4.449739e-02 0.000000e+00 -6.706902e-03
    endloop
  endfacet
  facet normal 9.972038e-01 2.714338e-15 -7.473009e-02
    outer loop
      vertex   4.449739e-02 -2.000000e-03 -6.706902e-03
      vertex   4.449739e-02 0.000000e+00 -6.706902e-03
      vertex   4.500000e-02 -2.000000e-03 0.000000e+00
    endloop
  endfacet
  facet normal 9.972038e-01 0.000000e+00 -7.473009e-02
    outer loop
      vertex   4.500000e-02 -2.000000e-03 0.000000e+00
      vertex   4.449739e-02 0.000000e+00 -6.706902e-03
      vertex   4.500000e-02 0.000000e+00 0.000000e+00
    endloop
  endfacet
  facet normal 9.972038e-01 -0.000000e+00 7.473009e-02
    outer loop
      vertex   4.500000e-02 -2.000000e-03 0.000000e+00
      vertex   4.500000e-02 0.000000e+00 0.000000e+00
      vertex   4.449739e-02 -2.000000e-03 6.706902e-03
    endloop
  endfacet
  facet normal 9.972038e-01 -2.714338e-15 7.473009e-02
    outer loop
      vertex   4.449739e-02 -2.000000e-03 6.706902e-03
      vertex   4.500000e-02 0.000000e+00 0.000000e+00
      vertex   4.449739e-02 0.000000e+00 6.706902e-03
    endloop
  endfacet
  facet normal 9.749279e-01 -1.162890e-15 2.225209e-01
    outer loop
      vertex   4.449739e-02 -2.000000e-03 6.706902e-03
      vertex   4.449739e-02 0.000000e+00 6.706902e-03
      vertex   4.300078e-02 -2.000000e-03 1.326398e-02
    endloop
  endfacet
  facet normal 9.749279e-01 2.509080e-15 2.225209e-01
    outer loop
      vertex   4.300078e-02 -2.000000e-03 1.326398e-02
      vertex   4.449739e-02 0.000000e+00 6.706902e-03
      vertex   4.300078e-02 0.000000e+00 1.326398e-02
    endloop
  endfacet
  facet normal 9.308737e-01 4.119477e-15 3.653410e-01
    outer loop
      vertex   4.300078e-02 -2.000000e-03 1.326398e-02
      vertex   4.300078e-02 0.000000e+00 1.326398e-02
      vertex   4.054360e-02 -2.000000e-03 1.952477e-02
    endloop
  endfacet
  facet normal 9.308737e-01 -0.000000e+00 3.653410e-01
    outer loop
      vertex   4.054360e-02 -2.000000e-03 1.952477e-02
      vertex   4.300078e-02 0.000000e+00 1.326398e-02
      vertex   4.054360e-02 0.000000e+00 1.952477e-02
    endloop
  endfacet
  facet normal 8.660254e-01 -0.000000e+00 5.000000e-01
    outer loop
      vertex   4.054360e-02 -2.000000e-03 1.952477e-02
      vertex   4.054360e-02 0.000000e+00 1.952477e-02
      vertex   3.718074e-02 -2.000000e-03 2.534940e-02
    endloop
  endfacet
  facet normal 8.660254e-01 6.227377e-17 5.000000e-01
    outer loop
      vertex   3.718074e-02 -2.000000e-03 2.534940e-02
      vertex   4.054360e-02 0.000000e+00 1.952477e-02
      vertex   3.718074e-02 0.000000e+00 2.534940e-02
    endloop
  endfacet
  facet normal 7.818315e-01 2.146031e-15 6.234898e-01
    outer loop
      vertex   3.718074e-02 -2.000000e-03 2.534940e-02
      vertex   3.718074e-02 0.000000e+00 2.534940e-02
      vertex   3.298733e-02 -2.000000e-03 3.060777e-02
    endloop
  endfacet
  facet normal 7.818315e-01 -2.729657e-15 6.234898e-01
    outer loop
      vertex   3.298733e-02 -2.000000e-03 3.060777e-02
      vertex   3.718074e-02 0.000000e+00 2.534940e-02
      vertex   3.298733e-02 0.000000e+00 3.060777e-02
    endloop
  endfacet
  facet normal 6.801727e-01 -7.212582e-16 7.330519e-01
    outer loop
      vertex   3.298733e-02 -2.000000e-03 3.060777e-02
      vertex   3.298733e-02 0.000000e+00 3.060777e-02
      vertex   2.805704e-02 -2.000000e-03 3.518242e-02
    endloop
  endfacet
  facet normal 6.801727e-01 -0.000000e+00 7.330519e-01
    outer loop
      vertex   2.805704e-02 -2.000000e-03 3.518242e-02
      vertex   3.298733e-02 0.000000e+00 3.060777e-02
      vertex   2.805704e-02 0.000000e+00 3.518242e-02
    endloop
  endfacet
  facet normal 5.633201e-01 -0.000000e+00 8.262388e-01
    outer loop
      vertex   2.805704e-02 -2.000000e-03 3.518242e-02
      vertex   2.805704e-02 0.000000e+00 3.518242e-02
      vertex   2.250000e-02 -2.000000e-03 3.897114e-02
    endloop
  endfacet
  facet normal 5.633201e-01 -1.172271e-15 8.262388e-01
    outer loop
      vertex   2.250000e-02 -2.000000e-03 3.897114e-02
      vertex   2.805704e-02 0.000000e+00 3.518242e-02
      vertex   2.250000e-02 0.000000e+00 3.897114e-02
    endloop
  endfacet
  facet normal 4.338837e-01 1.850908e-15 9.009689e-01
    outer loop
      vertex   2.250000e-02 -2.000000e-03 3.897114e-02
      vertex   2.250000e-02 0.000000e+00 3.897114e-02
      vertex   1.644035e-02 -2.000000e-03 4.188932e-02
    endloop
  endfacet
  facet normal 4.338837e-01 -1.390146e-15 9.009689e-01
    outer loop
      vertex   1.644035e-02 -2.000000e-03 4.188932e-02
      vertex   2.250000e-02 0.000000e+00 3.897114e-02
      vertex   1.644035e-02 0.000000e+00 4.188932e-02
    endloop
  endfacet
  facet normal 2.947552e-01 2.473968e-16 9.555728e-01
    outer loop
      vertex   1.644035e-02 -2.000000e-03 4.188932e-02
      vertex   1.644035e-02 0.000000e+00 4.188932e-02
      vertex   1.001344e-02 -2.000000e-03 4.387176e-02
    endloop
  endfacet
  facet normal 2.947552e-01 -0.000000e+00 9.555728e-01
    outer loop
      vertex   1.001344e-02 -2.000000e-03 4.387176e-02
      vertex   1.644035e-02 0.000000e+00 4.188932e-02
      vertex   1.001344e-02 0.000000e+00 4.387176e-02
    endloop
  endfacet
  facet normal 1.490423e-01 -0.000000e+00 9.888308e-01
    outer loop
      vertex   1.001344e-02 -2.000000e-03 4.387176e-02
      vertex   1.001344e-02 0.000000e+00 4.387176e-02
      vertex   3.362854e-03 -2.000000e-03 4.487417e-02
    endloop
  endfacet
  facet normal 1.490423e-01 1.200727e-15 9.888308e-01
    outer loop
      vertex   3.362854e-03 -2.000000e-03 4.487417e-02
      vertex   1.001344e-02 0.000000e+00 4.387176e-02
      vertex   3.362854e-03 0.000000e+00 4.487417e-02
    endloop
  endfacet
  facet normal -1.031697e-15 3.469447e-15 1.000000e+00
    outer loop
      vertex   3.362854e-03 -2.000000e-03 4.487417e-02
      vertex   3.362854e-03 0.000000e+00 4.487417e-02
      vertex   -3.362854e-03 -2.000000e-03 4.487417e-02
    endloop
  endfacet
  facet normal 0.000000e+00 0.000000e+00 1.000000e+00
    outer loop
      vertex   -3.362854e-03 -2.000000e-03 4.487417e-02
      vertex   3.362854e-03 0.000000e+00 4.487417e-02
      vertex   -3.362854e-03 0.000000e+00 4.487417e-02
    endloop
  endfacet
  facet normal -1.490423e-01 1.518964e-15 9.888308e-01
    outer loop
      vertex   -3.362854e-03 -2.000000e-03 4.487417e-02
      vertex   -3.362854e-03 0.000000e+00 4.487417e-02
      vertex   -1.001344e-02 -2.000000e-03 4.387176e-02
    endloop
  endfacet
  facet normal -1.490423e-01 0.000000e+00 9.888308e-01
    outer loop
      vertex   -1.001344e-02 -2.000000e-03 4.387176e-02
      vertex   -3.362854e-03 0.000000e+00 4.487417e-02
      vertex   -1.001344e-02 0.000000e+00 4.387176e-02
    endloop
  endfacet
  facet normal -2.947552e-01 0.000000e+00 9.555728e-01
    outer loop
      vertex   -1.001344e-02 -2.000000e-03 4.387176e-02
      vertex   -1.001344e-02 0.000000e+00 4.387176e-02
      vertex   -1.644035e-02 -2.000000e-03 4.188932e-02
    endloop
  endfacet
  facet normal -2.947552e-01 7.752406e-16 9.555728e-01
    outer loop
      vertex   -1.644035e-02 -2.000000e-03 4.188932e-02
      vertex   -1.001344e-02 0.000000e+00 4.387176e-02
      vertex   -1.644035e-02 0.000000e+00 4.188932e-02
    endloop
  endfacet
  facet normal -4.338837e-01 2.895483e-15 9.009689e-01
    outer loop
      vertex   -1.644035e-02 -2.000000e-03 4.188932e-02
      vertex   -1.644035e-02 0.000000e+00 4.188932e-02
      vertex   -2.250000e-02 -2.000000e-03 3.897114e-02
    endloop
  endfacet
  facet normal -4.338837e-01 3.763342e-15 9.009689e-01
    outer loop
      vertex   -2.250000e-02 -2.000000e-03 3.897114e-02
      vertex   -1.644035e-02 0.000000e+00 4.188932e-02
      vertex   -2.250000e-02 0.000000e+00 3.897114e-02
    endloop
  endfacet
  facet normal -5.633201e-01 4.886023e-15 8.262388e-01
    outer loop
      vertex   -2.250000e-02 -2.000000e-03 3.897114e-02
      vertex   -2.250000e-02 0.000000e+00 3.897114e-02
      vertex   -2.805704e-02 -2.000000e-03 3.518242e-02
    endloop
  endfacet
  facet normal -5.633201e-01 0.000000e+00 8.262388e-01
    outer loop
      vertex   -2.805704e-02 -2.000000e-03 3.518242e-02
      vertex   -2.250000e-02 0.000000e+00 3.897114e-02
      vertex   -2.805704e-02 0.000000e+00 3.518242e-02
    endloop
  endfacet
  facet normal -6.801727e-01 0.000000e+00 7.330519e-01
    outer loop
      vertex   -2.805704e-02 -2.000000e-03 3.518242e-02
      vertex   -2.805704e-02 0.000000e+00 3.518242e-02
      vertex   -3.298733e-02 -2.000000e-03 3.060777e-02
    endloop
  endfacet
  facet normal -6.801727e-01 3.543355e-16 7.330519e-01
    outer loop
      vertex   -3.298733e-02 -2.000000e-03 3.060777e-02
      vertex   -2.805704e-02 0.000000e+00 3.518242e-02
      vertex   -3.298733e-02 0.000000e+00 3.060777e-02
    endloop
  endfacet
  facet normal -7.818315e-01 3.828373e-15 6.234898e-01
    outer loop
      vertex   -3.298733e-02 -2.000000e-03 3.060777e-02
      vertex   -3.298733e-02 0.000000e+00 3.060777e-02
      vertex   -3.718074e-02 -2.000000e-03 2.534940e-02
    endloop
  endfacet
  facet normal -7.818315e-01 2.729657e-15 6.234898e-01
    outer loop
      vertex   -3.718074e-02 -2.000000e-03 2.534940e-02
      vertex   -3.298733e-02 0.000000e+00 3.060777e-02
      vertex   -3.718074e-02 0.000000e+00 2.534940e-02
    endloop
  endfacet
  facet normal -8.660254e-01 4.677079e-15 5.000000e-01
    outer loop
      vertex   -3.718074e-02 -2.000000e-03 2.534940e-02
      vertex   -3.718074e-02 0.000000e+00 2.534940e-02
      vertex   -4.054360e-02 -2.000000e-03 1.952477e-02
    endloop
  endfacet
  facet normal -8.660254e-01 0.000000e+00 5.000000e-01
    outer loop
      vertex   -4.054360e-02 -2.000000e-03 1.952477e-02
      vertex   -3.718074e-02 0.000000e+00 2.534940e-02
      vertex   -4.054360e-02 0.000000e+00 1.952477e-02
    endloop
  endfacet
  facet normal -9.308737e-01 0.000000e+00 3.653410e-01
    outer loop
      vertex   -4.054360e-02 -2.000000e-03 1.952477e-02
      vertex   -4.054360e-02 0.000000e+00 1.952477e-02
      vertex   -4.300078e-02 -2.000000e-03 1.326398e-02
    endloop
  endfacet
  facet normal -9.308737e-01 6.078883e-17 3.653410e-01
    outer loop
      vertex   -4.300078e-02 -2.000000e-03 1.326398e-02
      vertex   -4.054360e-02 0.000000e+00 1.952477e-02
      vertex   -4.300078e-02 0.000000e+00 1.326398e-02
    endloop
  endfacet
  facet normal -9.749279e-01 1.452399e-15 2.225209e-01
    outer loop
      vertex   -4.300078e-02 -2.000000e-03 1.326398e-02
      vertex   -4.300078e-02 0.000000e+00 1.326398e-02
      vertex   -4.449739e-02 -2.000000e-03 6.706902e-03
    endloop
  endfacet
  facet normal -9.749279e-01 -2.219571e-15 2.225209e-01
    outer loop
      vertex   -4.449739e-02 -2.000000e-03 6.706902e-03
      vertex   -4.300078e-02 0.000000e+00 1.326398e-02
      vertex   -4.449739e-02 0.000000e+00 6.706902e-03
    endloop
  endfacet
  facet normal 0.000000e+00 1.000000e+00 0.000000e+00
    outer loop
      vertex   -4.449739e-02 0.000000e+00 6.706902e-03
      vertex   4.449739e-02 0.000000e+00 6.706902e-03
      vertex   -4.500000e-02 0.000000e+00 5.510911e-18
    endloop
  endfacet
  facet normal -0.000000e+00 1.000000e+00 0.000000e+00
    outer loop
      vertex   -4.500000e-02 0.000000e+00 5.510911e-18
      vertex   4.449739e-02 0.000000e+00 6.706902e-03
      vertex   4.500000e-02 0.000000e+00 0.000000e+00
    endloop
  endfacet
  facet normal 0.000000e+00 1.000000e+00 0.000000e+00
    outer loop
      vertex   -4.500000e-02 0.000000e+00 5.510911e-18
      vertex   4.500000e-02 0.000000e+00 0.000000e+00
      vertex   -4.449739e-02 0.000000e+00 -6.706902e-03
    endloop
  endfacet
  facet normal -0.000000e+00 1.000000e+00 0.000000e+00
    outer loop
      vertex   -4.449739e-02 0.000000e+00 -6.706902e-03
      vertex   4.500000e-02 0.000000e+00 0.000000e+00
      vertex   4.449739e-02 0.000000e+00 -6.706902e-03
    endloop
  endfacet
  facet normal 0.000000e+00 1.000000e+00 0.000000e+00
    outer loop
      vertex   -4.449739e-02 0.000000e+00 -6.706902e-03
      vertex   4.449739e-02 0.000000e+00 -6.706902e-03
      vertex   -4.300078e-02 0.000000e+00 -1.326398e-02
    endloop
  endfacet
  facet normal -0.000000e+00 1.000000e+00 0.000000e+00
    outer loop
      vertex   -4.300078e-02 0.000000e+00 -1.326398e-02
      vertex   4.449739e-02 0.000000e+00 -6.706902e-03
      vertex   4.300078e-02 0.000000e+00 -1.326398e-02
    endloop
  endfacet
  facet normal 0.000000e+00 1.000000e+00 0.000000e+00
    outer loop
      vertex   -4.300078e-02 0.000000e+00 -1.326398e-02
      vertex   4.300078e-02 0.000000e+00 -1.326398e-02
      vertex   -4.054360e-02 0.000000e+00 -1.952477e-02
    endloop
  endfacet
  facet normal 0.000000e+00 1.000000e+00 0.000000e+00
    outer loop
      vertex   -4.054360e-02 0.000000e+00 -1.952477e-02
      vertex   4.300078e-02 0.000000e+00 -1.326398e-02
      vertex   4.054360e-02 0.000000e+00 -1.952477e-02
    endloop
  endfacet
  facet normal -0.000000e+00 1.000000e+00 0.000000e+00
    outer loop
      vertex   -4.054360e-02 0.000000e+00 -1.952477e-02
      vertex   4.054360e-02 0.000000e+00 -1.952477e-02
      vertex   -3.718074e-02 0.000000e+00 -2.534940e-02
    endloop
  endfacet
  facet normal -0.000000e+00 1.000000e+00 0.000000e+00
    outer loop
      vertex   -3.718074e-02 0.000000e+00 -2.534940e-02
      vertex   4.054360e-02 0.000000e+00 -1.952477e-02
      vertex   3.718074e-02 0.000000e+00 -2.534940e-02
    endloop
  endfacet
  facet normal 0.000000e+00 1.000000e+00 0.000000e+00
    outer loop
      vertex   -3.718074e-02 0.000000e+00 -2.534940e-02
      vertex   3.718074e-02 0.000000e+00 -2.534940e-02
      vertex   -3.298733e-02 0.000000e+00 -3.060777e-02
    endloop
  endfacet
  facet normal -0.000000e+00 1.000000e+00 0.000000e+00
    outer loop
      vertex   -3.298733e-02 0.000000e+00 -3.060777e-02
      vertex   3.718074e-02 0.000000e+00 -2.534940e-02
      vertex   3.298733e-02 0.000000e+00 -3.060777e-02
    endloop
  endfacet
  facet normal 0.000000e+00 1.000000e+00 0.000000e+00
    outer loop
      vertex   -3.298733e-02 0.000000e+00 -3.060777e-02
      vertex   3.298733e-02 0.000000e+00 -3.060777e-02
      vertex   -2.805704e-02 0.000000e+00 -3.518242e-02
    endloop
  endfacet
  facet normal 0.000000e+00 1.000000e+00 0.000000e+00
    outer loop
      vertex   -2.805704e-02 0.000000e+00 -3.518242e-02
      vertex   3.298733e-02 0.000000e+00 -3.060777e-02
      vertex   2.805704e-02 0.000000e+00 -3.518242e-02
    endloop
  endfacet
  facet normal -0.000000e+00 1.000000e+00 0.000000e+00
    outer loop
      vertex   -2.805704e-02 0.000000e+00 -3.518242e-02
      vertex   2.805704e-02 0.000000e+00 -3.518242e-02
      vertex   -2.250000e-02 0.000000e+00 -3.897114e-02
    endloop
  endfacet
  facet normal -0.000000e+00 1.000000e+00 0.000000e+00
    outer loop
      vertex   -2.250000e-02 0.000000e+00 -3.897114e-02
      vertex   2.805704e-02 0.000000e+00 -3.518242e-02
      vertex   2.250000e-02 0.000000e+00 -3.897114e-02
    endloop
  endfacet
  facet normal 0.000000e+00 1.000000e+00 0.000000e+00
    outer loop
      vertex   -2.250000e-02 0.000000e+00 -3.897114e-02
      vertex   2.250000e-02 0.000000e+00 -3.897114e-02
      vertex   -1.644035e-02 0.000000e+00 -4.188932e-02
    endloop
  endfacet
  facet normal -0.000000e+00 1.000000e+00 0.000000e+00
    outer loop
      vertex   -1.644035e-02 0.000000e+00 -4.188932e-02
      vertex   2.250000e-02 0.000000e+00 -3.897114e-02
      vertex   1.644035e-02 0.000000e+00 -4.188932e-02
    endloop
  endfacet
  facet normal 0.000000e+00 1.000000e+00 0.000000e+00
    outer loop
      vertex   -1.644035e-02 0.000000e+00 -4.188932e-02
      vertex   1.644035e-02 0.000000e+00 -4.188932e-02
      vertex   -1.001344e-02 0.000000e+00 -4.387176e-02
    endloop
  endfacet
  facet normal 0.000000e+00 1.000000e+00 0.000000e+00
    outer loop
      vertex   -1.001344e-02 0.000000e+00 -4.387176e-02
      vertex   1.644035e-02 0.000000e+00 -4.188932e-02
      vertex   1.001344e-02 0.000000e+00 -4.387176e-02
    endloop
  endfacet
  facet normal -0.000000e+00 1.000000e+00 0.000000e+00
    outer loop
      vertex   -1.001344e-02 0.000000e+00 -4.387176e-02
      vertex   1.001344e-02 0.000000e+00 -4.387176e-02
      vertex   -3.362854e-03 0.000000e+00 -4.487417e-02
    endloop
  endfacet
  facet normal -0.000000e+00 1.000000e+00 0.000000e+00
    outer loop
      vertex   -3.362854e-03 0.000000e+00 -4.487417e-02
      vertex   1.001344e-02 0.000000e+00 -4.387176e-02
      vertex   3.362854e-03 0.000000e+00 -4.487417e-02
    endloop
  endfacet
  facet normal 0.000000e+00 1.000000e+00 0.000000e+00
    outer loop
      vertex   4.449739e-02 0.000000e+00 6.706902e-03
      vertex   -4.449739e-02 0.000000e+00 6.706902e-03
      vertex   4.300078e-02 0.000000e+00 1.326398e-02
    endloop
  endfacet
  facet normal 0.000000e+00 1.000000e+00 0.000000e+00
    outer loop
      vertex   4.300078e-02 0.000000e+00 1.326398e-02
      vertex   -4.449739e-02 0.000000e+00 6.706902e-03
      vertex   -4.300078e-02 0.000000e+00 1.326398e-02
    endloop
  endfacet
  facet normal 0.000000e+00 1.000000e+00 0.000000e+00
    outer loop
      vertex   4.300078e-02 0.000000e+00 1.326398e-02
      vertex   -4.300078e-02 0.000000e+00 1.326398e-02
      vertex   4.054360e-02 0.000000e+00 1.952477e-02
    endloop
  endfacet
  facet normal 0.000000e+00 1.000000e+00 0.000000e+00
    outer loop
      vertex   4.054360e-02 0.000000e+00 1.952477e-02
      vertex   -4.300078e-02 0.000000e+00 1.326398e-02
      vertex   -4.054360e-02 0.000000e+00 1.952477e-02
    endloop
  endfacet
  facet normal 0.000000e+00 1.000000e+00 0.000000e+00
    outer loop
      vertex   4.054360e-02 0.000000e+00 1.952477e-02
      vertex   -4.054360e-02 0.000000e+00 1.952477e-02
      vertex   3.718074e-02 0.000000e+00 2.534940e-02
    endloop
  endfacet
  facet normal 0.000000e+00 1.000000e+00 0.000000e+00
    outer loop
      vertex   3.718074e-02 0.000000e+00 2.534940e-02
      vertex   -4.054360e-02 0.000000e+00 1.952477e-02
      vertex   -3.718074e-02 0.000000e+00 2.534940e-02
    endloop
  endfacet
  facet normal 0.000000e+00 1.000000e+00 0.000000e+00
    outer loop
      vertex   3.718074e-02 0.000000e+00 2.534940e-02
      vertex   -3.718074e-02 0.000000e+00 2.534940e-02
      vertex   3.298733e-02 0.000000e+00 3.060777e-02
    endloop
  endfacet
  facet normal 0.000000e+00 1.000000e+00 0.000000e+00
    outer loop
      vertex   3.298733e-02 0.000000e+00 3.060777e-02
      vertex   -3.718074e-02 0.000000e+00 2.534940e-02
      vertex   -3.298733e-02 0.000000e+00 3.060777e-02
    endloop
  endfacet
  facet normal 0.000000e+00 1.000000e+00 0.000000e+00
    outer loop
      vertex   3.298733e-02 0.000000e+00 3.060777e-02
      vertex   -3.298733e-02 0.000000e+00 3.060777e-02
      vertex   2.805704e-02 0.000000e+00 3.518242e-02
    endloop
  endfacet
  facet normal 0.000000e+00 1.000000e+00 0.000000e+00
    outer loop
      vertex   2.805704e-02 0.000000e+00 3.518242e-02
      vertex   -3.298733e-02 0.000000e+00 3.060777e-02
      vertex   -2.805704e-02 0.000000e+00 3.518242e-02
    endloop
  endfacet
  facet normal 0.000000e+00 1.000000e+00 0.000000e+00
    outer loop
      vertex   2.805704e-02 0.000000e+00 3.518242e-02
      vertex   -2.805704e-02 0.000000e+00 3.518242e-02
      vertex   2.250000e-02 0.000000e+00 3.897114e-02
    endloop
  endfacet
  facet normal 0.000000e+00 1.000000e+00 0.000000e+00
    outer loop
      vertex   2.250000e-02 0.000000e+00 3.897114e-02
      vertex   -2.805704e-02 0.000000e+00 3.518242e-02
      vertex   -2.250000e-02 0.000000e+00 3.897114e-02
    endloop
  endfacet
  facet normal 0.000000e+00 1.000000e+00 0.000000e+00
    outer loop
      vertex   2.250000e-02 0.000000e+00 3.897114e-02
      vertex   -2.250000e-02 0.000000e+00 3.897114e-02
      vertex   1.644035e-02 0.000000e+00 4.188932e-02
    endloop
  endfacet
  facet normal 0.000000e+00 1.000000e+00 0.000000e+00
    outer loop
      vertex   1.644035e-02 0.000000e+00 4.188932e-02
      vertex   -2.250000e-02 0.000000e+00 3.897114e-02
      vertex   -1.644035e-02 0.000000e+00 4.188932e-02
    endloop
  endfacet
  facet normal 0.000000e+00 1.000000e+00 0.000000e+00
    outer loop
      vertex   1.644035e-02 0.000000e+00 4.188932e-02
      vertex   -1.644035e-02 0.000000e+00 4.188932e-02
      vertex   1.001344e-02 0.000000e+00 4.387176e-02
    endloop
  endfacet
  facet normal 0.000000e+00 1.000000e+00 0.000000e+00
    outer loop
      vertex   1.001344e-02 0.000000e+00 4.387176e-02
      vertex   -1.644035e-02 0.000000e+00 4.188932e-02
      vertex   -1.001344e-02 0.000000e+00 4.387176e-02
    endloop
  endfacet
  facet normal 0.000000e+00 1.000000e+00 0.000000e+00
    outer loop
      vertex   1.001344e-02 0.000000e+00 4.387176e-02
      vertex   -1.001344e-02 0.000000e+00 4.387176e-02
      vertex   3.362854e-03 0.000000e+00 4.487417e-02
    endloop
  endfacet
  facet normal 0.000000e+00 1.000000e+00 0.000000e+00
    outer loop
      vertex   3.362854e-03 0.000000e+00 4.487417e-02
      vertex   -1.001344e-02 0.000000e+00 4.387176e-02
      vertex   -3.362854e-03 0.000000e+00 4.487417e-02
    endloop
  endfacet
  facet normal 0.000000e+00 -1.000000e+00 0.000000e+00
    outer loop
      vertex   -4.449739e-02 -2.000000e-03 -6.706902e-03
      vertex   4.449739e-02 -2.000000e-03 -6.706902e-03
      vertex   -4.500000e-02 -2.000000e-03 5.510911e-18
    endloop
  endfacet
  facet normal 0.000000e+00 -1.000000e+00 0.000000e+00
    outer loop
      vertex   -4.500000e-02 -2.000000e-03 5.510911e-18
      vertex   4.449739e-02 -2.000000e-03 -6.706902e-03
      vertex   4.500000e-02 -2.000000e-03 0.000000e+00
    endloop
  endfacet
  facet normal 0.000000e+00 -1.000000e+00 0.000000e+00
    outer loop
      vertex   -4.500000e-02 -2.000000e-03 5.510911e-18
      vertex   4.500000e-02 -2.000000e-03 0.000000e+00
      vertex   -4.449739e-02 -2.000000e-03 6.706902e-03
    endloop
  endfacet
  facet normal 0.000000e+00 -1.000000e+00 0.000000e+00
    outer loop
      vertex   -4.449739e-02 -2.000000e-03 6.706902e-03
      vertex   4.500000e-02 -2.000000e-03 0.000000e+00
      vertex   4.449739e-02 -2.000000e-03 6.706902e-03
    endloop
  endfacet
  facet normal 0.000000e+00 -1.000000e+00 0.000000e+00
    outer loop
      vertex   -4.449739e-02 -2.000000e-03 6.706902e-03
      vertex   4.449739e-02 -2.000000e-03 6.706902e-03
      vertex   -4.300078e-02 -2.000000e-03 1.326398e-02
    endloop
  endfacet
  facet normal 0.000000e+00 -1.000000e+00 0.000000e+00
    outer loop
      vertex   -4.300078e-02 -2.000000e-03 1.326398e-02
      vertex   4.449739e-02 -2.000000e-03 6.706902e-03
      vertex   4.300078e-02 -2.000000e-03 1.326398e-02
    endloop
  endfacet
  facet normal 0.000000e+00 -1.000000e+00 0.000000e+00
    outer loop
      vertex   -4.300078e-02 -2.000000e-03 1.326398e-02
      vertex   4.300078e-02 -2.000000e-03 1.326398e-02
      vertex   -4.054360e-02 -2.000000e-03 1.952477e-02
    endloop
  endfacet
  facet normal 0.000000e+00 -1.000000e+00 0.000000e+00
    outer loop
      vertex   -4.054360e-02 -2.000000e-03 1.952477e-02
      vertex   4.300078e-02 -2.000000e-03 1.326398e-02
      vertex   4.054360e-02 -2.000000e-03 1.952477e-02
    endloop
  endfacet
  facet normal 0.000000e+00 -1.000000e+00 0.000000e+00
    outer loop
      vertex   -4.054360e-02 -2.000000e-03 1.952477e-02
      vertex   4.054360e-02 -2.000000e-03 1.952477e-02
      vertex   -3.718074e-02 -2.000000e-03 2.534940e-02
    endloop
  endfacet
  facet normal 0.000000e+00 -1.000000e+00 0.000000e+00
    outer loop
      vertex   -3.718074e-02 -2.000000e-03 2.534940e-02
      vertex   4.054360e-02 -2.000000e-03 1.952477e-02
      vertex   3.718074e-02 -2.000000e-03 2.534940e-02
    endloop
  endfacet
  facet normal 0.000000e+00 -1.000000e+00 0.000000e+00
    outer loop
      vertex   -3.718074e-02 -2.000000e-03 2.534940e-02
      vertex   3.718074e-02 -2.000000e-03 2.534940e-02
      vertex   -3.298733e-02 -2.000000e-03 3.060777e-02
    endloop
  endfacet
  facet normal 0.000000e+00 -1.000000e+00 0.000000e+00
    outer loop
      vertex   -3.298733e-02 -2.000000e-03 3.060777e-02
      vertex   3.718074e-02 -2.000000e-03 2.534940e-02
      vertex   3.298733e-02 -2.000000e-03 3.060777e-02
    endloop
  endfacet
  facet normal 0.000000e+00 -1.000000e+00 0.000000e+00
    outer loop
      vertex   -3.298733e-02 -2.000000e-03 3.060777e-02
      vertex   3.298733e-02 -2.000000e-03 3.060777e-02
      vertex   -2.805704e-02 -2.000000e-03 3.518242e-02
    endloop
  endfacet
  facet normal 0.000000e+00 -1.000000e+00 0.000000e+00
    outer loop
      vertex   -2.805704e-02 -2.000000e-03 3.518242e-02
      vertex   3.298733e-02 -2.000000e-03 3.060777e-02
      vertex   2.805704e-02 -2.000000e-03 3.518242e-02
    endloop
  endfacet
  facet normal 0.000000e+00 -1.000000e+00 0.000000e+00
    outer loop
      vertex   -2.805704e-02 -2.000000e-03 3.518242e-02
      vertex   2.805704e-02 -2.000000e-03 3.518242e-02
      vertex   -2.250000e-02 -2.000000e-03 3.897114e-02
    endloop
  endfacet
  facet normal 0.000000e+00 -1.000000e+00 0.000000e+00
    outer loop
      vertex   -2.250000e-02 -2.000000e-03 3.897114e-02
      vertex   2.805704e-02 -2.000000e-03 3.518242e-02
      vertex   2.250000e-02 -2.000000e-03 3.897114e-02
    endloop
  endfacet
  facet normal 0.000000e+00 -1.000000e+00 0.000000e+00
    outer loop
      vertex   -2.250000e-02 -2.000000e-03 3.897114e-02
      vertex   2.250000e-02 -2.000000e-03 3.897114e-02
      vertex   -1.644035e-02 -2.000000e-03 4.188932e-02
    endloop
  endfacet
  facet normal 0.000000e+00 -1.000000e+00 0.000000e+00
    outer loop
      vertex   -1.644035e-02 -2.000000e-03 4.188932e-02
      vertex   2.250000e-02 -2.000000e-03 3.897114e-02
      vertex   1.644035e-02 -2.000000e-03 4.188932e-02
    endloop
  endfacet
  facet normal 0.000000e+00 -1.000000e+00 0.000000e+00
    outer loop
      vertex   -1.644035e-02 -2.000000e-03 4.188932e-02
      vertex   1.644035e-02 -2.000000e-03 4.188932e-02
      vertex   -1.001344e-02 -2.000000e-03 4.387176e-02
    endloop
  endfacet
  facet normal 0.000000e+00 -1.000000e+00 0.000000e+00
    outer loop
      vertex   -1.001344e-02 -2.000000e-03 4.387176e-02
      vertex   1.644035e-02 -2.000000e-03 4.188932e-02
      vertex   1.001344e-02 -2.000000e-03 4.387176e-02
    endloop
  endfacet
  facet normal 0.000000e+00 -1.000000e+00 0.000000e+00
    outer loop
      vertex   -1.001344e-02 -2.000000e-03 4.387176e-02
      vertex   1.001344e-02 -2.000000e-03 4.387176e-02
      vertex   -3.362854e-03 -2.000000e-03 4.487417e-02
    endloop
  endfacet
  facet normal 0.000000e+00 -1.000000e+00 0.000000e+00
    outer loop
      vertex   -3.362854e-03 -2.000000e-03 4.487417e-02
      vertex   1.001344e-02 -2.000000e-03 4.387176e-02
      vertex   3.362854e-03 -2.000000e-03 4.487417e-02
    endloop
  endfacet
  facet normal 0.000000e+00 -1.000000e+00 0.000000e+00
    outer loop
      vertex   4.449739e-02 -2.000000e-03 -6.706902e-03
      vertex   -4.449739e-02 -2.000000e-03 -6.706902e-03
      vertex   4.300078e-02 -2.000000e-03 -1.326398e-02
    endloop
  endfacet
  facet normal -0.000000e+00 -1.000000e+00 0.000000e+00
    outer loop
      vertex   4.300078e-02 -2.000000e-03 -1.326398e-02
      vertex   -4.449739e-02 -2.000000e-03 -6.706902e-03
      vertex   -4.300078e-02 -2.000000e-03 -1.326398e-02
    endloop
  endfacet
  facet normal 0.000000e+00 -1.000000e+00 0.000000e+00
    outer loop
      vertex   4.300078e-02 -2.000000e-03 -1.326398e-02
      vertex   -4.300078e-02 -2.000000e-03 -1.326398e-02
      vertex   4.054360e-02 -2.000000e-03 -1.952477e-02
    endloop
  endfacet
  facet normal -0.000000e+00 -1.000000e+00 0.000000e+00
    outer loop
      vertex   4.054360e-02 -2.000000e-03 -1.952477e-02
      vertex   -4.300078e-02 -2.000000e-03 -1.326398e-02
      vertex   -4.054360e-02 -2.000000e-03 -1.952477e-02
    endloop
  endfacet
  facet normal 0.000000e+00 -1.000000e+00 0.000000e+00
    outer loop
      vertex   4.054360e-02 -2.000000e-03 -1.952477e-02
      vertex   -4.054360e-02 -2.000000e-03 -1.952477e-02
      vertex   3.718074e-02 -2.000000e-03 -2.534940e-02
    endloop
  endfacet
  facet normal -0.000000e+00 -1.000000e+00 0.000000e+00
    outer loop
      vertex   3.718074e-02 -2.000000e-03 -2.534940e-02
      vertex   -4.054360e-02 -2.000000e-03 -1.952477e-02
      vertex   -3.718074e-02 -2.000000e-03 -2.534940e-02
    endloop
  endfacet
  facet normal 0.000000e+00 -1.000000e+00 0.000000e+00
    outer loop
      vertex   3.718074e-02 -2.000000e-03 -2.534940e-02
      vertex   -3.718074e-02 -2.000000e-03 -2.534940e-02
      vertex   3.298733e-02 -2.000000e-03 -3.060777e-02
    endloop
  endfacet
  facet normal -0.000000e+00 -1.000000e+00 0.000000e+00
    outer loop
      vertex   3.298733e-02 -2.000000e-03 -3.060777e-02
      vertex   -3.718074e-02 -2.000000e-03 -2.534940e-02
      vertex   -3.298733e-02 -2.000000e-03 -3.060777e-02
    endloop
  endfacet
  facet normal 0.000000e+00 -1.000000e+00 0.000000e+00
    outer loop
      vertex   3.298733e-02 -2.000000e-03 -3.060777e-02
      vertex   -3.298733e-02 -2.000000e-03 -3.060777e-02
      vertex   2.805704e-02 -2.000000e-03 -3.518242e-02
    endloop
  endfacet
  facet normal -0.000000e+00 -1.000000e+00 0.000000e+00
    outer loop
      vertex   2.805704e-02 -2.000000e-03 -3.518242e-02
      vertex   -3.298733e-02 -2.000000e-03 -3.060777e-02
      vertex   -2.805704e-02 -2.000000e-03 -3.518242e-02
    endloop
  endfacet
  facet normal 0.000000e+00 -1.000000e+00 0.000000e+00
    outer loop
      vertex   2.805704e-02 -2.000000e-03 -3.518242e-02
      vertex   -2.805704e-02 -2.000000e-03 -3.518242e-02
      vertex   2.250000e-02 -2.000000e-03 -3.897114e-02
    endloop
  endfacet
  facet normal -0.000000e+00 -1.000000e+00 0.000000e+00
    outer loop
      vertex   2.250000e-02 -2.000000e-03 -3.897114e-02
      vertex   -2.805704e-02 -2.000000e-03 -3.518242e-02
      vertex   -2.250000e-02 -2.000000e-03 -3.897114e-02
    endloop
  endfacet
  facet normal 0.000000e+00 -1.000000e+00 0.000000e+00
    outer loop
      vertex   2.250000e-02 -2.000000e-03 -3.897114e-02
      vertex   -2.250000e-02 -2.000000e-03 -3.897114e-02
      vertex   1.644035e-02 -2.000000e-03 -4.188932e-02
    endloop
  endfacet
  facet normal -0.000000e+00 -1.000000e+00 0.000000e+00
    outer loop
      vertex   1.644035e-02 -2.000000e-03 -4.188932e-02
      vertex   -2.250000e-02 -2.000000e-03 -3.897114e-02
      vertex   -1.644035e-02 -2.000000e-03 -4.188932e-02
    endloop
  endfacet
  facet normal 0.000000e+00 -1.000000e+00 0.000000e+00
    outer loop
      vertex   1.644035e-02 -2.000000e-03 -4.188932e-02
      vertex   -1.644035e-02 -2.000000e-03 -4.188932e-02
      vertex   1.001344e-02 -2.000000e-03 -4.387176e-02
    endloop
  endfacet
  facet normal 0.000000e+00 -1.000000e+00 0.000000e+00
    outer loop
      vertex   1.001344e-02 -2.000000e-03 -4.387176e-02
      vertex   -1.644035e-02 -2.000000e-03 -4.188932e-02
      vertex   -1.001344e-02 -2.000000e-03 -4.387176e-02
    endloop
  endfacet
  facet normal -0.000000e+00 -1.000000e+00 0.000000e+00
    outer loop
      vertex   1.001344e-02 -2.000000e-03 -4.387176e-02
      vertex   -1.001344e-02 -2.000000e-03 -4.387176e-02
      vertex   3.362854e-03 -2.000000e-03 -4.487417e-02
    endloop
  endfacet
  facet normal 0.000000e+00 -1.000000e+00 0.000000e+00
    outer loop
      vertex   3.362854e-03 -2.000000e-03 -4.487417e-02
      vertex   -1.001344e-02 -2.000000e-03 -4.387176e-02
      vertex   -3.362854e-03 -2.000000e-03 -4.487417e-02
    endloop
  endfacet
  facet normal 0.000000e+00 -1.000000e+00 0.000000e+00
    outer loop
      vertex   -4.449739e-02 2.000000e-02 -6.706902e-03
      vertex   4.449739e-02 2.000000e-02 -6.706902e-03
      vertex   -4.500000e-02 2.000000e-02 5.510911e-18
    endloop
  endfacet
  facet normal 0.000000e+00 -1.000000e+00 0.000000e+00
    outer loop
      vertex   -4.500000e-02 2.000000e-02 5.510911e-18
      vertex   4.449739e-02 2.000000e-02 -6.706902e-03
      vertex   4.500000e-02 2.000000e-02 0.000000e+00
    endloop
  endfacet
  facet normal 0.000000e+00 -1.000000e+00 0.000000e+00
    outer loop
      vertex   -4.500000e-02 2.000000e-02 5.510911e-18
      vertex   4.500000e-02 2.000000e-02 0.000000e+00
      vertex   -4.449739e-02 2.000000e-02 6.706902e-03
    endloop
  endfacet
  facet normal 0.000000e+00 -1.000000e+00 0.000000e+00
    outer loop
      vertex   -4.449739e-02 2.000000e-02 6.706902e-03
      vertex   4.500000e-02 2.000000e-02 0.000000e+00
      vertex   4.449739e-02 2.000000e-02 6.706902e-03
    endloop
  endfacet
  facet normal 0.000000e+00 -1.000000e+00 0.000000e+00
    outer loop
      vertex   -4.449739e-02 2.000000e-02 6.706902e-03
      vertex   4.449739e-02 2.000000e-02 6.706902e-03
      vertex   -4.300078e-02 2.000000e-02 1.326398e-02
    endloop
  endfacet
  facet normal 0.000000e+00 -1.000000e+00 0.000000e+00
    outer loop
      vertex   -4.300078e-02 2.000000e-02 1.326398e-02
      vertex   4.449739e-02 2.000000e-02 6.706902e-03
      vertex   4.300078e-02 2.000000e-02 1.326398e-02
    endloop
  endfacet
  facet normal 0.000000e+00 -1.000000e+00 0.000000e+00
    outer loop
      vertex   -4.300078e-02 2.000000e-02 1.326398e-02
      vertex   4.300078e-02 2.000000e-02 1.326398e-02
      vertex   -4.054360e-02 2.000000e-02 1.952477e-02
    endloop
  endfacet
  facet normal 0.000000e+00 -1.000000e+00 0.000000e+00
    outer loop
      vertex   -4.054360e-02 2.000000e-02 1.952477e-02
      vertex   4.300078e-02 2.000000e-02 1.326398e-02
      vertex   4.054360e-02 2.000000e-02 1.952477e-02
    endloop
  endfacet
  facet normal 0.000000e+00 -1.000000e+00 0.000000e+00
    outer loop
      vertex   -4.054360e-02 2.000000e-02 1.952477e-02
      vertex   4.054360e-02 2.000000e-02 1.952477e-02
      vertex   -3.718074e-02 2.000000e-02 2.534940e-02
    endloop
  endfacet
  facet normal 0.000000e+00 -1.000000e+00 0.000000e+00
    outer loop
      vertex   -3.718074e-02 2.000000e-02 2.534940e-02
      vertex   4.054360e-02 2.000000e-02 1.952477e-02
      vertex   3.718074e-02 2.000000e-02 2.534940e-02
    endloop
  endfacet
  facet normal 0.000000e+00 -1.000000e+00 0.000000e+00
    outer loop
      vertex   -3.718074e-02 2.000000e-02 2.534940e-02
      vertex   3.718074e-02 2.000000e-02 2.534940e-02
      vertex   -3.298733e-02 2.000000e-02 3.060777e-02
    endloop
  endfacet
  facet normal 0.000000e+00 -1.000000e+00 0.000000e+00
    outer loop
      vertex   -3.298733e-02 2.000000e-02 3.060777e-02
      vertex   3.718074e-02 2.000000e-02 2.534940e-02
      vertex   3.298733e-02 2.000000e-02 3.060777e-02
    endloop
  endfacet
  facet normal 0.000000e+00 -1.000000e+00 0.000000e+00
    outer loop
      vertex   -3.298733e-02 2.000000e-02 3.060777e-02
      vertex   3.298733e-02 2.000000e-02 3.060777e-02
      vertex   -2.805704e-02 2.000000e-02 3.518242e-02
    endloop
  endfacet
  facet normal 0.000000e+00 -1.000000e+00 0.000000e+00
    outer loop
      vertex   -2.805704e-02 2.000000e-02 3.518242e-02
      vertex   3.298733e-02 2.000000e-02 3.060777e-02
      vertex   2.805704e-02 2.000000e-02 3.518242e-02
    endloop
  endfacet
  facet normal 0.000000e+00 -1.000000e+00 0.000000e+00
    outer loop
      vertex   -2.805704e-02 2.000000e-02 3.518242e-02
      vertex   2.805704e-02 2.000000e-02 3.518242e-02
      vertex   -2.250000e-02 2.000000e-02 3.897114e-02
    endloop
  endfacet
  facet normal 0.000000e+00 -1.000000e+00 0.000000e+00
    outer loop
      vertex   -2.250000e-02 2.000000e-02 3.897114e-02
      vertex   2.805704e-02 2.000000e-02 3.518242e-02
      vertex   2.250000e-02 2.000000e-02 3.897114e-02
    endloop
  endfacet
  facet normal 0.000000e+00 -1.000000e+00 0.000000e+00
    outer loop
      vertex   -2.250000e-02 2.000000e-02 3.897114e-02
      vertex   2.250000e-02 2.000000e-02 3.897114e-02
      vertex   -1.644035e-02 2.000000e-02 4.188932e-02
    endloop
  endfacet
  facet normal 0.000000e+00 -1.000000e+00 0.000000e+00
    outer loop
      vertex   -1.644035e-02 2.000000e-02 4.188932e-02
      vertex   2.250000e-02 2.000000e-02 3.897114e-02
      vertex   1.644035e-02 2.000000e-02 4.188932e-02
    endloop
  endfacet
  facet normal 0.000000e+00 -1.000000e+00 0.000000e+00
    outer loop
      vertex   -1.644035e-02 2.000000e-02 4.188932e-02
      vertex   1.644035e-02 2.000000e-02 4.188932e-02
      vertex   -1.001344e-02 2.000000e-02 4.387176e-02
    endloop
  endfacet
  facet normal 0.000000e+00 -1.000000e+00 0.000000e+00
    outer loop
      vertex   -1.001344e-02 2.000000e-02 4.387176e-02
      vertex   1.644035e-02 2.000000e-02 4.188932e-02
      vertex   1.001344e-02 2.000000e-02 4.387176e-02
    endloop
  endfacet
  facet normal 0.000000e+00 -1.000000e+00 0.000000e+00
    outer loop
      vertex   -1.001344e-02 2.000000e-02 4.387176e-02
      vertex   1.001344e-02 2.000000e-02 4.387176e-02
      vertex   -3.362854e-03 2.000000e-02 4.487417e-02
    endloop
  endfacet
  facet normal 0.000000e+00 -1.000000e+00 0.000000e+00
    outer loop
      vertex   -3.362854e-03 2.000000e-02 4.487417e-02
      vertex   1.001344e-02 2.000000e-02 4.387176e-02
      vertex   3.362854e-03 2.000000e-02 4.487417e-02
    endloop
  endfacet
  facet normal -0.000000e+00 -1.000000e+00 0.000000e+00
    outer loop
      vertex   4.449739e-02 2.000000e-02 -6.706902e-03
      vertex   -4.449739e-02 2.000000e-02 -6.706902e-03
      vertex   4.300078e-02 2.000000e-02 -1.326398e-02
    endloop
  endfacet
  facet normal 0.000000e+00 -1.000000e+00 0.000000e+00
    outer loop
      vertex   4.300078e-02 2.000000e-02 -1.326398e-02
      vertex   -4.449739e-02 2.000000e-02 -6.706902e-03
      vertex   -4.300078e-02 2.000000e-02 -1.326398e-02
    endloop
  endfacet
  facet normal -0.000000e+00 -1.000000e+00 0.000000e+00
    outer loop
      vertex   4.300078e-02 2.000000e-02 -1.326398e-02
      vertex   -4.300078e-02 2.000000e-02 -1.326398e-02
      vertex   4.054360e-02 2.000000e-02 -1.952477e-02
    endloop
  endfacet
  facet normal -0.000000e+00 -1.000000e+00 0.000000e+00
    outer loop
      vertex   4.054360e-02 2.000000e-02 -1.952477e-02
      vertex   -4.300078e-02 2.000000e-02 -1.326398e-02
      vertex   -4.054360e-02 2.000000e-02 -1.952477e-02
    endloop
  endfacet
  facet normal 0.000000e+00 -1.000000e+00 0.000000e+00
    outer loop
      vertex   4.054360e-02 2.000000e-02 -1.952477e-02
      vertex   -4.054360e-02 2.000000e-02 -1.952477e-02
      vertex   3.718074e-02 2.000000e-02 -2.534940e-02
    endloop
  endfacet
  facet normal 0.000000e+00 -1.000000e+00 0.000000e+00
    outer loop
      vertex   3.718074e-02 2.000000e-02 -2.534940e-02
      vertex   -4.054360e-02 2.000000e-02 -1.952477e-02
      vertex   -3.718074e-02 2.000000e-02 -2.534940e-02
    endloop
  endfacet
  facet normal -0.000000e+00 -1.000000e+00 0.000000e+00
    outer loop
      vertex   3.718074e-02 2.000000e-02 -2.534940e-02
      vertex   -3.718074e-02 2.000000e-02 -2.534940e-02
      vertex   3.298733e-02 2.000000e-02 -3.060777e-02
    endloop
  endfacet
  facet normal 0.000000e+00 -1.000000e+00 0.000000e+00
    outer loop
      vertex   3.298733e-02 2.000000e-02 -3.060777e-02
      vertex   -3.718074e-02 2.000000e-02 -2.534940e-02
      vertex   -3.298733e-02 2.000000e-02 -3.060777e-02
    endloop
  endfacet
  facet normal -0.000000e+00 -1.000000e+00 0.000000e+00
    outer loop
      vertex   3.298733e-02 2.000000e-02 -3.060777e-02
      vertex   -3.298733e-02 2.000000e-02 -3.060777e-02
      vertex   2.805704e-02 2.000000e-02 -3.518242e-02
    endloop
  endfacet
  facet normal -0.000000e+00 -1.000000e+00 0.000000e+00
    outer loop
      vertex   2.805704e-02 2.000000e-02 -3.518242e-02
      vertex   -3.298733e-02 2.000000e-02 -3.060777e-02
      vertex   -2.805704e-02 2.000000e-02 -3.518242e-02
    endloop
  endfacet
  facet normal 0.000000e+00 -1.000000e+00 0.000000e+00
    outer loop
      vertex   2.805704e-02 2.000000e-02 -3.518242e-02
      vertex   -2.805704e-02 2.000000e-02 -3.518242e-02
      vertex   2.250000e-02 2.000000e-02 -3.897114e-02
    endloop
  endfacet
  facet normal 0.000000e+00 -1.000000e+00 0.000000e+00
    outer loop
      vertex   2.250000e-02 2.000000e-02 -3.897114e-02
      vertex   -2.805704e-02 2.000000e-02 -3.518242e-02
      vertex   -2.250000e-02 2.000000e-02 -3.897114e-02
    endloop
  endfacet
  facet normal -0.000000e+00 -1.000000e+00 0.000000e+00
    outer loop
      vertex   2.250000e-02 2.000000e-02 -3.897114e-02
      vertex   -2.250000e-02 2.000000e-02 -3.897114e-02
      vertex   1.644035e-02 2.000000e-02 -4.188932e-02
    endloop
  endfacet
  facet normal 0.000000e+00 -1.000000e+00 0.000000e+00
    outer loop
      vertex   1.644035e-02 2.000000e-02 -4.188932e-02
      vertex   -2.250000e-02 2.000000e-02 -3.897114e-02
      vertex   -1.644035e-02 2.000000e-02 -4.188932e-02
    endloop
  endfacet
  facet normal -0.000000e+00 -1.000000e+00 0.000000e+00
    outer loop
      vertex   1.644035e-02 2.000000e-02 -4.188932e-02
      vertex   -1.644035e-02 2.000000e-02 -4.188932e-02
      vertex   1.001344e-02 2.000000e-02 -4.387176e-02
    endloop
  endfacet
  facet normal 0.000000e+00 -1.000000e+00 0.000000e+00
    outer loop
      vertex   1.001344e-02 2.000000e-02 -4.387176e-02
      vertex   -1.644035e-02 2.000000e-02 -4.188932e-02
      vertex   -1.001344e-02 2.000000e-02 -4.387176e-02
    endloop
  endfacet
  facet normal -0.000000e+00 -1.000000e+00 0.000000e+00
    outer loop
      vertex   1.001344e-02 2.000000e-02 -4.387176e-02
      vertex   -1.001344e-02 2.000000e-02 -4.387176e-02
      vertex   3.362854e-03 2.000000e-02 -4.487417e-02
    endloop
  endfacet
  facet normal 0.000000e+00 -1.000000e+00 0.000000e+00
    outer loop
      vertex   3.362854e-03 2.000000e-02 -4.487417e-02
      vertex   -1.001344e-02 2.000000e-02 -4.387176e-02
      vertex   -3.362854e-03 2.000000e-02 -4.487417e-02
    endloop
  endfacet
  facet normal -9.972038e-01 0.000000e+00 7.473009e-02
    outer loop
      vertex   -4.449739e-02 2.000000e-02 6.706902e-03
      vertex   -4.449739e-02 2.200000e-02 6.706902e-03
      vertex   -4.500000e-02 2.000000e-02 5.510911e-18
    endloop
  endfacet
  facet normal -9.972038e-01 0.000000e+00 7.473009e-02
    outer loop
      vertex   -4.500000e-02 2.000000e-02 5.510911e-18
      vertex   -4.449739e-02 2.200000e-02 6.706902e-03
      vertex   -4.500000e-02 2.200000e-02 5.510911e-18
    endloop
  endfacet
  facet normal -9.972038e-01 0.000000e+00 -7.473009e-02
    outer loop
      vertex   -4.500000e-02 2.000000e-02 5.510911e-18
      vertex   -4.500000e-02 2.200000e-02 5.510911e-18
      vertex   -4.449739e-02 2.000000e-02 -6.706902e-03
    endloop
  endfacet
  facet normal -9.972038e-01 0.000000e+00 -7.473009e-02
    outer loop
      vertex   -4.449739e-02 2.000000e-02 -6.706902e-03
      vertex   -4.500000e-02 2.200000e-02 5.510911e-18
      vertex   -4.449739e-02 2.200000e-02 -6.706902e-03
    endloop
  endfacet
  facet normal -9.749279e-01 0.000000e+00 -2.225209e-01
    outer loop
      vertex   -4.449739e-02 2.000000e-02 -6.706902e-03
      vertex   -4.449739e-02 2.200000e-02 -6.706902e-03
      vertex   -4.300078e-02 2.000000e-02 -1.326398e-02
    endloop
  endfacet
  facet normal -9.749279e-01 0.000000e+00 -2.225209e-01
    outer loop
      vertex   -4.300078e-02 2.000000e-02 -1.326398e-02
      vertex   -4.449739e-02 2.200000e-02 -6.706902e-03
      vertex   -4.300078e-02 2.200000e-02 -1.326398e-02
    endloop
  endfacet
  facet normal -9.308737e-01 0.000000e+00 -3.653410e-01
    outer loop
      vertex   -4.300078e-02 2.000000e-02 -1.326398e-02
      vertex   -4.300078e-02 2.200000e-02 -1.326398e-02
      vertex   -4.054360e-02 2.000000e-02 -1.952477e-02
    endloop
  endfacet
  facet normal -9.308737e-01 0.000000e+00 -3.653410e-01
    outer loop
      vertex   -4.054360e-02 2.000000e-02 -1.952477e-02
      vertex   -4.300078e-02 2.200000e-02 -1.326398e-02
      vertex   -4.054360e-02 2.200000e-02 -1.952477e-02
    endloop
  endfacet
  facet normal -8.660254e-01 0.000000e+00 -5.000000e-01
    outer loop
      vertex   -4.054360e-02 2.000000e-02 -1.952477e-02
      vertex   -4.054360e-02 2.200000e-02 -1.952477e-02
      vertex   -3.718074e-02 2.000000e-02 -2.534940e-02
    endloop
  endfacet
  facet normal -8.660254e-01 0.000000e+00 -5.000000e-01
    outer loop
      vertex   -3.718074e-02 2.000000e-02 -2.534940e-02
      vertex   -4.054360e-02 2.200000e-02 -1.952477e-02
      vertex   -3.718074e-02 2.200000e-02 -2.534940e-02
    endloop
  endfacet
  facet normal -7.818315e-01 0.000000e+00 -6.234898e-01
    outer loop
      vertex   -3.718074e-02 2.000000e-02 -2.534940e-02
      vertex   -3.718074e-02 2.200000e-02 -2.534940e-02
      vertex   -3.298733e-02 2.000000e-02 -3.060777e-02
    endloop
  endfacet
  facet normal -7.818315e-01 0.000000e+00 -6.234898e-01
    outer loop
      vertex   -3.298733e-02 2.000000e-02 -3.060777e-02
      vertex   -3.718074e-02 2.200000e-02 -2.534940e-02
      vertex   -3.298733e-02 2.200000e-02 -3.060777e-02
    endloop
  endfacet
  facet normal -6.801727e-01 0.000000e+00 -7.330519e-01
    outer loop
      vertex   -3.298733e-02 2.000000e-02 -3.060777e-02
      vertex   -3.298733e-02 2.200000e-02 -3.060777e-02
      vertex   -2.805704e-02 2.000000e-02 -3.518242e-02
    endloop
  endfacet
  facet normal -6.801727e-01 0.000000e+00 -7.330519e-01
    outer loop
      vertex   -2.805704e-02 2.000000e-02 -3.518242e-02
      vertex   -3.298733e-02 2.200000e-02 -3.060777e-02
      vertex   -2.805704e-02 2.200000e-02 -3.518242e-02
    endloop
  endfacet
  facet normal -5.633201e-01 0.000000e+00 -8.262388e-01
    outer loop
      vertex   -2.805704e-02 2.000000e-02 -3.518242e-02
      vertex   -2.805704e-02 2.200000e-02 -3.518242e-02
      vertex   -2.250000e-02 2.000000e-02 -3.897114e-02
    endloop
  endfacet
  facet normal -5.633201e-01 0.000000e+00 -8.262388e-01
    outer loop
      vertex   -2.250000e-02 2.000000e-02 -3.897114e-02
      vertex   -2.805704e-02 2.200000e-02 -3.518242e-02
      vertex   -2.250000e-02 2.200000e-02 -3.897114e-02
    endloop
  endfacet
  facet normal -4.338837e-01 0.000000e+00 -9.009689e-01
    outer loop
      vertex   -2.250000e-02 2.000000e-02 -3.897114e-02
      vertex   -2.250000e-02 2.200000e-02 -3.897114e-02
      vertex   -1.644035e-02 2.000000e-02 -4.188932e-02
    endloop
  endfacet
  facet normal -4.338837e-01 0.000000e+00 -9.009689e-01
    outer loop
      vertex   -1.644035e-02 2.000000e-02 -4.188932e-02
      vertex   -2.250000e-02 2.200000e-02 -3.897114e-02
      vertex   -1.644035e-02 2.200000e-02 -4.188932e-02
    endloop
  endfacet
  facet normal -2.947552e-01 0.000000e+00 -9.555728e-01
    outer loop
      vertex   -1.644035e-02 2.000000e-02 -4.188932e-02
      vertex   -1.644035e-02 2.200000e-02 -4.188932e-02
      vertex   -1.001344e-02 2.000000e-02 -4.387176e-02
    endloop
  endfacet
  facet normal -2.947552e-01 0.000000e+00 -9.555728e-01
    outer loop
      vertex   -1.001344e-02 2.000000e-02 -4.387176e-02
      vertex   -1.644035e-02 2.200000e-02 -4.188932e-02
      vertex   -1.001344e-02 2.200000e-02 -4.387176e-02
    endloop
  endfacet
  facet normal -1.490423e-01 0.000000e+00 -9.888308e-01
    outer loop
      vertex   -1.001344e-02 2.000000e-02 -4.387176e-02
      vertex   -1.001344e-02 2.200000e-02 -4.387176e-02
      vertex   -3.362854e-03 2.000000e-02 -4.487417e-02
    endloop
  endfacet
  facet normal -1.490423e-01 0.000000e+00 -9.888308e-01
    outer loop
      vertex   -3.362854e-03 2.000000e-02 -4.487417e-02
      vertex   -1.001344e-02 2.200000e-02 -4.387176e-02
      vertex   -3.362854e-03 2.200000e-02 -4.487417e-02
    endloop
  endfacet
  facet normal -1.031697e-15 0.000000e+00 -1.000000e+00
    outer loop
      vertex   -3.362854e-03 2.000000e-02 -4.487417e-02
      vertex   -3.362854e-03 2.200000e-02 -4.487417e-02
      vertex   3.362854e-03 2.000000e-02 -4.487417e-02
    endloop
  endfacet
  facet normal -1.031697e-15 0.000000e+00 -1.000000e+00
    outer loop
      vertex   3.362854e-03 2.000000e-02 -4.487417e-02
      vertex   -3.362854e-03 2.200000e-02 -4.487417e-02
      vertex   3.362854e-03 2.200000e-02 -4.487417e-02
    endloop
  endfacet
  facet normal 1.490423e-01 0.000000e+00 -9.888308e-01
    outer loop
      vertex   3.362854e-03 2.000000e-02 -4.487417e-02
      vertex   3.362854e-03 2.200000e-02 -4.487417e-02
      vertex   1.001344e-02 2.000000e-02 -4.387176e-02
    endloop
  endfacet
  facet normal 1.490423e-01 0.000000e+00 -9.888308e-01
    outer loop
      vertex   1.001344e-02 2.000000e-02 -4.387176e-02
      vertex   3.362854e-03 2.200000e-02 -4.487417e-02
      vertex   1.001344e-02 2.200000e-02 -4.387176e-02
    endloop
  endfacet
  facet normal 2.947552e-01 0.000000e+00 -9.555728e-01
    outer loop
      vertex   1.001344e-02 2.000000e-02 -4.387176e-02
      vertex   1.001344e-02 2.200000e-02 -4.387176e-02
      vertex   1.644035e-02 2.000000e-02 -4.188932e-02
    endloop
  endfacet
  facet normal 2.947552e-01 0.000000e+00 -9.555728e-01
    outer loop
      vertex   1.644035e-02 2.000000e-02 -4.188932e-02
      vertex   1.001344e-02 2.200000e-02 -4.387176e-02
      vertex   1.644035e-02 2.200000e-02 -4.188932e-02
    endloop
  endfacet
  facet normal 4.338837e-01 0.000000e+00 -9.009689e-01
    outer loop
      vertex   1.644035e-02 2.000000e-02 -4.188932e-02
      vertex   1.644035e-02 2.200000e-02 -4.188932e-02
      vertex   2.250000e-02 2.000000e-02 -3.897114e-02
    endloop
  endfacet
  facet normal 4.338837e-01 0.000000e+00 -9.009689e-01
    outer loop
      vertex   2.250000e-02 2.000000e-02 -3.897114e-02
      vertex   1.644035e-02 2.200000e-02 -4.188932e-02
      vertex   2.250000e-02 2.200000e-02 -3.897114e-02
    endloop
  endfacet
  facet normal 5.633201e-01 0.000000e+00 -8.262388e-01
    outer loop
      vertex   2.250000e-02 2.000000e-02 -3.897114e-02
      vertex   2.250000e-02 2.200000e-02 -3.897114e-02
      vertex   2.805704e-02 2.000000e-02 -3.518242e-02
    endloop
  endfacet
  facet normal 5.633201e-01 0.000000e+00 -8.262388e-01
    outer loop
      vertex   2.805704e-02 2.000000e-02 -3.518242e-02
      vertex   2.250000e-02 2.200000e-02 -3.897114e-02
      vertex   2.805704e-02 2.200000e-02 -3.518242e-02
    endloop
  endfacet
  facet normal 6.801727e-01 0.000000e+00 -7.330519e-01
    outer loop
      vertex   2.805704e-02 2.000000e-02 -3.518242e-02
      vertex   2.805704e-02 2.200000e-02 -3.518242e-02
      vertex   3.298733e-02 2.000000e-02 -3.060777e-02
    endloop
  endfacet
  facet normal 6.801727e-01 0.000000e+00 -7.330519e-01
    outer loop
      vertex   3.298733e-02 2.000000e-02 -3.060777e-02
      vertex   2.805704e-02 2.200000e-02 -3.518242e-02
      vertex   3.298733e-02 2.200000e-02 -3.060777e-02
    endloop
  endfacet
  facet normal 7.818315e-01 0.000000e+00 -6.234898e-01
    outer loop
      vertex   3.298733e-02 2.000000e-02 -3.060777e-02
      vertex   3.298733e-02 2.200000e-02 -3.060777e-02
      vertex   3.718074e-02 2.000000e-02 -2.534940e-02
    endloop
  endfacet
  facet normal 7.818315e-01 0.000000e+00 -6.234898e-01
    outer loop
      vertex   3.718074e-02 2.000000e-02 -2.534940e-02
      vertex   3.298733e-02 2.200000e-02 -3.060777e-02
      vertex   3.718074e-02 2.200000e-02 -2.534940e-02
    endloop
  endfacet
  facet normal 8.660254e-01 0.000000e+00 -5.000000e-01
    outer loop
      vertex   3.718074e-02 2.000000e-02 -2.534940e-02
      vertex   3.718074e-02 2.200000e-02 -2.534940e-02
      vertex   4.054360e-02 2.000000e-02 -1.952477e-02
    endloop
  endfacet
  facet normal 8.660254e-01 0.000000e+00 -5.000000e-01
    outer loop
      vertex   4.054360e-02 2.000000e-02 -1.952477e-02
      vertex   3.718074e-02 2.200000e-02 -2.534940e-02
      vertex   4.054360e-02 2.200000e-02 -1.952477e-02
    endloop
  endfacet
  facet normal 9.308737e-01 0.000000e+00 -3.653410e-01
    outer loop
      vertex   4.054360e-02 2.000000e-02 -1.952477e-02
      vertex   4.054360e-02 2.200000e-02 -1.952477e-02
      vertex   4.300078e-02 2.000000e-02 -1.326398e-02
    endloop
  endfacet
  facet normal 9.308737e-01 0.000000e+00 -3.653410e-01
    outer loop
      vertex   4.300078e-02 2.000000e-02 -1.326398e-02
      vertex   4.054360e-02 2.200000e-02 -1.952477e-02
      vertex   4.300078e-02 2.200000e-02 -1.326398e-02
    endloop
  endfacet
  facet normal 9.749279e-01 0.000000e+00 -2.225209e-01
    outer loop
      vertex   4.300078e-02 2.000000e-02 -1.326398e-02
      vertex   4.300078e-02 2.200000e-02 -1.326398e-02
      vertex   4.449739e-02 2.000000e-02 -6.706902e-03
    endloop
  endfacet
  facet normal 9.749279e-01 0.000000e+00 -2.225209e-01
    outer loop
      vertex   4.449739e-02 2.000000e-02 -6.706902e-03
      vertex   4.300078e-02 2.200000e-02 -1.326398e-02
      vertex   4.449739e-02 2.200000e-02 -6.706902e-03
    endloop
  endfacet
  facet normal 9.972038e-01 0.000000e+00 -7.473009e-02
    outer loop
      vertex   4.449739e-02 2.000000e-02 -6.706902e-03
      vertex   4.449739e-02 2.200000e-02 -6.706902e-03
      vertex   4.500000e-02 2.000000e-02 0.000000e+00
    endloop
  endfacet
  facet normal 9.972038e-01 0.000000e+00 -7.473009e-02
    outer loop
      vertex   4.500000e-02 2.000000e-02 0.000000e+00
      vertex   4.449739e-02 2.200000e-02 -6.706902e-03
      vertex   4.500000e-02 2.200000e-02 0.000000e+00
    endloop
  endfacet
  facet normal 9.972038e-01 -0.000000e+00 7.473009e-02
    outer loop
      vertex   4.500000e-02 2.000000e-02 0.000000e+00
      vertex   4.500000e-02 2.200000e-02 0.000000e+00
      vertex   4.449739e-02 2.000000e-02 6.706902e-03
    endloop
  endfacet
  facet normal 9.972038e-01 -0.000000e+00 7.473009e-02
    outer loop
      vertex   4.449739e-02 2.000000e-02 6.706902e-03
      vertex   4.500000e-02 2.200000e-02 0.000000e+00
      vertex   4.449739e-02 2.200000e-02 6.706902e-03
    endloop
  endfacet
  facet normal 9.749279e-01 -0.000000e+00 2.225209e-01
    outer loop
      vertex   4.449739e-02 2.000000e-02 6.706902e-03
      vertex   4.449739e-02 2.200000e-02 6.706902e-03
      vertex   4.300078e-02 2.000000e-02 1.326398e-02
    endloop
  endfacet
  facet normal 9.749279e-01 -0.000000e+00 2.225209e-01
    outer loop
      vertex   4.300078e-02 2.000000e-02 1.326398e-02
      vertex   4.449739e-02 2.200000e-02 6.706902e-03
      vertex   4.300078e-02 2.200000e-02 1.326398e-02
    endloop
  endfacet
  facet normal 9.308737e-01 -0.000000e+00 3.653410e-01
    outer loop
      vertex   4.300078e-02 2.000000e-02 1.326398e-02
      vertex   4.300078e-02 2.200000e-02 1.326398e-02
      vertex   4.054360e-02 2.000000e-02 1.952477e-02
    endloop
  endfacet
  facet normal 9.308737e-01 -0.000000e+00 3.653410e-01
    outer loop
      vertex   4.054360e-02 2.000000e-02 1.952477e-02
      vertex   4.300078e-02 2.200000e-02 1.326398e-02
      vertex   4.054360e-02 2.200000e-02 1.952477e-02
    endloop
  endfacet
  facet normal 8.660254e-01 -0.000000e+00 5.000000e-01
    outer loop
      vertex   4.054360e-02 2.000000e-02 1.952477e-02
      vertex   4.054360e-02 2.200000e-02 1.952477e-02
      vertex   3.718074e-02 2.000000e-02 2.534940e-02
    endloop
  endfacet
  facet normal 8.660254e-01 -0.000000e+00 5.000000e-01
    outer loop
      vertex   3.718074e-02 2.000000e-02 2.534940e-02
      vertex   4.054360e-02 2.200000e-02 1.952477e-02
      vertex   3.718074e-02 2.200000e-02 2.534940e-02
    endloop
  endfacet
  facet normal 7.818315e-01 -0.000000e+00 6.234898e-01
    outer loop
      vertex   3.718074e-02 2.000000e-02 2.534940e-02
      vertex   3.718074e-02 2.200000e-02 2.534940e-02
      vertex   3.298733e-02 2.000000e-02 3.060777e-02
    endloop
  endfacet
  facet normal 7.818315e-01 -0.000000e+00 6.234898e-01
    outer loop
      vertex   3.298733e-02 2.000000e-02 3.060777e-02
      vertex   3.718074e-02 2.200000e-02 2.534940e-02
      vertex   3.298733e-02 2.200000e-02 3.060777e-02
    endloop
  endfacet
  facet normal 6.801727e-01 -0.000000e+00 7.330519e-01
    outer loop
      vertex   3.298733e-02 2.000000e-02 3.060777e-02
      vertex   3.298733e-02 2.200000e-02 3.060777e-02
      vertex   2.805704e-02 2.000000e-02 3.518242e-02
    endloop
  endfacet
  facet normal 6.801727e-01 -0.000000e+00 7.330519e-01
    outer loop
      vertex   2.805704e-02 2.000000e-02 3.518242e-02
      vertex   3.298733e-02 2.200000e-02 3.060777e-02
      vertex   2.805704e-02 2.200000e-02 3.518242e-02
    endloop
  endfacet
  facet normal 5.633201e-01 -0.000000e+00 8.262388e-01
    outer loop
      vertex   2.805704e-02 2.000000e-02 3.518242e-02
      vertex   2.805704e-02 2.200000e-02 3.518242e-02
      vertex   2.250000e-02 2.000000e-02 3.897114e-02
    endloop
  endfacet
  facet normal 5.633201e-01 -0.000000e+00 8.262388e-01
    outer loop
      vertex   2.250000e-02 2.000000e-02 3.897114e-02
      vertex   2.805704e-02 2.200000e-02 3.518242e-02
      vertex   2.250000e-02 2.200000e-02 3.897114e-02
    endloop
  endfacet
  facet normal 4.338837e-01 -0.000000e+00 9.009689e-01
    outer loop
      vertex   2.250000e-02 2.000000e-02 3.897114e-02
      vertex   2.250000e-02 2.200000e-02 3.897114e-02
      vertex   1.644035e-02 2.000000e-02 4.188932e-02
    endloop
  endfacet
  facet normal 4.338837e-01 -0.000000e+00 9.009689e-01
    outer loop
      vertex   1.644035e-02 2.000000e-02 4.188932e-02
      vertex   2.250000e-02 2.200000e-02 3.897114e-02
      vertex   1.644035e-02 2.200000e-02 4.188932e-02
    endloop
  endfacet
  facet normal 2.947552e-01 -0.000000e+00 9.555728e-01
    outer loop
      vertex   1.644035e-02 2.000000e-02 4.188932e-02
      vertex   1.644035e-02 2.200000e-02 4.188932e-02
      vertex   1.001344e-02 2.000000e-02 4.387176e-02
    endloop
  endfacet
  facet normal 2.947552e-01 -0.000000e+00 9.555728e-01
    outer loop
      vertex   1.001344e-02 2.000000e-02 4.387176e-02
      vertex   1.644035e-02 2.200000e-02 4.188932e-02
      vertex   1.001344e-02 2.200000e-02 4.387176e-02
    endloop
  endfacet
  facet normal 1.490423e-01 -0.000000e+00 9.888308e-01
    outer loop
      vertex   1.001344e-02 2.000000e-02 4.387176e-02
      vertex   1.001344e-02 2.200000e-02 4.387176e-02
      vertex   3.362854e-03 2.000000e-02 4.487417e-02
    endloop
  endfacet
  facet normal 1.490423e-01 -0.000000e+00 9.888308e-01
    outer loop
      vertex   3.362854e-03 2.000000e-02 4.487417e-02
      vertex   1.001344e-02 2.200000e-02 4.387176e-02
      vertex   3.362854e-03 2.200000e-02 4.487417e-02
    endloop
  endfacet
  facet normal 0.000000e+00 -0.000000e+00 1.000000e+00
    outer loop
      vertex   3.362854e-03 2.000000e-02 4.487417e-02
      vertex   3.362854e-03 2.200000e-02 4.487417e-02
      vertex   -3.362854e-03 2.000000e-02 4.487417e-02
    endloop
  endfacet
  facet normal 0.000000e+00 0.000000e+00 1.000000e+00
    outer loop
      vertex   -3.362854e-03 2.000000e-02 4.487417e-02
      vertex   3.362854e-03 2.200000e-02 4.487417e-02
      vertex   -3.362854e-03 2.200000e-02 4.487417e-02
    endloop
  endfacet
  facet normal -1.490423e-01 0.000000e+00 9.888308e-01
    outer loop
      vertex   -3.362854e-03 2.000000e-02 4.487417e-02
      vertex   -3.362854e-03 2.200000e-02 4.487417e-02
      vertex   -1.001344e-02 2.000000e-02 4.387176e-02
    endloop
  endfacet
  facet normal -1.490423e-01 0.000000e+00 9.888308e-01
    outer loop
      vertex   -1.001344e-02 2.000000e-02 4.387176e-02
      vertex   -3.362854e-03 2.200000e-02 4.487417e-02
      vertex   -1.001344e-02 2.200000e-02 4.387176e-02
    endloop
  endfacet
  facet normal -2.947552e-01 0.000000e+00 9.555728e-01
    outer loop
      vertex   -1.001344e-02 2.000000e-02 4.387176e-02
      vertex   -1.001344e-02 2.200000e-02 4.387176e-02
      vertex   -1.644035e-02 2.000000e-02 4.188932e-02
    endloop
  endfacet
  facet normal -2.947552e-01 0.000000e+00 9.555728e-01
    outer loop
      vertex   -1.644035e-02 2.000000e-02 4.188932e-02
      vertex   -1.001344e-02 2.200000e-02 4.387176e-02
      vertex   -1.644035e-02 2.200000e-02 4.188932e-02
    endloop
  endfacet
  facet normal -4.338837e-01 0.000000e+00 9.009689e-01
    outer loop
      vertex   -1.644035e-02 2.000000e-02 4.188932e-02
      vertex   -1.644035e-02 2.200000e-02 4.188932e-02
      vertex   -2.250000e-02 2.000000e-02 3.897114e-02
    endloop
  endfacet
  facet normal -4.338837e-01 0.000000e+00 9.009689e-01
    outer loop
      vertex   -2.250000e-02 2.000000e-02 3.897114e-02
      vertex   -1.644035e-02 2.200000e-02 4.188932e-02
      vertex   -2.250000e-02 2.200000e-02 3.897114e-02
    endloop
  endfacet
  facet normal -5.633201e-01 0.000000e+00 8.262388e-01
    outer loop
      vertex   -2.250000e-02 2.000000e-02 3.897114e-02
      vertex   -2.250000e-02 2.200000e-02 3.897114e-02
      vertex   -2.805704e-02 2.000000e-02 3.518242e-02
    endloop
  endfacet
  facet normal -5.633201e-01 0.000000e+00 8.262388e-01
    outer loop
      vertex   -2.805704e-02 2.000000e-02 3.518242e-02
      vertex   -2.250000e-02 2.200000e-02 3.897114e-02
      vertex   -2.805704e-02 2.200000e-02 3.518242e-02
    endloop
  endfacet
  facet normal -6.801727e-01 0.000000e+00 7.330519e-01
    outer loop
      vertex   -2.805704e-02 2.000000e-02 3.518242e-02
      vertex   -2.805704e-02 2.200000e-02 3.518242e-02
      vertex   -3.298733e-02 2.000000e-02 3.060777e-02
    endloop
  endfacet
  facet normal -6.801727e-01 0.000000e+00 7.330519e-01
    outer loop
      vertex   -3.298733e-02 2.000000e-02 3.060777e-02
      vertex   -2.805704e-02 2.200000e-02 3.518242e-02
      vertex   -3.298733e-02 2.200000e-02 3.060777e-02
    endloop
  endfacet
  facet normal -7.818315e-01 0.000000e+00 6.234898e-01
    outer loop
      vertex   -3.298733e-02 2.000000e-02 3.060777e-02
      vertex   -3.298733e-02 2.200000e-02 3.060777e-02
      vertex   -3.718074e-02 2.000000e-02 2.534940e-02
    endloop
  endfacet
  facet normal -7.818315e-01 0.000000e+00 6.234898e-01
    outer loop
      vertex   -3.718074e-02 2.000000e-02 2.534940e-02
      vertex   -3.298733e-02 2.200000e-02 3.060777e-02
      vertex   -3.718074e-02 2.200000e-02 2.534940e-02
    endloop
  endfacet
  facet normal -8.660254e-01 0.000000e+00 5.000000e-01
    outer loop
      vertex   -3.718074e-02 2.000000e-02 2.534940e-02
      vertex   -3.718074e-02 2.200000e-02 2.534940e-02
      vertex   -4.054360e-02 2.000000e-02 1.952477e-02
    endloop
  endfacet
  facet normal -8.660254e-01 0.000000e+00 5.000000e-01
    outer loop
      vertex   -4.054360e-02 2.000000e-02 1.952477e-02
      vertex   -3.718074e-02 2.200000e-02 2.534940e-02
      vertex   -4.054360e-02 2.200000e-02 1.952477e-02
    endloop
  endfacet
  facet normal -9.308737e-01 0.000000e+00 3.653410e-01
    outer loop
      vertex   -4.054360e-02 2.000000e-02 1.952477e-02
      vertex   -4.054360e-02 2.200000e-02 1.952477e-02
      vertex   -4.300078e-02 2.000000e-02 1.326398e-02
    endloop
  endfacet
  facet normal -9.308737e-01 0.000000e+00 3.653410e-01
    outer loop
      vertex   -4.300078e-02 2.000000e-02 1.326398e-02
      vertex   -4.054360e-02 2.200000e-02 1.952477e-02
      vertex   -4.300078e-02 2.200000e-02 1.326398e-02
    endloop
  endfacet
  facet normal -9.749279e-01 0.000000e+00 2.225209e-01
    outer loop
      vertex   -4.300078e-02 2.000000e-02 1.326398e-02
      vertex   -4.300078e-02 2.200000e-02 1.326398e-02
      vertex   -4.449739e-02 2.000000e-02 6.706902e-03
    endloop
  endfacet
  facet normal -9.749279e-01 0.000000e+00 2.225209e-01
    outer loop
      vertex   -4.449739e-02 2.000000e-02 6.706902e-03
      vertex   -4.300078e-02 2.200000e-02 1.326398e-02
      vertex   -4.449739e-02 2.200000e-02 6.706902e-03
    endloop
  endfacet
  facet normal 0.000000e+00 1.000000e+00 0.000000e+00
    outer loop
      vertex   -4.449739e-02 2.200000e-02 6.706902e-03
      vertex   4.449739e-02 2.200000e-02 6.706902e-03
      vertex   -4.500000e-02 2.200000e-02 5.510911e-18
    endloop
  endfacet
  facet normal -0.000000e+00 1.000000e+00 0.000000e+00
    outer loop
      vertex   -4.500000e-02 2.200000e-02 5.510911e-18
      vertex   4.449739e-02 2.200000e-02 6.706902e-03
      vertex   4.500000e-02 2.200000e-02 0.000000e+00
    endloop
  endfacet
  facet normal 0.000000e+00 1.000000e+00 0.000000e+00
    outer loop
      vertex   -4.500000e-02 2.200000e-02 5.510911e-18
      vertex   4.500000e-02 2.200000e-02 0.000000e+00
      vertex   -4.449739e-02 2.200000e-02 -6.706902e-03
    endloop
  endfacet
  facet normal -0.000000e+00 1.000000e+00 0.000000e+00
    outer loop
      vertex   -4.449739e-02 2.200000e-02 -6.706902e-03
      vertex   4.500000e-02 2.200000e-02 0.000000e+00
      vertex   4.449739e-02 2.200000e-02 -6.706902e-03
    endloop
  endfacet
  facet normal 0.000000e+00 1.000000e+00 0.000000e+00
    outer loop
      vertex   -4.449739e-02 2.200000e-02 -6.706902e-03
      vertex   4.449739e-02 2.200000e-02 -6.706902e-03
      vertex   -4.300078e-02 2.200000e-02 -1.326398e-02
    endloop
  endfacet
  facet normal -0.000000e+00 1.000000e+00 0.000000e+00
    outer loop
      vertex   -4.300078e-02 2.200000e-02 -1.326398e-02
      vertex   4.449739e-02 2.200000e-02 -6.706902e-03
      vertex   4.300078e-02 2.200000e-02 -1.326398e-02
    endloop
  endfacet
  facet normal 0.000000e+00 1.000000e+00 0.000000e+00
    outer loop
      vertex   -4.300078e-02 2.200000e-02 -1.326398e-02
      vertex   4.300078e-02 2.200000e-02 -1.326398e-02
      vertex   -4.054360e-02 2.200000e-02 -1.952477e-02
    endloop
  endfacet
  facet normal 0.000000e+00 1.000000e+00 0.000000e+00
    outer loop
      vertex   -4.054360e-02 2.200000e-02 -1.952477e-02
      vertex   4.300078e-02 2.200000e-02 -1.326398e-02
      vertex   4.054360e-02 2.200000e-02 -1.952477e-02
    endloop
  endfacet
  facet normal -0.000000e+00 1.000000e+00 0.000000e+00
    outer loop
      vertex   -4.054360e-02 2.200000e-02 -1.952477e-02
      vertex   4.054360e-02 2.200000e-02 -1.952477e-02
      vertex   -3.718074e-02 2.200000e-02 -2.534940e-02
    endloop
  endfacet
  facet normal -0.000000e+00 1.000000e+00 0.000000e+00
    outer loop
      vertex   -3.718074e-02 2.200000e-02 -2.534940e-02
      vertex   4.054360e-02 2.200000e-02 -1.952477e-02
      vertex   3.718074e-02 2.200000e-02 -2.534940e-02
    endloop
  endfacet
  facet normal 0.000000e+00 1.000000e+00 0.000000e+00
    outer loop
      vertex   -3.718074e-02 2.200000e-02 -2.534940e-02
      vertex   3.718074e-02 2.200000e-02 -2.534940e-02
      vertex   -3.298733e-02 2.200000e-02 -3.060777e-02
    endloop
  endfacet
  facet normal -0.000000e+00 1.000000e+00 0.000000e+00
    outer loop
      vertex   -3.298733e-02 2.200000e-02 -3.060777e-02
      vertex   3.718074e-02 2.200000e-02 -2.534940e-02
      vertex   3.298733e-02 2.200000e-02 -3.060777e-02
    endloop
  endfacet
  facet normal 0.000000e+00 1.000000e+00 0.000000e+00
    outer loop
      vertex   -3.298733e-02 2.200000e-02 -3.060777e-02
      vertex   3.298733e-02 2.200000e-02 -3.060777e-02
      vertex   -2.805704e-02 2.200000e-02 -3.518242e-02
    endloop
  endfacet
  facet normal 0.000000e+00 1.000000e+00 0.000000e+00
    outer loop
      vertex   -2.805704e-02 2.200000e-02 -3.518242e-02
      vertex   3.298733e-02 2.200000e-02 -3.060777e-02
      vertex   2.805704e-02 2.200000e-02 -3.518242e-02
    endloop
  endfacet
  facet normal -0.000000e+00 1.000000e+00 0.000000e+00
    outer loop
      vertex   -2.805704e-02 2.200000e-02 -3.518242e-02
      vertex   2.805704e-02 2.200000e-02 -3.518242e-02
      vertex   -2.250000e-02 2.200000e-02 -3.897114e-02
    endloop
  endfacet
  facet normal -0.000000e+00 1.000000e+00 0.000000e+00
    outer loop
      vertex   -2.250000e-02 2.200000e-02 -3.897114e-02
      vertex   2.805704e-02 2.200000e-02 -3.518242e-02
      vertex   2.250000e-02 2.200000e-02 -3.897114e-02
    endloop
  endfacet
  facet normal 0.000000e+00 1.000000e+00 0.000000e+00
    outer loop
      vertex   -2.250000e-02 2.200000e-02 -3.897114e-02
      vertex   2.250000e-02 2.200000e-02 -3.897114e-02
      vertex   -1.644035e-02 2.200000e-02 -4.188932e-02
    endloop
  endfacet
  facet normal -0.000000e+00 1.000000e+00 0.000000e+00
    outer loop
      vertex   -1.644035e-02 2.200000e-02 -4.188932e-02
      vertex   2.250000e-02 2.200000e-02 -3.897114e-02
      vertex   1.644035e-02 2.200000e-02 -4.188932e-02
    endloop
  endfacet
  facet normal 0.000000e+00 1.000000e+00 0.000000e+00
    outer loop
      vertex   -1.644035e-02 2.200000e-02 -4.188932e-02
      vertex   1.644035e-02 2.200000e-02 -4.188932e-02
      vertex   -1.001344e-02 2.200000e-02 -4.387176e-02
    endloop
  endfacet
  facet normal 0.000000e+00 1.000000e+00 0.000000e+00
    outer loop
      vertex   -1.001344e-02 2.200000e-02 -4.387176e-02
      vertex   1.644035e-02 2.200000e-02 -4.188932e-02
      vertex   1.001344e-02 2.200000e-02 -4.387176e-02
    endloop
  endfacet
  facet normal -0.000000e+00 1.000000e+00 0.000000e+00
    outer loop
      vertex   -1.001344e-02 2.200000e-02 -4.387176e-02
      vertex   1.001344e-02 2.200000e-02 -4.387176e-02
      vertex   -3.362854e-03 2.200000e-02 -4.487417e-02
    endloop
  endfacet
  facet normal -0.000000e+00 1.000000e+00 0.000000e+00
    outer loop
      vertex   -3.362854e-03 2.200000e-02 -4.487417e-02
      vertex   1.001344e-02 2.200000e-02 -4.387176e-02
      vertex   3.362854e-03 2.200000e-02 -4.487417e-02
    endloop
  endfacet
  facet normal 0.000000e+00 1.000000e+00 0.000000e+00
    outer loop
      vertex   4.449739e-02 2.200000e-02 6.706902e-03
      vertex   -4.449739e-02 2.200000e-02 6.706902e-03
      vertex   4.300078e-02 2.200000e-02 1.326398e-02
    endloop
  endfacet
  facet normal 0.000000e+00 1.000000e+00 0.000000e+00
    outer loop
      vertex   4.300078e-02 2.200000e-02 1.326398e-02
      vertex   -4.449739e-02 2.200000e-02 6.706902e-03
      vertex   -4.300078e-02 2.200000e-02 1.326398e-02
    endloop
  endfacet
  facet normal 0.000000e+00 1.000000e+00 0.000000e+00
    outer loop
      vertex   4.300078e-02 2.200000e-02 1.326398e-02
      vertex   -4.300078e-02 2.200000e-02 1.326398e-02
      vertex   4.054360e-02 2.200000e-02 1.952477e-02
    endloop
  endfacet
  facet normal 0.000000e+00 1.000000e+00 0.000000e+00
    outer loop
      vertex   4.054360e-02 2.200000e-02 1.952477e-02
      vertex   -4.300078e-02 2.200000e-02 1.326398e-02
      vertex   -4.054360e-02 2.200000e-02 1.952477e-02
    endloop
  endfacet
  facet normal 0.000000e+00 1.000000e+00 0.000000e+00
    outer loop
      vertex   4.054360e-02 2.200000e-02 1.952477e-02
      vertex   -4.054360e-02 2.200000e-02 1.952477e-02
      vertex   3.718074e-02 2.200000e-02 2.534940e-02
    endloop
  endfacet
  facet normal 0.000000e+00 1.000000e+00 0.000000e+00
    outer loop
      vertex   3.718074e-02 2.200000e-02 2.534940e-02
      vertex   -4.054360e-02 2.200000e-02 1.952477e-02
      vertex   -3.718074e-02 2.200000e-02 2.534940e-02
    endloop
  endfacet
  facet normal 0.000000e+00 1.000000e+00 0.000000e+00
    outer loop
      vertex   3.718074e-02 2.200000e-02 2.534940e-02
      vertex   -3.718074e-02 2.200000e-02 2.534940e-02
      vertex   3.298733e-02 2.200000e-02 3.060777e-02
    endloop
  endfacet
  facet normal 0.000000e+00 1.000000e+00 0.000000e+00
    outer loop
      vertex   3.298733e-02 2.200000e-02 3.060777e-02
      vertex   -3.718074e-02 2.200000e-02 2.534940e-02
      vertex   -3.298733e-02 2.200000e-02 3.060777e-02
    endloop
  endfacet
  facet normal 0.000000e+00 1.000000e+00 0.000000e+00
    outer loop
      vertex   3.298733e-02 2.200000e-02 3.060777e-02
      vertex   -3.298733e-02 2.200000e-02 3.060777e-02
      vertex   2.805704e-02 2.200000e-02 3.518242e-02
    endloop
  endfacet
  facet normal 0.000000e+00 1.000000e+00 0.000000e+00
    outer loop
      vertex   2.805704e-02 2.200000e-02 3.518242e-02
      vertex   -3.298733e-02 2.200000e-02 3.060777e-02
      vertex   -2.805704e-02 2.200000e-02 3.518242e-02
    endloop
  endfacet
  facet normal 0.000000e+00 1.000000e+00 0.000000e+00
    outer loop
      vertex   2.805704e-02 2.200000e-02 3.518242e-02
      vertex   -2.805704e-02 2.200000e-02 3.518242e-02
      vertex   2.250000e-02 2.200000e-02 3.897114e-02
    endloop
  endfacet
  facet normal 0.000000e+00 1.000000e+00 0.000000e+00
    outer loop
      vertex   2.250000e-02 2.200000e-02 3.897114e-02
      vertex   -2.805704e-02 2.200000e-02 3.518242e-02
      vertex   -2.250000e-02 2.200000e-02 3.897114e-02
    endloop
  endfacet
  facet normal 0.000000e+00 1.000000e+00 0.000000e+00
    outer loop
      vertex   2.250000e-02 2.200000e-02 3.897114e-02
      vertex   -2.250000e-02 2.200000e-02 3.897114e-02
      vertex   1.644035e-02 2.200000e-02 4.188932e-02
    endloop
  endfacet
  facet normal 0.000000e+00 1.000000e+00 0.000000e+00
    outer loop
      vertex   1.644035e-02 2.200000e-02 4.188932e-02
      vertex   -2.250000e-02 2.200000e-02 3.897114e-02
      vertex   -1.644035e-02 2.200000e-02 4.188932e-02
    endloop
  endfacet
  facet normal 0.000000e+00 1.000000e+00 0.000000e+00
    outer loop
      vertex   1.644035e-02 2.200000e-02 4.188932e-02
      vertex   -1.644035e-02 2.200000e-02 4.188932e-02
      vertex   1.001344e-02 2.200000e-02 4.387176e-02
    endloop
  endfacet
  facet normal 0.000000e+00 1.000000e+00 0.000000e+00
    outer loop
      vertex   1.001344e-02 2.200000e-02 4.387176e-02
      vertex   -1.644035e-02 2.200000e-02 4.188932e-02
      vertex   -1.001344e-02 2.200000e-02 4.387176e-02
    endloop
  endfacet
  facet normal 0.000000e+00 1.000000e+00 0.000000e+00
    outer loop
      vertex   1.001344e-02 2.200000e-02 4.387176e-02
      vertex   -1.001344e-02 2.200000e-02 4.387176e-02
      vertex   3.362854e-03 2.200000e-02 4.487417e-02
    endloop
  endfacet
  facet normal 0.000000e+00 1.000000e+00 0.000000e+00
    outer loop
      vertex   3.362854e-03 2.200000e-02 4.487417e-02
      vertex   -1.001344e-02 2.200000e-02 4.387176e-02
      vertex   -3.362854e-03 2.200000e-02 4.487417e-02
    endloop
  endfacet
endsolid
