solid ASCII
  facet normal 9.974521e-01 0.000000e+00 -7.133918e-02
    outer loop
      vertex   -4.157250e+01 2.000000e+01 5.977223e+00
      vertex   -4.157250e+01 0.000000e+00 5.977223e+00
      vertex   -4.200000e+01 2.000000e+01 5.143517e-15
    endloop
  endfacet
  facet normal 9.974521e-01 0.000000e+00 -7.133918e-02
    outer loop
      vertex   -4.200000e+01 2.000000e+01 5.143517e-15
      vertex   -4.157250e+01 0.000000e+00 5.977223e+00
      vertex   -4.200000e+01 0.000000e+00 5.143517e-15
    endloop
  endfacet
  facet normal 9.974521e-01 0.000000e+00 7.133918e-02
    outer loop
      vertex   -4.200000e+01 2.000000e+01 5.143517e-15
      vertex   -4.200000e+01 0.000000e+00 5.143517e-15
      vertex   -4.157250e+01 2.000000e+01 -5.977223e+00
    endloop
  endfacet
  facet normal 9.974521e-01 0.000000e+00 7.133918e-02
    outer loop
      vertex   -4.157250e+01 2.000000e+01 -5.977223e+00
      vertex   -4.200000e+01 0.000000e+00 5.143517e-15
      vertex   -4.157250e+01 0.000000e+00 -5.977223e+00
    endloop
  endfacet
  facet normal 9.771469e-01 0.000000e+00 2.125653e-01
    outer loop
      vertex   -4.157250e+01 2.000000e+01 -5.977223e+00
      vertex   -4.157250e+01 0.000000e+00 -5.977223e+00
      vertex   -4.029870e+01 0.000000e+00 -1.183277e+01
    endloop
  endfacet
  facet normal 9.771469e-01 0.000000e+00 -2.125653e-01
    outer loop
      vertex   -4.157250e+01 2.000000e+01 5.977223e+00
      vertex   -4.029870e+01 2.000000e+01 1.183277e+01
      vertex   -4.157250e+01 0.000000e+00 5.977223e+00
    endloop
  endfacet
  facet normal 9.771469e-01 0.000000e+00 -2.125653e-01
    outer loop
      vertex   -4.157250e+01 0.000000e+00 5.977223e+00
      vertex   -4.029870e+01 2.000000e+01 1.183277e+01
      vertex   -4.029870e+01 0.000000e+00 1.183277e+01
    endloop
  endfacet
  facet normal 9.369497e-01 0.000000e+00 -3.494642e-01
    outer loop
      vertex   -4.029870e+01 0.000000e+00 1.183277e+01
      vertex   -4.029870e+01 2.000000e+01 1.183277e+01
      vertex   -3.820454e+01 2.000000e+01 1.744743e+01
    endloop
  endfacet
  facet normal 9.369497e-01 0.000000e+00 -3.494642e-01
    outer loop
      vertex   -4.029870e+01 0.000000e+00 1.183277e+01
      vertex   -3.820454e+01 2.000000e+01 1.744743e+01
      vertex   -3.820454e+01 0.000000e+00 1.744743e+01
    endloop
  endfacet
  facet normal 8.776790e-01 0.000000e+00 -4.792490e-01
    outer loop
      vertex   -3.820454e+01 0.000000e+00 1.744743e+01
      vertex   -3.820454e+01 2.000000e+01 1.744743e+01
      vertex   -3.533265e+01 2.000000e+01 2.270691e+01
    endloop
  endfacet
  facet normal 8.776790e-01 0.000000e+00 -4.792490e-01
    outer loop
      vertex   -3.820454e+01 0.000000e+00 1.744743e+01
      vertex   -3.533265e+01 2.000000e+01 2.270691e+01
      vertex   -3.533265e+01 0.000000e+00 2.270691e+01
    endloop
  endfacet
  facet normal 8.005412e-01 0.000000e+00 -5.992777e-01
    outer loop
      vertex   -3.533265e+01 0.000000e+00 2.270691e+01
      vertex   -3.533265e+01 2.000000e+01 2.270691e+01
      vertex   -3.174148e+01 2.000000e+01 2.750415e+01
    endloop
  endfacet
  facet normal 8.005412e-01 0.000000e+00 -5.992777e-01
    outer loop
      vertex   -3.533265e+01 0.000000e+00 2.270691e+01
      vertex   -3.174148e+01 2.000000e+01 2.750415e+01
      vertex   -3.174148e+01 0.000000e+00 2.750415e+01
    endloop
  endfacet
  facet normal 7.071068e-01 0.000000e+00 -7.071068e-01
    outer loop
      vertex   -3.174148e+01 0.000000e+00 2.750415e+01
      vertex   -3.174148e+01 2.000000e+01 2.750415e+01
      vertex   -2.750415e+01 2.000000e+01 3.174148e+01
    endloop
  endfacet
  facet normal 7.071068e-01 0.000000e+00 -7.071068e-01
    outer loop
      vertex   -3.174148e+01 0.000000e+00 2.750415e+01
      vertex   -2.750415e+01 2.000000e+01 3.174148e+01
      vertex   -2.750415e+01 0.000000e+00 3.174148e+01
    endloop
  endfacet
  facet normal 5.992777e-01 0.000000e+00 -8.005412e-01
    outer loop
      vertex   -2.750415e+01 0.000000e+00 3.174148e+01
      vertex   -2.750415e+01 2.000000e+01 3.174148e+01
      vertex   -2.270691e+01 2.000000e+01 3.533265e+01
    endloop
  endfacet
  facet normal 5.992777e-01 0.000000e+00 -8.005412e-01
    outer loop
      vertex   -2.750415e+01 0.000000e+00 3.174148e+01
      vertex   -2.270691e+01 2.000000e+01 3.533265e+01
      vertex   -2.270691e+01 0.000000e+00 3.533265e+01
    endloop
  endfacet
  facet normal 4.792490e-01 0.000000e+00 -8.776790e-01
    outer loop
      vertex   -2.270691e+01 0.000000e+00 3.533265e+01
      vertex   -2.270691e+01 2.000000e+01 3.533265e+01
      vertex   -1.744743e+01 2.000000e+01 3.820454e+01
    endloop
  endfacet
  facet normal 4.792490e-01 0.000000e+00 -8.776790e-01
    outer loop
      vertex   -2.270691e+01 0.000000e+00 3.533265e+01
      vertex   -1.744743e+01 2.000000e+01 3.820454e+01
      vertex   -1.744743e+01 0.000000e+00 3.820454e+01
    endloop
  endfacet
  facet normal 3.494642e-01 0.000000e+00 -9.369497e-01
    outer loop
      vertex   -1.744743e+01 0.000000e+00 3.820454e+01
      vertex   -1.744743e+01 2.000000e+01 3.820454e+01
      vertex   -1.183277e+01 2.000000e+01 4.029870e+01
    endloop
  endfacet
  facet normal 3.494642e-01 0.000000e+00 -9.369497e-01
    outer loop
      vertex   -1.744743e+01 0.000000e+00 3.820454e+01
      vertex   -1.183277e+01 2.000000e+01 4.029870e+01
      vertex   -1.183277e+01 0.000000e+00 4.029870e+01
    endloop
  endfacet
  facet normal 2.125653e-01 0.000000e+00 -9.771469e-01
    outer loop
      vertex   -1.183277e+01 0.000000e+00 4.029870e+01
      vertex   -1.183277e+01 2.000000e+01 4.029870e+01
      vertex   -5.977223e+00 2.000000e+01 4.157250e+01
    endloop
  endfacet
  facet normal 2.125653e-01 0.000000e+00 -9.771469e-01
    outer loop
      vertex   -1.183277e+01 0.000000e+00 4.029870e+01
      vertex   -5.977223e+00 2.000000e+01 4.157250e+01
      vertex   -5.977223e+00 0.000000e+00 4.157250e+01
    endloop
  endfacet
  facet normal 7.133918e-02 0.000000e+00 -9.974521e-01
    outer loop
      vertex   -5.977223e+00 0.000000e+00 4.157250e+01
      vertex   -5.977223e+00 2.000000e+01 4.157250e+01
      vertex   2.571758e-15 2.000000e+01 4.200000e+01
    endloop
  endfacet
  facet normal 7.133918e-02 0.000000e+00 -9.974521e-01
    outer loop
      vertex   -5.977223e+00 0.000000e+00 4.157250e+01
      vertex   2.571758e-15 2.000000e+01 4.200000e+01
      vertex   2.571758e-15 0.000000e+00 4.200000e+01
    endloop
  endfacet
  facet normal -7.133918e-02 0.000000e+00 -9.974521e-01
    outer loop
      vertex   2.571758e-15 0.000000e+00 4.200000e+01
      vertex   2.571758e-15 2.000000e+01 4.200000e+01
      vertex   5.977223e+00 2.000000e+01 4.157250e+01
    endloop
  endfacet
  facet normal -7.133918e-02 0.000000e+00 -9.974521e-01
    outer loop
      vertex   2.571758e-15 0.000000e+00 4.200000e+01
      vertex   5.977223e+00 2.000000e+01 4.157250e+01
      vertex   5.977223e+00 0.000000e+00 4.157250e+01
    endloop
  endfacet
  facet normal -2.125653e-01 0.000000e+00 -9.771469e-01
    outer loop
      vertex   5.977223e+00 0.000000e+00 4.157250e+01
      vertex   5.977223e+00 2.000000e+01 4.157250e+01
      vertex   1.183277e+01 2.000000e+01 4.029870e+01
    endloop
  endfacet
  facet normal -2.125653e-01 0.000000e+00 -9.771469e-01
    outer loop
      vertex   5.977223e+00 0.000000e+00 4.157250e+01
      vertex   1.183277e+01 2.000000e+01 4.029870e+01
      vertex   1.183277e+01 0.000000e+00 4.029870e+01
    endloop
  endfacet
  facet normal -3.494642e-01 0.000000e+00 -9.369497e-01
    outer loop
      vertex   1.183277e+01 0.000000e+00 4.029870e+01
      vertex   1.183277e+01 2.000000e+01 4.029870e+01
      vertex   1.744743e+01 2.000000e+01 3.820454e+01
    endloop
  endfacet
  facet normal -3.494642e-01 0.000000e+00 -9.369497e-01
    outer loop
      vertex   1.183277e+01 0.000000e+00 4.029870e+01
      vertex   1.744743e+01 2.000000e+01 3.820454e+01
      vertex   1.744743e+01 0.000000e+00 3.820454e+01
    endloop
  endfacet
  facet normal -4.792490e-01 0.000000e+00 -8.776790e-01
    outer loop
      vertex   1.744743e+01 0.000000e+00 3.820454e+01
      vertex   1.744743e+01 2.000000e+01 3.820454e+01
      vertex   2.270691e+01 2.000000e+01 3.533265e+01
    endloop
  endfacet
  facet normal -4.792490e-01 0.000000e+00 -8.776790e-01
    outer loop
      vertex   1.744743e+01 0.000000e+00 3.820454e+01
      vertex   2.270691e+01 2.000000e+01 3.533265e+01
      vertex   2.270691e+01 0.000000e+00 3.533265e+01
    endloop
  endfacet
  facet normal -5.992777e-01 0.000000e+00 -8.005412e-01
    outer loop
      vertex   2.270691e+01 0.000000e+00 3.533265e+01
      vertex   2.270691e+01 2.000000e+01 3.533265e+01
      vertex   2.750415e+01 2.000000e+01 3.174148e+01
    endloop
  endfacet
  facet normal -5.992777e-01 0.000000e+00 -8.005412e-01
    outer loop
      vertex   2.270691e+01 0.000000e+00 3.533265e+01
      vertex   2.750415e+01 2.000000e+01 3.174148e+01
      vertex   2.750415e+01 0.000000e+00 3.174148e+01
    endloop
  endfacet
  facet normal -7.071068e-01 0.000000e+00 -7.071068e-01
    outer loop
      vertex   2.750415e+01 0.000000e+00 3.174148e+01
      vertex   2.750415e+01 2.000000e+01 3.174148e+01
      vertex   3.174148e+01 2.000000e+01 2.750415e+01
    endloop
  endfacet
  facet normal -7.071068e-01 0.000000e+00 -7.071068e-01
    outer loop
      vertex   2.750415e+01 0.000000e+00 3.174148e+01
      vertex   3.174148e+01 2.000000e+01 2.750415e+01
      vertex   3.174148e+01 0.000000e+00 2.750415e+01
    endloop
  endfacet
  facet normal -8.005412e-01 0.000000e+00 -5.992777e-01
    outer loop
      vertex   3.174148e+01 0.000000e+00 2.750415e+01
      vertex   3.174148e+01 2.000000e+01 2.750415e+01
      vertex   3.533265e+01 2.000000e+01 2.270691e+01
    endloop
  endfacet
  facet normal -8.005412e-01 0.000000e+00 -5.992777e-01
    outer loop
      vertex   3.174148e+01 0.000000e+00 2.750415e+01
      vertex   3.533265e+01 2.000000e+01 2.270691e+01
      vertex   3.533265e+01 0.000000e+00 2.270691e+01
    endloop
  endfacet
  facet normal -8.776790e-01 0.000000e+00 -4.792490e-01
    outer loop
      vertex   3.533265e+01 0.000000e+00 2.270691e+01
      vertex   3.533265e+01 2.000000e+01 2.270691e+01
      vertex   3.820454e+01 2.000000e+01 1.744743e+01
    endloop
  endfacet
  facet normal -8.776790e-01 0.000000e+00 -4.792490e-01
    outer loop
      vertex   3.533265e+01 0.000000e+00 2.270691e+01
      vertex   3.820454e+01 2.000000e+01 1.744743e+01
      vertex   3.820454e+01 0.000000e+00 1.744743e+01
    endloop
  endfacet
  facet normal -9.369497e-01 0.000000e+00 -3.494642e-01
    outer loop
      vertex   3.820454e+01 0.000000e+00 1.744743e+01
      vertex   3.820454e+01 2.000000e+01 1.744743e+01
      vertex   4.029870e+01 2.000000e+01 1.183277e+01
    endloop
  endfacet
  facet normal -9.369497e-01 0.000000e+00 -3.494642e-01
    outer loop
      vertex   3.820454e+01 0.000000e+00 1.744743e+01
      vertex   4.029870e+01 2.000000e+01 1.183277e+01
      vertex   4.029870e+01 0.000000e+00 1.183277e+01
    endloop
  endfacet
  facet normal -9.771469e-01 0.000000e+00 -2.125653e-01
    outer loop
      vertex   4.029870e+01 0.000000e+00 1.183277e+01
      vertex   4.029870e+01 2.000000e+01 1.183277e+01
      vertex   4.157250e+01 2.000000e+01 5.977223e+00
    endloop
  endfacet
  facet normal -9.771469e-01 0.000000e+00 -2.125653e-01
    outer loop
      vertex   4.029870e+01 0.000000e+00 1.183277e+01
      vertex   4.157250e+01 2.000000e+01 5.977223e+00
      vertex   4.157250e+01 0.000000e+00 5.977223e+00
    endloop
  endfacet
  facet normal -9.974521e-01 0.000000e+00 -7.133918e-02
    outer loop
      vertex   4.157250e+01 0.000000e+00 5.977223e+00
      vertex   4.157250e+01 2.000000e+01 5.977223e+00
      vertex   4.200000e+01 2.000000e+01 0.000000e+00
    endloop
  endfacet
  facet normal -9.974521e-01 0.000000e+00 -7.133918e-02
    outer loop
      vertex   4.157250e+01 0.000000e+00 5.977223e+00
      vertex   4.200000e+01 2.000000e+01 0.000000e+00
      vertex   4.200000e+01 0.000000e+00 0.000000e+00
    endloop
  endfacet
  facet normal -9.974521e-01 0.000000e+00 7.133918e-02
    outer loop
      vertex   4.200000e+01 0.000000e+00 0.000000e+00
      vertex   4.200000e+01 2.000000e+01 0.000000e+00
      vertex   4.157250e+01 2.000000e+01 -5.977223e+00
    endloop
  endfacet
  facet normal -9.974521e-01 0.000000e+00 7.133918e-02
    outer loop
      vertex   4.200000e+01 0.000000e+00 0.000000e+00
      vertex   4.157250e+01 2.000000e+01 -5.977223e+00
      vertex   4.157250e+01 0.000000e+00 -5.977223e+00
    endloop
  endfacet
  facet normal -9.771469e-01 0.000000e+00 2.125653e-01
    outer loop
      vertex   4.157250e+01 0.000000e+00 -5.977223e+00
      vertex   4.157250e+01 2.000000e+01 -5.977223e+00
      vertex   4.029870e+01 2.000000e+01 -1.183277e+01
    endloop
  endfacet
  facet normal -9.771469e-01 0.000000e+00 2.125653e-01
    outer loop
      vertex   4.157250e+01 0.000000e+00 -5.977223e+00
      vertex   4.029870e+01 2.000000e+01 -1.183277e+01
      vertex   4.029870e+01 0.000000e+00 -1.183277e+01
    endloop
  endfacet
  facet normal -9.369497e-01 0.000000e+00 3.494642e-01
    outer loop
      vertex   4.029870e+01 0.000000e+00 -1.183277e+01
      vertex   4.029870e+01 2.000000e+01 -1.183277e+01
      vertex   3.820454e+01 2.000000e+01 -1.744743e+01
    endloop
  endfacet
  facet normal -9.369497e-01 0.000000e+00 3.494642e-01
    outer loop
      vertex   4.029870e+01 0.000000e+00 -1.183277e+01
      vertex   3.820454e+01 2.000000e+01 -1.744743e+01
      vertex   3.820454e+01 0.000000e+00 -1.744743e+01
    endloop
  endfacet
  facet normal -8.776790e-01 0.000000e+00 4.792490e-01
    outer loop
      vertex   3.820454e+01 0.000000e+00 -1.744743e+01
      vertex   3.820454e+01 2.000000e+01 -1.744743e+01
      vertex   3.533265e+01 2.000000e+01 -2.270691e+01
    endloop
  endfacet
  facet normal -8.776790e-01 0.000000e+00 4.792490e-01
    outer loop
      vertex   3.820454e+01 0.000000e+00 -1.744743e+01
      vertex   3.533265e+01 2.000000e+01 -2.270691e+01
      vertex   3.533265e+01 0.000000e+00 -2.270691e+01
    endloop
  endfacet
  facet normal -8.005412e-01 0.000000e+00 5.992777e-01
    outer loop
      vertex   3.533265e+01 0.000000e+00 -2.270691e+01
      vertex   3.533265e+01 2.000000e+01 -2.270691e+01
      vertex   3.174148e+01 2.000000e+01 -2.750415e+01
    endloop
  endfacet
  facet normal -8.005412e-01 0.000000e+00 5.992777e-01
    outer loop
      vertex   3.533265e+01 0.000000e+00 -2.270691e+01
      vertex   3.174148e+01 2.000000e+01 -2.750415e+01
      vertex   3.174148e+01 0.000000e+00 -2.750415e+01
    endloop
  endfacet
  facet normal -7.071068e-01 0.000000e+00 7.071068e-01
    outer loop
      vertex   3.174148e+01 0.000000e+00 -2.750415e+01
      vertex   3.174148e+01 2.000000e+01 -2.750415e+01
      vertex   2.750415e+01 2.000000e+01 -3.174148e+01
    endloop
  endfacet
  facet normal -7.071068e-01 0.000000e+00 7.071068e-01
    outer loop
      vertex   3.174148e+01 0.000000e+00 -2.750415e+01
      vertex   2.750415e+01 2.000000e+01 -3.174148e+01
      vertex   2.750415e+01 0.000000e+00 -3.174148e+01
    endloop
  endfacet
  facet normal -5.992777e-01 0.000000e+00 8.005412e-01
    outer loop
      vertex   2.750415e+01 0.000000e+00 -3.174148e+01
      vertex   2.750415e+01 2.000000e+01 -3.174148e+01
      vertex   2.270691e+01 2.000000e+01 -3.533265e+01
    endloop
  endfacet
  facet normal -5.992777e-01 0.000000e+00 8.005412e-01
    outer loop
      vertex   2.750415e+01 0.000000e+00 -3.174148e+01
      vertex   2.270691e+01 2.000000e+01 -3.533265e+01
      vertex   2.270691e+01 0.000000e+00 -3.533265e+01
    endloop
  endfacet
  facet normal -4.792490e-01 0.000000e+00 8.776790e-01
    outer loop
      vertex   2.270691e+01 0.000000e+00 -3.533265e+01
      vertex   2.270691e+01 2.000000e+01 -3.533265e+01
      vertex   1.744743e+01 2.000000e+01 -3.820454e+01
    endloop
  endfacet
  facet normal -4.792490e-01 0.000000e+00 8.776790e-01
    outer loop
      vertex   2.270691e+01 0.000000e+00 -3.533265e+01
      vertex   1.744743e+01 2.000000e+01 -3.820454e+01
      vertex   1.744743e+01 0.000000e+00 -3.820454e+01
    endloop
  endfacet
  facet normal -3.494642e-01 0.000000e+00 9.369497e-01
    outer loop
      vertex   1.744743e+01 0.000000e+00 -3.820454e+01
      vertex   1.744743e+01 2.000000e+01 -3.820454e+01
      vertex   1.183277e+01 2.000000e+01 -4.029870e+01
    endloop
  endfacet
  facet normal -3.494642e-01 0.000000e+00 9.369497e-01
    outer loop
      vertex   1.744743e+01 0.000000e+00 -3.820454e+01
      vertex   1.183277e+01 2.000000e+01 -4.029870e+01
      vertex   1.183277e+01 0.000000e+00 -4.029870e+01
    endloop
  endfacet
  facet normal -2.125653e-01 0.000000e+00 9.771469e-01
    outer loop
      vertex   1.183277e+01 0.000000e+00 -4.029870e+01
      vertex   1.183277e+01 2.000000e+01 -4.029870e+01
      vertex   5.977223e+00 2.000000e+01 -4.157250e+01
    endloop
  endfacet
  facet normal -2.125653e-01 0.000000e+00 9.771469e-01
    outer loop
      vertex   1.183277e+01 0.000000e+00 -4.029870e+01
      vertex   5.977223e+00 2.000000e+01 -4.157250e+01
      vertex   5.977223e+00 0.000000e+00 -4.157250e+01
    endloop
  endfacet
  facet normal -7.133918e-02 0.000000e+00 9.974521e-01
    outer loop
      vertex   5.977223e+00 0.000000e+00 -4.157250e+01
      vertex   5.977223e+00 2.000000e+01 -4.157250e+01
      vertex   2.571758e-15 2.000000e+01 -4.200000e+01
    endloop
  endfacet
  facet normal -7.133918e-02 0.000000e+00 9.974521e-01
    outer loop
      vertex   5.977223e+00 0.000000e+00 -4.157250e+01
      vertex   2.571758e-15 2.000000e+01 -4.200000e+01
      vertex   2.571758e-15 0.000000e+00 -4.200000e+01
    endloop
  endfacet
  facet normal 7.133918e-02 -0.000000e+00 9.974521e-01
    outer loop
      vertex   2.571758e-15 0.000000e+00 -4.200000e+01
      vertex   2.571758e-15 2.000000e+01 -4.200000e+01
      vertex   -5.977223e+00 2.000000e+01 -4.157250e+01
    endloop
  endfacet
  facet normal 7.133918e-02 0.000000e+00 9.974521e-01
    outer loop
      vertex   2.571758e-15 0.000000e+00 -4.200000e+01
      vertex   -5.977223e+00 2.000000e+01 -4.157250e+01
      vertex   -5.977223e+00 0.000000e+00 -4.157250e+01
    endloop
  endfacet
  facet normal 2.125653e-01 -0.000000e+00 9.771469e-01
    outer loop
      vertex   -5.977223e+00 0.000000e+00 -4.157250e+01
      vertex   -5.977223e+00 2.000000e+01 -4.157250e+01
      vertex   -1.183277e+01 2.000000e+01 -4.029870e+01
    endloop
  endfacet
  facet normal 2.125653e-01 0.000000e+00 9.771469e-01
    outer loop
      vertex   -5.977223e+00 0.000000e+00 -4.157250e+01
      vertex   -1.183277e+01 2.000000e+01 -4.029870e+01
      vertex   -1.183277e+01 0.000000e+00 -4.029870e+01
    endloop
  endfacet
  facet normal 3.494642e-01 -0.000000e+00 9.369497e-01
    outer loop
      vertex   -1.183277e+01 0.000000e+00 -4.029870e+01
      vertex   -1.183277e+01 2.000000e+01 -4.029870e+01
      vertex   -1.744743e+01 2.000000e+01 -3.820454e+01
    endloop
  endfacet
  facet normal 3.494642e-01 0.000000e+00 9.369497e-01
    outer loop
      vertex   -1.183277e+01 0.000000e+00 -4.029870e+01
      vertex   -1.744743e+01 2.000000e+01 -3.820454e+01
      vertex   -1.744743e+01 0.000000e+00 -3.820454e+01
    endloop
  endfacet
  facet normal 4.792490e-01 -0.000000e+00 8.776790e-01
    outer loop
      vertex   -1.744743e+01 0.000000e+00 -3.820454e+01
      vertex   -1.744743e+01 2.000000e+01 -3.820454e+01
      vertex   -2.270691e+01 2.000000e+01 -3.533265e+01
    endloop
  endfacet
  facet normal 4.792490e-01 0.000000e+00 8.776790e-01
    outer loop
      vertex   -1.744743e+01 0.000000e+00 -3.820454e+01
      vertex   -2.270691e+01 2.000000e+01 -3.533265e+01
      vertex   -2.270691e+01 0.000000e+00 -3.533265e+01
    endloop
  endfacet
  facet normal 5.992777e-01 -0.000000e+00 8.005412e-01
    outer loop
      vertex   -2.270691e+01 0.000000e+00 -3.533265e+01
      vertex   -2.270691e+01 2.000000e+01 -3.533265e+01
      vertex   -2.750415e+01 2.000000e+01 -3.174148e+01
    endloop
  endfacet
  facet normal 5.992777e-01 0.000000e+00 8.005412e-01
    outer loop
      vertex   -2.270691e+01 0.000000e+00 -3.533265e+01
      vertex   -2.750415e+01 2.000000e+01 -3.174148e+01
      vertex   -2.750415e+01 0.000000e+00 -3.174148e+01
    endloop
  endfacet
  facet normal 7.071068e-01 -0.000000e+00 7.071068e-01
    outer loop
      vertex   -2.750415e+01 0.000000e+00 -3.174148e+01
      vertex   -2.750415e+01 2.000000e+01 -3.174148e+01
      vertex   -3.174148e+01 2.000000e+01 -2.750415e+01
    endloop
  endfacet
  facet normal 7.071068e-01 0.000000e+00 7.071068e-01
    outer loop
      vertex   -2.750415e+01 0.000000e+00 -3.174148e+01
      vertex   -3.174148e+01 2.000000e+01 -2.750415e+01
      vertex   -3.174148e+01 0.000000e+00 -2.750415e+01
    endloop
  endfacet
  facet normal 8.005412e-01 -0.000000e+00 5.992777e-01
    outer loop
      vertex   -3.174148e+01 0.000000e+00 -2.750415e+01
      vertex   -3.174148e+01 2.000000e+01 -2.750415e+01
      vertex   -3.533265e+01 2.000000e+01 -2.270691e+01
    endloop
  endfacet
  facet normal 8.005412e-01 0.000000e+00 5.992777e-01
    outer loop
      vertex   -3.174148e+01 0.000000e+00 -2.750415e+01
      vertex   -3.533265e+01 2.000000e+01 -2.270691e+01
      vertex   -3.533265e+01 0.000000e+00 -2.270691e+01
    endloop
  endfacet
  facet normal 8.776790e-01 -0.000000e+00 4.792490e-01
    outer loop
      vertex   -3.533265e+01 0.000000e+00 -2.270691e+01
      vertex   -3.533265e+01 2.000000e+01 -2.270691e+01
      vertex   -3.820454e+01 2.000000e+01 -1.744743e+01
    endloop
  endfacet
  facet normal 8.776790e-01 0.000000e+00 4.792490e-01
    outer loop
      vertex   -3.533265e+01 0.000000e+00 -2.270691e+01
      vertex   -3.820454e+01 2.000000e+01 -1.744743e+01
      vertex   -3.820454e+01 0.000000e+00 -1.744743e+01
    endloop
  endfacet
  facet normal 9.369497e-01 -0.000000e+00 3.494642e-01
    outer loop
      vertex   -3.820454e+01 0.000000e+00 -1.744743e+01
      vertex   -3.820454e+01 2.000000e+01 -1.744743e+01
      vertex   -4.029870e+01 2.000000e+01 -1.183277e+01
    endloop
  endfacet
  facet normal 9.369497e-01 0.000000e+00 3.494642e-01
    outer loop
      vertex   -3.820454e+01 0.000000e+00 -1.744743e+01
      vertex   -4.029870e+01 2.000000e+01 -1.183277e+01
      vertex   -4.029870e+01 0.000000e+00 -1.183277e+01
    endloop
  endfacet
  facet normal 9.771469e-01 -0.000000e+00 2.125653e-01
    outer loop
      vertex   -4.029870e+01 0.000000e+00 -1.183277e+01
      vertex   -4.029870e+01 2.000000e+01 -1.183277e+01
      vertex   -4.157250e+01 2.000000e+01 -5.977223e+00
    endloop
  endfacet
  facet normal -9.975641e-01 -0.000000e+00 -6.975647e-02
    outer loop
      vertex   -4.456206e+01 2.000000e+01 -6.262790e+00
      vertex   -4.456206e+01 0.000000e+00 -6.262790e+00
      vertex   -4.500000e+01 2.000000e+01 5.510911e-15
    endloop
  endfacet
  facet normal -9.975641e-01 -0.000000e+00 -6.975647e-02
    outer loop
      vertex   -4.500000e+01 2.000000e+01 5.510911e-15
      vertex   -4.456206e+01 0.000000e+00 -6.262790e+00
      vertex   -4.500000e+01 0.000000e+00 5.510911e-15
    endloop
  endfacet
  facet normal -9.975641e-01 0.000000e+00 6.975647e-02
    outer loop
      vertex   -4.500000e+01 2.000000e+01 5.510911e-15
      vertex   -4.500000e+01 0.000000e+00 5.510911e-15
      vertex   -4.456206e+01 2.000000e+01 6.262790e+00
    endloop
  endfacet
  facet normal -9.975641e-01 0.000000e+00 6.975647e-02
    outer loop
      vertex   -4.456206e+01 2.000000e+01 6.262790e+00
      vertex   -4.500000e+01 0.000000e+00 5.510911e-15
      vertex   -4.456206e+01 0.000000e+00 6.262790e+00
    endloop
  endfacet
  facet normal -9.781476e-01 0.000000e+00 2.079117e-01
    outer loop
      vertex   -4.456206e+01 2.000000e+01 6.262790e+00
      vertex   -4.456206e+01 0.000000e+00 6.262790e+00
      vertex   -4.325678e+01 2.000000e+01 1.240368e+01
    endloop
  endfacet
  facet normal -9.781476e-01 0.000000e+00 2.079117e-01
    outer loop
      vertex   -4.325678e+01 2.000000e+01 1.240368e+01
      vertex   -4.456206e+01 0.000000e+00 6.262790e+00
      vertex   -4.325678e+01 0.000000e+00 1.240368e+01
    endloop
  endfacet
  facet normal -9.396926e-01 0.000000e+00 3.420201e-01
    outer loop
      vertex   -4.325678e+01 2.000000e+01 1.240368e+01
      vertex   -4.325678e+01 0.000000e+00 1.240368e+01
      vertex   -4.110955e+01 2.000000e+01 1.830315e+01
    endloop
  endfacet
  facet normal -9.396926e-01 0.000000e+00 3.420201e-01
    outer loop
      vertex   -4.110955e+01 2.000000e+01 1.830315e+01
      vertex   -4.325678e+01 0.000000e+00 1.240368e+01
      vertex   -4.110955e+01 0.000000e+00 1.830315e+01
    endloop
  endfacet
  facet normal -8.829476e-01 0.000000e+00 4.694716e-01
    outer loop
      vertex   -4.110955e+01 2.000000e+01 1.830315e+01
      vertex   -4.110955e+01 0.000000e+00 1.830315e+01
      vertex   -3.816216e+01 2.000000e+01 2.384637e+01
    endloop
  endfacet
  facet normal -8.829476e-01 0.000000e+00 4.694716e-01
    outer loop
      vertex   -3.816216e+01 2.000000e+01 2.384637e+01
      vertex   -4.110955e+01 0.000000e+00 1.830315e+01
      vertex   -3.816216e+01 0.000000e+00 2.384637e+01
    endloop
  endfacet
  facet normal -8.090170e-01 0.000000e+00 5.877853e-01
    outer loop
      vertex   -3.816216e+01 2.000000e+01 2.384637e+01
      vertex   -3.816216e+01 0.000000e+00 2.384637e+01
      vertex   -3.447200e+01 2.000000e+01 2.892544e+01
    endloop
  endfacet
  facet normal -8.090170e-01 0.000000e+00 5.877853e-01
    outer loop
      vertex   -3.447200e+01 2.000000e+01 2.892544e+01
      vertex   -3.816216e+01 0.000000e+00 2.384637e+01
      vertex   -3.447200e+01 0.000000e+00 2.892544e+01
    endloop
  endfacet
  facet normal -7.193398e-01 0.000000e+00 6.946584e-01
    outer loop
      vertex   -3.447200e+01 2.000000e+01 2.892544e+01
      vertex   -3.447200e+01 0.000000e+00 2.892544e+01
      vertex   -3.011088e+01 2.000000e+01 3.344152e+01
    endloop
  endfacet
  facet normal -7.193398e-01 0.000000e+00 6.946584e-01
    outer loop
      vertex   -3.011088e+01 2.000000e+01 3.344152e+01
      vertex   -3.447200e+01 0.000000e+00 2.892544e+01
      vertex   -3.011088e+01 0.000000e+00 3.344152e+01
    endloop
  endfacet
  facet normal -6.156615e-01 0.000000e+00 7.880108e-01
    outer loop
      vertex   -3.011088e+01 2.000000e+01 3.344152e+01
      vertex   -3.011088e+01 0.000000e+00 3.344152e+01
      vertex   -2.516368e+01 2.000000e+01 3.730669e+01
    endloop
  endfacet
  facet normal -6.156615e-01 0.000000e+00 7.880108e-01
    outer loop
      vertex   -2.516368e+01 2.000000e+01 3.730669e+01
      vertex   -3.011088e+01 0.000000e+00 3.344152e+01
      vertex   -2.516368e+01 0.000000e+00 3.730669e+01
    endloop
  endfacet
  facet normal -5.000000e-01 0.000000e+00 8.660254e-01
    outer loop
      vertex   -2.516368e+01 2.000000e+01 3.730669e+01
      vertex   -2.516368e+01 0.000000e+00 3.730669e+01
      vertex   -1.972670e+01 2.000000e+01 4.044573e+01
    endloop
  endfacet
  facet normal -5.000000e-01 0.000000e+00 8.660254e-01
    outer loop
      vertex   -1.972670e+01 2.000000e+01 4.044573e+01
      vertex   -2.516368e+01 0.000000e+00 3.730669e+01
      vertex   -1.972670e+01 0.000000e+00 4.044573e+01
    endloop
  endfacet
  facet normal -3.746066e-01 0.000000e+00 9.271839e-01
    outer loop
      vertex   -1.972670e+01 2.000000e+01 4.044573e+01
      vertex   -1.972670e+01 0.000000e+00 4.044573e+01
      vertex   -1.390576e+01 2.000000e+01 4.279754e+01
    endloop
  endfacet
  facet normal -3.746066e-01 0.000000e+00 9.271839e-01
    outer loop
      vertex   -1.390576e+01 2.000000e+01 4.279754e+01
      vertex   -1.972670e+01 0.000000e+00 4.044573e+01
      vertex   -1.390576e+01 0.000000e+00 4.279754e+01
    endloop
  endfacet
  facet normal -2.419219e-01 0.000000e+00 9.702957e-01
    outer loop
      vertex   -1.390576e+01 2.000000e+01 4.279754e+01
      vertex   -1.390576e+01 0.000000e+00 4.279754e+01
      vertex   -7.814168e+00 2.000000e+01 4.431635e+01
    endloop
  endfacet
  facet normal -2.419219e-01 0.000000e+00 9.702957e-01
    outer loop
      vertex   -7.814168e+00 2.000000e+01 4.431635e+01
      vertex   -1.390576e+01 0.000000e+00 4.279754e+01
      vertex   -7.814168e+00 0.000000e+00 4.431635e+01
    endloop
  endfacet
  facet normal -1.045285e-01 0.000000e+00 9.945219e-01
    outer loop
      vertex   -7.814168e+00 2.000000e+01 4.431635e+01
      vertex   -7.814168e+00 0.000000e+00 4.431635e+01
      vertex   -1.570477e+00 2.000000e+01 4.497259e+01
    endloop
  endfacet
  facet normal -1.045285e-01 0.000000e+00 9.945219e-01
    outer loop
      vertex   -1.570477e+00 2.000000e+01 4.497259e+01
      vertex   -7.814168e+00 0.000000e+00 4.431635e+01
      vertex   -1.570477e+00 0.000000e+00 4.497259e+01
    endloop
  endfacet
  facet normal 3.489950e-02 0.000000e+00 9.993908e-01
    outer loop
      vertex   -1.570477e+00 2.000000e+01 4.497259e+01
      vertex   -1.570477e+00 0.000000e+00 4.497259e+01
      vertex   4.703781e+00 2.000000e+01 4.475349e+01
    endloop
  endfacet
  facet normal 3.489950e-02 0.000000e+00 9.993908e-01
    outer loop
      vertex   4.703781e+00 2.000000e+01 4.475349e+01
      vertex   -1.570477e+00 0.000000e+00 4.497259e+01
      vertex   4.703781e+00 0.000000e+00 4.475349e+01
    endloop
  endfacet
  facet normal 1.736482e-01 0.000000e+00 9.848078e-01
    outer loop
      vertex   4.703781e+00 2.000000e+01 4.475349e+01
      vertex   4.703781e+00 0.000000e+00 4.475349e+01
      vertex   1.088649e+01 2.000000e+01 4.366331e+01
    endloop
  endfacet
  facet normal 1.736482e-01 0.000000e+00 9.848078e-01
    outer loop
      vertex   1.088649e+01 2.000000e+01 4.366331e+01
      vertex   4.703781e+00 0.000000e+00 4.475349e+01
      vertex   1.088649e+01 0.000000e+00 4.366331e+01
    endloop
  endfacet
  facet normal 3.090170e-01 0.000000e+00 9.510565e-01
    outer loop
      vertex   1.088649e+01 2.000000e+01 4.366331e+01
      vertex   1.088649e+01 0.000000e+00 4.366331e+01
      vertex   1.685730e+01 2.000000e+01 4.172327e+01
    endloop
  endfacet
  facet normal 3.090170e-01 0.000000e+00 9.510565e-01
    outer loop
      vertex   1.685730e+01 2.000000e+01 4.172327e+01
      vertex   1.088649e+01 0.000000e+00 4.366331e+01
      vertex   1.685730e+01 0.000000e+00 4.172327e+01
    endloop
  endfacet
  facet normal 4.383711e-01 0.000000e+00 8.987940e-01
    outer loop
      vertex   1.685730e+01 2.000000e+01 4.172327e+01
      vertex   1.685730e+01 0.000000e+00 4.172327e+01
      vertex   2.250000e+01 2.000000e+01 3.897114e+01
    endloop
  endfacet
  facet normal 4.383711e-01 0.000000e+00 8.987940e-01
    outer loop
      vertex   2.250000e+01 2.000000e+01 3.897114e+01
      vertex   1.685730e+01 0.000000e+00 4.172327e+01
      vertex   2.250000e+01 0.000000e+00 3.897114e+01
    endloop
  endfacet
  facet normal 5.591929e-01 0.000000e+00 8.290376e-01
    outer loop
      vertex   2.250000e+01 2.000000e+01 3.897114e+01
      vertex   2.250000e+01 0.000000e+00 3.897114e+01
      vertex   2.770477e+01 2.000000e+01 3.546048e+01
    endloop
  endfacet
  facet normal 5.591929e-01 0.000000e+00 8.290376e-01
    outer loop
      vertex   2.770477e+01 2.000000e+01 3.546048e+01
      vertex   2.250000e+01 0.000000e+00 3.897114e+01
      vertex   2.770477e+01 0.000000e+00 3.546048e+01
    endloop
  endfacet
  facet normal 6.691306e-01 0.000000e+00 7.431448e-01
    outer loop
      vertex   2.770477e+01 2.000000e+01 3.546048e+01
      vertex   2.770477e+01 0.000000e+00 3.546048e+01
      vertex   3.237029e+01 2.000000e+01 3.125963e+01
    endloop
  endfacet
  facet normal 6.691306e-01 0.000000e+00 7.431448e-01
    outer loop
      vertex   3.237029e+01 2.000000e+01 3.125963e+01
      vertex   2.770477e+01 0.000000e+00 3.546048e+01
      vertex   3.237029e+01 0.000000e+00 3.125963e+01
    endloop
  endfacet
  facet normal 7.660444e-01 0.000000e+00 6.427876e-01
    outer loop
      vertex   3.237029e+01 2.000000e+01 3.125963e+01
      vertex   3.237029e+01 0.000000e+00 3.125963e+01
      vertex   3.640576e+01 2.000000e+01 2.645034e+01
    endloop
  endfacet
  facet normal 7.660444e-01 0.000000e+00 6.427876e-01
    outer loop
      vertex   3.640576e+01 2.000000e+01 2.645034e+01
      vertex   3.237029e+01 0.000000e+00 3.125963e+01
      vertex   3.640576e+01 0.000000e+00 2.645034e+01
    endloop
  endfacet
  facet normal 8.480481e-01 0.000000e+00 5.299193e-01
    outer loop
      vertex   3.640576e+01 2.000000e+01 2.645034e+01
      vertex   3.640576e+01 0.000000e+00 2.645034e+01
      vertex   3.973264e+01 2.000000e+01 2.112622e+01
    endloop
  endfacet
  facet normal 8.480481e-01 0.000000e+00 5.299193e-01
    outer loop
      vertex   3.973264e+01 2.000000e+01 2.112622e+01
      vertex   3.640576e+01 0.000000e+00 2.645034e+01
      vertex   3.973264e+01 0.000000e+00 2.112622e+01
    endloop
  endfacet
  facet normal 9.135455e-01 0.000000e+00 4.067366e-01
    outer loop
      vertex   3.973264e+01 2.000000e+01 2.112622e+01
      vertex   3.973264e+01 0.000000e+00 2.112622e+01
      vertex   4.228617e+01 2.000000e+01 1.539091e+01
    endloop
  endfacet
  facet normal 9.135455e-01 0.000000e+00 4.067366e-01
    outer loop
      vertex   4.228617e+01 2.000000e+01 1.539091e+01
      vertex   3.973264e+01 0.000000e+00 2.112622e+01
      vertex   4.228617e+01 0.000000e+00 1.539091e+01
    endloop
  endfacet
  facet normal 9.612617e-01 0.000000e+00 2.756374e-01
    outer loop
      vertex   4.228617e+01 2.000000e+01 1.539091e+01
      vertex   4.228617e+01 0.000000e+00 1.539091e+01
      vertex   4.401664e+01 2.000000e+01 9.356026e+00
    endloop
  endfacet
  facet normal 9.612617e-01 0.000000e+00 2.756374e-01
    outer loop
      vertex   4.401664e+01 2.000000e+01 9.356026e+00
      vertex   4.228617e+01 0.000000e+00 1.539091e+01
      vertex   4.401664e+01 0.000000e+00 9.356026e+00
    endloop
  endfacet
  facet normal 9.902681e-01 0.000000e+00 1.391731e-01
    outer loop
      vertex   4.401664e+01 2.000000e+01 9.356026e+00
      vertex   4.401664e+01 0.000000e+00 9.356026e+00
      vertex   4.489038e+01 2.000000e+01 3.139041e+00
    endloop
  endfacet
  facet normal 9.902681e-01 0.000000e+00 1.391731e-01
    outer loop
      vertex   4.489038e+01 2.000000e+01 3.139041e+00
      vertex   4.401664e+01 0.000000e+00 9.356026e+00
      vertex   4.489038e+01 0.000000e+00 3.139041e+00
    endloop
  endfacet
  facet normal 1.000000e+00 0.000000e+00 0.000000e+00
    outer loop
      vertex   4.489038e+01 2.000000e+01 3.139041e+00
      vertex   4.489038e+01 0.000000e+00 3.139041e+00
      vertex   4.489038e+01 2.000000e+01 -3.139041e+00
    endloop
  endfacet
  facet normal 1.000000e+00 0.000000e+00 0.000000e+00
    outer loop
      vertex   4.489038e+01 2.000000e+01 -3.139041e+00
      vertex   4.489038e+01 0.000000e+00 3.139041e+00
      vertex   4.489038e+01 0.000000e+00 -3.139041e+00
    endloop
  endfacet
  facet normal 9.902681e-01 0.000000e+00 -1.391731e-01
    outer loop
      vertex   4.489038e+01 2.000000e+01 -3.139041e+00
      vertex   4.489038e+01 0.000000e+00 -3.139041e+00
      vertex   4.401664e+01 2.000000e+01 -9.356026e+00
    endloop
  endfacet
  facet normal 9.902681e-01 0.000000e+00 -1.391731e-01
    outer loop
      vertex   4.401664e+01 2.000000e+01 -9.356026e+00
      vertex   4.489038e+01 0.000000e+00 -3.139041e+00
      vertex   4.401664e+01 0.000000e+00 -9.356026e+00
    endloop
  endfacet
  facet normal 9.612617e-01 0.000000e+00 -2.756374e-01
    outer loop
      vertex   4.401664e+01 2.000000e+01 -9.356026e+00
      vertex   4.401664e+01 0.000000e+00 -9.356026e+00
      vertex   4.228617e+01 2.000000e+01 -1.539091e+01
    endloop
  endfacet
  facet normal 9.612617e-01 0.000000e+00 -2.756374e-01
    outer loop
      vertex   4.228617e+01 2.000000e+01 -1.539091e+01
      vertex   4.401664e+01 0.000000e+00 -9.356026e+00
      vertex   4.228617e+01 0.000000e+00 -1.539091e+01
    endloop
  endfacet
  facet normal 9.135455e-01 0.000000e+00 -4.067366e-01
    outer loop
      vertex   4.228617e+01 2.000000e+01 -1.539091e+01
      vertex   4.228617e+01 0.000000e+00 -1.539091e+01
      vertex   3.973264e+01 2.000000e+01 -2.112622e+01
    endloop
  endfacet
  facet normal 9.135455e-01 0.000000e+00 -4.067366e-01
    outer loop
      vertex   3.973264e+01 2.000000e+01 -2.112622e+01
      vertex   4.228617e+01 0.000000e+00 -1.539091e+01
      vertex   3.973264e+01 0.000000e+00 -2.112622e+01
    endloop
  endfacet
  facet normal 8.480481e-01 0.000000e+00 -5.299193e-01
    outer loop
      vertex   3.973264e+01 2.000000e+01 -2.112622e+01
      vertex   3.973264e+01 0.000000e+00 -2.112622e+01
      vertex   3.640576e+01 2.000000e+01 -2.645034e+01
    endloop
  endfacet
  facet normal 8.480481e-01 0.000000e+00 -5.299193e-01
    outer loop
      vertex   3.640576e+01 2.000000e+01 -2.645034e+01
      vertex   3.973264e+01 0.000000e+00 -2.112622e+01
      vertex   3.640576e+01 0.000000e+00 -2.645034e+01
    endloop
  endfacet
  facet normal 7.660444e-01 0.000000e+00 -6.427876e-01
    outer loop
      vertex   3.640576e+01 2.000000e+01 -2.645034e+01
      vertex   3.640576e+01 0.000000e+00 -2.645034e+01
      vertex   3.237029e+01 2.000000e+01 -3.125963e+01
    endloop
  endfacet
  facet normal 7.660444e-01 0.000000e+00 -6.427876e-01
    outer loop
      vertex   3.237029e+01 2.000000e+01 -3.125963e+01
      vertex   3.640576e+01 0.000000e+00 -2.645034e+01
      vertex   3.237029e+01 0.000000e+00 -3.125963e+01
    endloop
  endfacet
  facet normal 6.691306e-01 0.000000e+00 -7.431448e-01
    outer loop
      vertex   3.237029e+01 2.000000e+01 -3.125963e+01
      vertex   3.237029e+01 0.000000e+00 -3.125963e+01
      vertex   2.770477e+01 2.000000e+01 -3.546048e+01
    endloop
  endfacet
  facet normal 6.691306e-01 0.000000e+00 -7.431448e-01
    outer loop
      vertex   2.770477e+01 2.000000e+01 -3.546048e+01
      vertex   3.237029e+01 0.000000e+00 -3.125963e+01
      vertex   2.770477e+01 0.000000e+00 -3.546048e+01
    endloop
  endfacet
  facet normal 5.591929e-01 0.000000e+00 -8.290376e-01
    outer loop
      vertex   2.770477e+01 2.000000e+01 -3.546048e+01
      vertex   2.770477e+01 0.000000e+00 -3.546048e+01
      vertex   2.250000e+01 2.000000e+01 -3.897114e+01
    endloop
  endfacet
  facet normal 5.591929e-01 0.000000e+00 -8.290376e-01
    outer loop
      vertex   2.250000e+01 2.000000e+01 -3.897114e+01
      vertex   2.770477e+01 0.000000e+00 -3.546048e+01
      vertex   2.250000e+01 0.000000e+00 -3.897114e+01
    endloop
  endfacet
  facet normal 4.383711e-01 0.000000e+00 -8.987940e-01
    outer loop
      vertex   2.250000e+01 2.000000e+01 -3.897114e+01
      vertex   2.250000e+01 0.000000e+00 -3.897114e+01
      vertex   1.685730e+01 2.000000e+01 -4.172327e+01
    endloop
  endfacet
  facet normal 4.383711e-01 0.000000e+00 -8.987940e-01
    outer loop
      vertex   1.685730e+01 2.000000e+01 -4.172327e+01
      vertex   2.250000e+01 0.000000e+00 -3.897114e+01
      vertex   1.685730e+01 0.000000e+00 -4.172327e+01
    endloop
  endfacet
  facet normal 3.090170e-01 0.000000e+00 -9.510565e-01
    outer loop
      vertex   1.685730e+01 2.000000e+01 -4.172327e+01
      vertex   1.685730e+01 0.000000e+00 -4.172327e+01
      vertex   1.088649e+01 2.000000e+01 -4.366331e+01
    endloop
  endfacet
  facet normal 3.090170e-01 0.000000e+00 -9.510565e-01
    outer loop
      vertex   1.088649e+01 2.000000e+01 -4.366331e+01
      vertex   1.685730e+01 0.000000e+00 -4.172327e+01
      vertex   1.088649e+01 0.000000e+00 -4.366331e+01
    endloop
  endfacet
  facet normal 1.736482e-01 0.000000e+00 -9.848078e-01
    outer loop
      vertex   1.088649e+01 2.000000e+01 -4.366331e+01
      vertex   1.088649e+01 0.000000e+00 -4.366331e+01
      vertex   4.703781e+00 2.000000e+01 -4.475349e+01
    endloop
  endfacet
  facet normal 1.736482e-01 0.000000e+00 -9.848078e-01
    outer loop
      vertex   4.703781e+00 2.000000e+01 -4.475349e+01
      vertex   1.088649e+01 0.000000e+00 -4.366331e+01
      vertex   4.703781e+00 0.000000e+00 -4.475349e+01
    endloop
  endfacet
  facet normal 3.489950e-02 0.000000e+00 -9.993908e-01
    outer loop
      vertex   4.703781e+00 2.000000e+01 -4.475349e+01
      vertex   4.703781e+00 0.000000e+00 -4.475349e+01
      vertex   -1.570477e+00 2.000000e+01 -4.497259e+01
    endloop
  endfacet
  facet normal 3.489950e-02 0.000000e+00 -9.993908e-01
    outer loop
      vertex   -1.570477e+00 2.000000e+01 -4.497259e+01
      vertex   4.703781e+00 0.000000e+00 -4.475349e+01
      vertex   -1.570477e+00 0.000000e+00 -4.497259e+01
    endloop
  endfacet
  facet normal -1.045285e-01 -0.000000e+00 -9.945219e-01
    outer loop
      vertex   -1.570477e+00 2.000000e+01 -4.497259e+01
      vertex   -1.570477e+00 0.000000e+00 -4.497259e+01
      vertex   -7.814168e+00 2.000000e+01 -4.431635e+01
    endloop
  endfacet
  facet normal -1.045285e-01 -0.000000e+00 -9.945219e-01
    outer loop
      vertex   -7.814168e+00 2.000000e+01 -4.431635e+01
      vertex   -1.570477e+00 0.000000e+00 -4.497259e+01
      vertex   -7.814168e+00 0.000000e+00 -4.431635e+01
    endloop
  endfacet
  facet normal -2.419219e-01 -0.000000e+00 -9.702957e-01
    outer loop
      vertex   -7.814168e+00 2.000000e+01 -4.431635e+01
      vertex   -7.814168e+00 0.000000e+00 -4.431635e+01
      vertex   -1.390576e+01 2.000000e+01 -4.279754e+01
    endloop
  endfacet
  facet normal -2.419219e-01 -0.000000e+00 -9.702957e-01
    outer loop
      vertex   -1.390576e+01 2.000000e+01 -4.279754e+01
      vertex   -7.814168e+00 0.000000e+00 -4.431635e+01
      vertex   -1.390576e+01 0.000000e+00 -4.279754e+01
    endloop
  endfacet
  facet normal -3.746066e-01 -0.000000e+00 -9.271839e-01
    outer loop
      vertex   -1.390576e+01 2.000000e+01 -4.279754e+01
      vertex   -1.390576e+01 0.000000e+00 -4.279754e+01
      vertex   -1.972670e+01 2.000000e+01 -4.044573e+01
    endloop
  endfacet
  facet normal -3.746066e-01 -0.000000e+00 -9.271839e-01
    outer loop
      vertex   -1.972670e+01 2.000000e+01 -4.044573e+01
      vertex   -1.390576e+01 0.000000e+00 -4.279754e+01
      vertex   -1.972670e+01 0.000000e+00 -4.044573e+01
    endloop
  endfacet
  facet normal -5.000000e-01 -0.000000e+00 -8.660254e-01
    outer loop
      vertex   -1.972670e+01 2.000000e+01 -4.044573e+01
      vertex   -1.972670e+01 0.000000e+00 -4.044573e+01
      vertex   -2.516368e+01 2.000000e+01 -3.730669e+01
    endloop
  endfacet
  facet normal -5.000000e-01 -0.000000e+00 -8.660254e-01
    outer loop
      vertex   -2.516368e+01 2.000000e+01 -3.730669e+01
      vertex   -1.972670e+01 0.000000e+00 -4.044573e+01
      vertex   -2.516368e+01 0.000000e+00 -3.730669e+01
    endloop
  endfacet
  facet normal -6.156615e-01 -0.000000e+00 -7.880108e-01
    outer loop
      vertex   -2.516368e+01 2.000000e+01 -3.730669e+01
      vertex   -2.516368e+01 0.000000e+00 -3.730669e+01
      vertex   -3.011088e+01 2.000000e+01 -3.344152e+01
    endloop
  endfacet
  facet normal -6.156615e-01 -0.000000e+00 -7.880108e-01
    outer loop
      vertex   -3.011088e+01 2.000000e+01 -3.344152e+01
      vertex   -2.516368e+01 0.000000e+00 -3.730669e+01
      vertex   -3.011088e+01 0.000000e+00 -3.344152e+01
    endloop
  endfacet
  facet normal -7.193398e-01 -0.000000e+00 -6.946584e-01
    outer loop
      vertex   -3.011088e+01 2.000000e+01 -3.344152e+01
      vertex   -3.011088e+01 0.000000e+00 -3.344152e+01
      vertex   -3.447200e+01 2.000000e+01 -2.892544e+01
    endloop
  endfacet
  facet normal -7.193398e-01 -0.000000e+00 -6.946584e-01
    outer loop
      vertex   -3.447200e+01 2.000000e+01 -2.892544e+01
      vertex   -3.011088e+01 0.000000e+00 -3.344152e+01
      vertex   -3.447200e+01 0.000000e+00 -2.892544e+01
    endloop
  endfacet
  facet normal -8.090170e-01 -0.000000e+00 -5.877853e-01
    outer loop
      vertex   -3.447200e+01 2.000000e+01 -2.892544e+01
      vertex   -3.447200e+01 0.000000e+00 -2.892544e+01
      vertex   -3.816216e+01 2.000000e+01 -2.384637e+01
    endloop
  endfacet
  facet normal -8.090170e-01 -0.000000e+00 -5.877853e-01
    outer loop
      vertex   -3.816216e+01 2.000000e+01 -2.384637e+01
      vertex   -3.447200e+01 0.000000e+00 -2.892544e+01
      vertex   -3.816216e+01 0.000000e+00 -2.384637e+01
    endloop
  endfacet
  facet normal -8.829476e-01 -0.000000e+00 -4.694716e-01
    outer loop
      vertex   -3.816216e+01 2.000000e+01 -2.384637e+01
      vertex   -3.816216e+01 0.000000e+00 -2.384637e+01
      vertex   -4.110955e+01 2.000000e+01 -1.830315e+01
    endloop
  endfacet
  facet normal -8.829476e-01 -0.000000e+00 -4.694716e-01
    outer loop
      vertex   -4.110955e+01 2.000000e+01 -1.830315e+01
      vertex   -3.816216e+01 0.000000e+00 -2.384637e+01
      vertex   -4.110955e+01 0.000000e+00 -1.830315e+01
    endloop
  endfacet
  facet normal -9.396926e-01 -0.000000e+00 -3.420201e-01
    outer loop
      vertex   -4.110955e+01 2.000000e+01 -1.830315e+01
      vertex   -4.110955e+01 0.000000e+00 -1.830315e+01
      vertex   -4.325678e+01 2.000000e+01 -1.240368e+01
    endloop
  endfacet
  facet normal -9.396926e-01 -0.000000e+00 -3.420201e-01
    outer loop
      vertex   -4.325678e+01 2.000000e+01 -1.240368e+01
      vertex   -4.110955e+01 0.000000e+00 -1.830315e+01
      vertex   -4.325678e+01 0.000000e+00 -1.240368e+01
    endloop
  endfacet
  facet normal -9.781476e-01 -0.000000e+00 -2.079117e-01
    outer loop
      vertex   -4.325678e+01 2.000000e+01 -1.240368e+01
      vertex   -4.325678e+01 0.000000e+00 -1.240368e+01
      vertex   -4.456206e+01 2.000000e+01 -6.262790e+00
    endloop
  endfacet
  facet normal -9.781476e-01 -0.000000e+00 -2.079117e-01
    outer loop
      vertex   -4.456206e+01 2.000000e+01 -6.262790e+00
      vertex   -4.325678e+01 0.000000e+00 -1.240368e+01
      vertex   -4.456206e+01 0.000000e+00 -6.262790e+00
    endloop
  endfacet
  facet normal 0.000000e+00 1.000000e+00 0.000000e+00
    outer loop
      vertex   -4.157250e+01 2.000000e+01 -5.977223e+00
      vertex   -4.456206e+01 2.000000e+01 -6.262790e+00
      vertex   -4.200000e+01 2.000000e+01 5.143517e-15
    endloop
  endfacet
  facet normal 0.000000e+00 1.000000e+00 0.000000e+00
    outer loop
      vertex   -4.200000e+01 2.000000e+01 5.143517e-15
      vertex   -4.456206e+01 2.000000e+01 -6.262790e+00
      vertex   -4.500000e+01 2.000000e+01 5.510911e-15
    endloop
  endfacet
  facet normal 0.000000e+00 1.000000e+00 0.000000e+00
    outer loop
      vertex   -4.200000e+01 2.000000e+01 5.143517e-15
      vertex   -4.500000e+01 2.000000e+01 5.510911e-15
      vertex   -4.456206e+01 2.000000e+01 6.262790e+00
    endloop
  endfacet
  facet normal -0.000000e+00 1.000000e+00 0.000000e+00
    outer loop
      vertex   -4.456206e+01 2.000000e+01 -6.262790e+00
      vertex   -4.157250e+01 2.000000e+01 -5.977223e+00
      vertex   -4.325678e+01 2.000000e+01 -1.240368e+01
    endloop
  endfacet
  facet normal 0.000000e+00 1.000000e+00 0.000000e+00
    outer loop
      vertex   -4.325678e+01 2.000000e+01 -1.240368e+01
      vertex   -4.157250e+01 2.000000e+01 -5.977223e+00
      vertex   -4.029870e+01 2.000000e+01 -1.183277e+01
    endloop
  endfacet
  facet normal -0.000000e+00 1.000000e+00 0.000000e+00
    outer loop
      vertex   -4.325678e+01 2.000000e+01 -1.240368e+01
      vertex   -4.029870e+01 2.000000e+01 -1.183277e+01
      vertex   -4.110955e+01 2.000000e+01 -1.830315e+01
    endloop
  endfacet
  facet normal 0.000000e+00 1.000000e+00 0.000000e+00
    outer loop
      vertex   -4.110955e+01 2.000000e+01 -1.830315e+01
      vertex   -4.029870e+01 2.000000e+01 -1.183277e+01
      vertex   -3.820454e+01 2.000000e+01 -1.744743e+01
    endloop
  endfacet
  facet normal -0.000000e+00 1.000000e+00 0.000000e+00
    outer loop
      vertex   -4.110955e+01 2.000000e+01 -1.830315e+01
      vertex   -3.820454e+01 2.000000e+01 -1.744743e+01
      vertex   -3.816216e+01 2.000000e+01 -2.384637e+01
    endloop
  endfacet
  facet normal 0.000000e+00 1.000000e+00 -0.000000e+00
    outer loop
      vertex   -3.816216e+01 2.000000e+01 -2.384637e+01
      vertex   -3.820454e+01 2.000000e+01 -1.744743e+01
      vertex   -3.533265e+01 2.000000e+01 -2.270691e+01
    endloop
  endfacet
  facet normal -0.000000e+00 1.000000e+00 0.000000e+00
    outer loop
      vertex   -3.816216e+01 2.000000e+01 -2.384637e+01
      vertex   -3.533265e+01 2.000000e+01 -2.270691e+01
      vertex   -3.447200e+01 2.000000e+01 -2.892544e+01
    endloop
  endfacet
  facet normal 0.000000e+00 1.000000e+00 -0.000000e+00
    outer loop
      vertex   -3.447200e+01 2.000000e+01 -2.892544e+01
      vertex   -3.533265e+01 2.000000e+01 -2.270691e+01
      vertex   -3.174148e+01 2.000000e+01 -2.750415e+01
    endloop
  endfacet
  facet normal -0.000000e+00 1.000000e+00 0.000000e+00
    outer loop
      vertex   -3.447200e+01 2.000000e+01 -2.892544e+01
      vertex   -3.174148e+01 2.000000e+01 -2.750415e+01
      vertex   -3.011088e+01 2.000000e+01 -3.344152e+01
    endloop
  endfacet
  facet normal 0.000000e+00 1.000000e+00 -0.000000e+00
    outer loop
      vertex   -3.011088e+01 2.000000e+01 -3.344152e+01
      vertex   -3.174148e+01 2.000000e+01 -2.750415e+01
      vertex   -2.750415e+01 2.000000e+01 -3.174148e+01
    endloop
  endfacet
  facet normal -0.000000e+00 1.000000e+00 0.000000e+00
    outer loop
      vertex   -3.011088e+01 2.000000e+01 -3.344152e+01
      vertex   -2.750415e+01 2.000000e+01 -3.174148e+01
      vertex   -2.516368e+01 2.000000e+01 -3.730669e+01
    endloop
  endfacet
  facet normal 0.000000e+00 1.000000e+00 -0.000000e+00
    outer loop
      vertex   -2.516368e+01 2.000000e+01 -3.730669e+01
      vertex   -2.750415e+01 2.000000e+01 -3.174148e+01
      vertex   -2.270691e+01 2.000000e+01 -3.533265e+01
    endloop
  endfacet
  facet normal -0.000000e+00 1.000000e+00 0.000000e+00
    outer loop
      vertex   -2.516368e+01 2.000000e+01 -3.730669e+01
      vertex   -2.270691e+01 2.000000e+01 -3.533265e+01
      vertex   -1.972670e+01 2.000000e+01 -4.044573e+01
    endloop
  endfacet
  facet normal 0.000000e+00 1.000000e+00 -0.000000e+00
    outer loop
      vertex   -1.972670e+01 2.000000e+01 -4.044573e+01
      vertex   -2.270691e+01 2.000000e+01 -3.533265e+01
      vertex   -1.744743e+01 2.000000e+01 -3.820454e+01
    endloop
  endfacet
  facet normal -0.000000e+00 1.000000e+00 0.000000e+00
    outer loop
      vertex   -1.972670e+01 2.000000e+01 -4.044573e+01
      vertex   -1.744743e+01 2.000000e+01 -3.820454e+01
      vertex   -1.390576e+01 2.000000e+01 -4.279754e+01
    endloop
  endfacet
  facet normal 0.000000e+00 1.000000e+00 -0.000000e+00
    outer loop
      vertex   -1.390576e+01 2.000000e+01 -4.279754e+01
      vertex   -1.744743e+01 2.000000e+01 -3.820454e+01
      vertex   -1.183277e+01 2.000000e+01 -4.029870e+01
    endloop
  endfacet
  facet normal -0.000000e+00 1.000000e+00 0.000000e+00
    outer loop
      vertex   -1.390576e+01 2.000000e+01 -4.279754e+01
      vertex   -1.183277e+01 2.000000e+01 -4.029870e+01
      vertex   -7.814168e+00 2.000000e+01 -4.431635e+01
    endloop
  endfacet
  facet normal 0.000000e+00 1.000000e+00 -0.000000e+00
    outer loop
      vertex   -7.814168e+00 2.000000e+01 -4.431635e+01
      vertex   -1.183277e+01 2.000000e+01 -4.029870e+01
      vertex   -5.977223e+00 2.000000e+01 -4.157250e+01
    endloop
  endfacet
  facet normal -0.000000e+00 1.000000e+00 0.000000e+00
    outer loop
      vertex   -7.814168e+00 2.000000e+01 -4.431635e+01
      vertex   -5.977223e+00 2.000000e+01 -4.157250e+01
      vertex   -1.570477e+00 2.000000e+01 -4.497259e+01
    endloop
  endfacet
  facet normal 0.000000e+00 1.000000e+00 -0.000000e+00
    outer loop
      vertex   -1.570477e+00 2.000000e+01 -4.497259e+01
      vertex   -5.977223e+00 2.000000e+01 -4.157250e+01
      vertex   2.571758e-15 2.000000e+01 -4.200000e+01
    endloop
  endfacet
  facet normal 0.000000e+00 1.000000e+00 0.000000e+00
    outer loop
      vertex   -1.570477e+00 2.000000e+01 -4.497259e+01
      vertex   2.571758e-15 2.000000e+01 -4.200000e+01
      vertex   4.703781e+00 2.000000e+01 -4.475349e+01
    endloop
  endfacet
  facet normal 0.000000e+00 1.000000e+00 -0.000000e+00
    outer loop
      vertex   4.703781e+00 2.000000e+01 -4.475349e+01
      vertex   2.571758e-15 2.000000e+01 -4.200000e+01
      vertex   5.977223e+00 2.000000e+01 -4.157250e+01
    endloop
  endfacet
  facet normal 0.000000e+00 1.000000e+00 0.000000e+00
    outer loop
      vertex   4.703781e+00 2.000000e+01 -4.475349e+01
      vertex   5.977223e+00 2.000000e+01 -4.157250e+01
      vertex   1.088649e+01 2.000000e+01 -4.366331e+01
    endloop
  endfacet
  facet normal 0.000000e+00 1.000000e+00 -0.000000e+00
    outer loop
      vertex   1.088649e+01 2.000000e+01 -4.366331e+01
      vertex   5.977223e+00 2.000000e+01 -4.157250e+01
      vertex   1.183277e+01 2.000000e+01 -4.029870e+01
    endloop
  endfacet
  facet normal 0.000000e+00 1.000000e+00 0.000000e+00
    outer loop
      vertex   1.088649e+01 2.000000e+01 -4.366331e+01
      vertex   1.183277e+01 2.000000e+01 -4.029870e+01
      vertex   1.685730e+01 2.000000e+01 -4.172327e+01
    endloop
  endfacet
  facet normal 0.000000e+00 1.000000e+00 -0.000000e+00
    outer loop
      vertex   1.685730e+01 2.000000e+01 -4.172327e+01
      vertex   1.183277e+01 2.000000e+01 -4.029870e+01
      vertex   1.744743e+01 2.000000e+01 -3.820454e+01
    endloop
  endfacet
  facet normal 0.000000e+00 1.000000e+00 0.000000e+00
    outer loop
      vertex   1.685730e+01 2.000000e+01 -4.172327e+01
      vertex   1.744743e+01 2.000000e+01 -3.820454e+01
      vertex   2.250000e+01 2.000000e+01 -3.897114e+01
    endloop
  endfacet
  facet normal 0.000000e+00 1.000000e+00 -0.000000e+00
    outer loop
      vertex   2.250000e+01 2.000000e+01 -3.897114e+01
      vertex   1.744743e+01 2.000000e+01 -3.820454e+01
      vertex   2.270691e+01 2.000000e+01 -3.533265e+01
    endloop
  endfacet
  facet normal 0.000000e+00 1.000000e+00 0.000000e+00
    outer loop
      vertex   2.250000e+01 2.000000e+01 -3.897114e+01
      vertex   2.270691e+01 2.000000e+01 -3.533265e+01
      vertex   2.770477e+01 2.000000e+01 -3.546048e+01
    endloop
  endfacet
  facet normal 0.000000e+00 1.000000e+00 0.000000e+00
    outer loop
      vertex   2.770477e+01 2.000000e+01 -3.546048e+01
      vertex   2.270691e+01 2.000000e+01 -3.533265e+01
      vertex   2.750415e+01 2.000000e+01 -3.174148e+01
    endloop
  endfacet
  facet normal 0.000000e+00 1.000000e+00 -0.000000e+00
    outer loop
      vertex   2.770477e+01 2.000000e+01 -3.546048e+01
      vertex   2.750415e+01 2.000000e+01 -3.174148e+01
      vertex   3.237029e+01 2.000000e+01 -3.125963e+01
    endloop
  endfacet
  facet normal 0.000000e+00 1.000000e+00 0.000000e+00
    outer loop
      vertex   3.237029e+01 2.000000e+01 -3.125963e+01
      vertex   2.750415e+01 2.000000e+01 -3.174148e+01
      vertex   3.174148e+01 2.000000e+01 -2.750415e+01
    endloop
  endfacet
  facet normal 0.000000e+00 1.000000e+00 -0.000000e+00
    outer loop
      vertex   3.237029e+01 2.000000e+01 -3.125963e+01
      vertex   3.174148e+01 2.000000e+01 -2.750415e+01
      vertex   3.640576e+01 2.000000e+01 -2.645034e+01
    endloop
  endfacet
  facet normal 0.000000e+00 1.000000e+00 0.000000e+00
    outer loop
      vertex   3.640576e+01 2.000000e+01 -2.645034e+01
      vertex   3.174148e+01 2.000000e+01 -2.750415e+01
      vertex   3.533265e+01 2.000000e+01 -2.270691e+01
    endloop
  endfacet
  facet normal 0.000000e+00 1.000000e+00 -0.000000e+00
    outer loop
      vertex   3.640576e+01 2.000000e+01 -2.645034e+01
      vertex   3.533265e+01 2.000000e+01 -2.270691e+01
      vertex   3.973264e+01 2.000000e+01 -2.112622e+01
    endloop
  endfacet
  facet normal 0.000000e+00 1.000000e+00 0.000000e+00
    outer loop
      vertex   3.973264e+01 2.000000e+01 -2.112622e+01
      vertex   3.533265e+01 2.000000e+01 -2.270691e+01
      vertex   3.820454e+01 2.000000e+01 -1.744743e+01
    endloop
  endfacet
  facet normal 0.000000e+00 1.000000e+00 -0.000000e+00
    outer loop
      vertex   3.973264e+01 2.000000e+01 -2.112622e+01
      vertex   3.820454e+01 2.000000e+01 -1.744743e+01
      vertex   4.228617e+01 2.000000e+01 -1.539091e+01
    endloop
  endfacet
  facet normal 0.000000e+00 1.000000e+00 0.000000e+00
    outer loop
      vertex   4.228617e+01 2.000000e+01 -1.539091e+01
      vertex   3.820454e+01 2.000000e+01 -1.744743e+01
      vertex   4.029870e+01 2.000000e+01 -1.183277e+01
    endloop
  endfacet
  facet normal 0.000000e+00 1.000000e+00 -0.000000e+00
    outer loop
      vertex   4.228617e+01 2.000000e+01 -1.539091e+01
      vertex   4.029870e+01 2.000000e+01 -1.183277e+01
      vertex   4.401664e+01 2.000000e+01 -9.356026e+00
    endloop
  endfacet
  facet normal 0.000000e+00 1.000000e+00 0.000000e+00
    outer loop
      vertex   4.401664e+01 2.000000e+01 -9.356026e+00
      vertex   4.029870e+01 2.000000e+01 -1.183277e+01
      vertex   4.157250e+01 2.000000e+01 -5.977223e+00
    endloop
  endfacet
  facet normal 0.000000e+00 1.000000e+00 -0.000000e+00
    outer loop
      vertex   4.401664e+01 2.000000e+01 -9.356026e+00
      vertex   4.157250e+01 2.000000e+01 -5.977223e+00
      vertex   4.489038e+01 2.000000e+01 -3.139041e+00
    endloop
  endfacet
  facet normal 0.000000e+00 1.000000e+00 0.000000e+00
    outer loop
      vertex   4.489038e+01 2.000000e+01 -3.139041e+00
      vertex   4.157250e+01 2.000000e+01 -5.977223e+00
      vertex   4.200000e+01 2.000000e+01 0.000000e+00
    endloop
  endfacet
  facet normal 0.000000e+00 1.000000e+00 -0.000000e+00
    outer loop
      vertex   4.489038e+01 2.000000e+01 -3.139041e+00
      vertex   4.200000e+01 2.000000e+01 0.000000e+00
      vertex   4.489038e+01 2.000000e+01 3.139041e+00
    endloop
  endfacet
  facet normal 0.000000e+00 1.000000e+00 0.000000e+00
    outer loop
      vertex   4.489038e+01 2.000000e+01 3.139041e+00
      vertex   4.200000e+01 2.000000e+01 0.000000e+00
      vertex   4.157250e+01 2.000000e+01 5.977223e+00
    endloop
  endfacet
  facet normal 0.000000e+00 1.000000e+00 0.000000e+00
    outer loop
      vertex   4.489038e+01 2.000000e+01 3.139041e+00
      vertex   4.157250e+01 2.000000e+01 5.977223e+00
      vertex   4.401664e+01 2.000000e+01 9.356026e+00
    endloop
  endfacet
  facet normal 0.000000e+00 1.000000e+00 0.000000e+00
    outer loop
      vertex   4.401664e+01 2.000000e+01 9.356026e+00
      vertex   4.157250e+01 2.000000e+01 5.977223e+00
      vertex   4.029870e+01 2.000000e+01 1.183277e+01
    endloop
  endfacet
  facet normal 0.000000e+00 1.000000e+00 0.000000e+00
    outer loop
      vertex   4.401664e+01 2.000000e+01 9.356026e+00
      vertex   4.029870e+01 2.000000e+01 1.183277e+01
      vertex   4.228617e+01 2.000000e+01 1.539091e+01
    endloop
  endfacet
  facet normal 0.000000e+00 1.000000e+00 0.000000e+00
    outer loop
      vertex   4.228617e+01 2.000000e+01 1.539091e+01
      vertex   4.029870e+01 2.000000e+01 1.183277e+01
      vertex   3.820454e+01 2.000000e+01 1.744743e+01
    endloop
  endfacet
  facet normal 0.000000e+00 1.000000e+00 0.000000e+00
    outer loop
      vertex   4.228617e+01 2.000000e+01 1.539091e+01
      vertex   3.820454e+01 2.000000e+01 1.744743e+01
      vertex   3.973264e+01 2.000000e+01 2.112622e+01
    endloop
  endfacet
  facet normal 0.000000e+00 1.000000e+00 0.000000e+00
    outer loop
      vertex   3.973264e+01 2.000000e+01 2.112622e+01
      vertex   3.820454e+01 2.000000e+01 1.744743e+01
      vertex   3.533265e+01 2.000000e+01 2.270691e+01
    endloop
  endfacet
  facet normal 0.000000e+00 1.000000e+00 0.000000e+00
    outer loop
      vertex   3.973264e+01 2.000000e+01 2.112622e+01
      vertex   3.533265e+01 2.000000e+01 2.270691e+01
      vertex   3.640576e+01 2.000000e+01 2.645034e+01
    endloop
  endfacet
  facet normal 0.000000e+00 1.000000e+00 0.000000e+00
    outer loop
      vertex   3.640576e+01 2.000000e+01 2.645034e+01
      vertex   3.533265e+01 2.000000e+01 2.270691e+01
      vertex   3.174148e+01 2.000000e+01 2.750415e+01
    endloop
  endfacet
  facet normal 0.000000e+00 1.000000e+00 0.000000e+00
    outer loop
      vertex   3.640576e+01 2.000000e+01 2.645034e+01
      vertex   3.174148e+01 2.000000e+01 2.750415e+01
      vertex   3.237029e+01 2.000000e+01 3.125963e+01
    endloop
  endfacet
  facet normal 0.000000e+00 1.000000e+00 0.000000e+00
    outer loop
      vertex   3.237029e+01 2.000000e+01 3.125963e+01
      vertex   3.174148e+01 2.000000e+01 2.750415e+01
      vertex   2.750415e+01 2.000000e+01 3.174148e+01
    endloop
  endfacet
  facet normal 0.000000e+00 1.000000e+00 0.000000e+00
    outer loop
      vertex   3.237029e+01 2.000000e+01 3.125963e+01
      vertex   2.750415e+01 2.000000e+01 3.174148e+01
      vertex   2.770477e+01 2.000000e+01 3.546048e+01
    endloop
  endfacet
  facet normal 0.000000e+00 1.000000e+00 0.000000e+00
    outer loop
      vertex   2.770477e+01 2.000000e+01 3.546048e+01
      vertex   2.750415e+01 2.000000e+01 3.174148e+01
      vertex   2.270691e+01 2.000000e+01 3.533265e+01
    endloop
  endfacet
  facet normal 0.000000e+00 1.000000e+00 0.000000e+00
    outer loop
      vertex   2.770477e+01 2.000000e+01 3.546048e+01
      vertex   2.270691e+01 2.000000e+01 3.533265e+01
      vertex   2.250000e+01 2.000000e+01 3.897114e+01
    endloop
  endfacet
  facet normal 0.000000e+00 1.000000e+00 0.000000e+00
    outer loop
      vertex   2.250000e+01 2.000000e+01 3.897114e+01
      vertex   2.270691e+01 2.000000e+01 3.533265e+01
      vertex   1.744743e+01 2.000000e+01 3.820454e+01
    endloop
  endfacet
  facet normal 0.000000e+00 1.000000e+00 0.000000e+00
    outer loop
      vertex   2.250000e+01 2.000000e+01 3.897114e+01
      vertex   1.744743e+01 2.000000e+01 3.820454e+01
      vertex   1.685730e+01 2.000000e+01 4.172327e+01
    endloop
  endfacet
  facet normal 0.000000e+00 1.000000e+00 0.000000e+00
    outer loop
      vertex   1.685730e+01 2.000000e+01 4.172327e+01
      vertex   1.744743e+01 2.000000e+01 3.820454e+01
      vertex   1.183277e+01 2.000000e+01 4.029870e+01
    endloop
  endfacet
  facet normal 0.000000e+00 1.000000e+00 0.000000e+00
    outer loop
      vertex   1.685730e+01 2.000000e+01 4.172327e+01
      vertex   1.183277e+01 2.000000e+01 4.029870e+01
      vertex   1.088649e+01 2.000000e+01 4.366331e+01
    endloop
  endfacet
  facet normal 0.000000e+00 1.000000e+00 0.000000e+00
    outer loop
      vertex   1.088649e+01 2.000000e+01 4.366331e+01
      vertex   1.183277e+01 2.000000e+01 4.029870e+01
      vertex   5.977223e+00 2.000000e+01 4.157250e+01
    endloop
  endfacet
  facet normal 0.000000e+00 1.000000e+00 0.000000e+00
    outer loop
      vertex   1.088649e+01 2.000000e+01 4.366331e+01
      vertex   5.977223e+00 2.000000e+01 4.157250e+01
      vertex   4.703781e+00 2.000000e+01 4.475349e+01
    endloop
  endfacet
  facet normal 0.000000e+00 1.000000e+00 0.000000e+00
    outer loop
      vertex   4.703781e+00 2.000000e+01 4.475349e+01
      vertex   5.977223e+00 2.000000e+01 4.157250e+01
      vertex   2.571758e-15 2.000000e+01 4.200000e+01
    endloop
  endfacet
  facet normal 0.000000e+00 1.000000e+00 0.000000e+00
    outer loop
      vertex   4.703781e+00 2.000000e+01 4.475349e+01
      vertex   2.571758e-15 2.000000e+01 4.200000e+01
      vertex   -1.570477e+00 2.000000e+01 4.497259e+01
    endloop
  endfacet
  facet normal 0.000000e+00 1.000000e+00 0.000000e+00
    outer loop
      vertex   -1.570477e+00 2.000000e+01 4.497259e+01
      vertex   2.571758e-15 2.000000e+01 4.200000e+01
      vertex   -5.977223e+00 2.000000e+01 4.157250e+01
    endloop
  endfacet
  facet normal 0.000000e+00 1.000000e+00 0.000000e+00
    outer loop
      vertex   -1.570477e+00 2.000000e+01 4.497259e+01
      vertex   -5.977223e+00 2.000000e+01 4.157250e+01
      vertex   -7.814168e+00 2.000000e+01 4.431635e+01
    endloop
  endfacet
  facet normal 0.000000e+00 1.000000e+00 0.000000e+00
    outer loop
      vertex   -7.814168e+00 2.000000e+01 4.431635e+01
      vertex   -5.977223e+00 2.000000e+01 4.157250e+01
      vertex   -1.183277e+01 2.000000e+01 4.029870e+01
    endloop
  endfacet
  facet normal 0.000000e+00 1.000000e+00 0.000000e+00
    outer loop
      vertex   -7.814168e+00 2.000000e+01 4.431635e+01
      vertex   -1.183277e+01 2.000000e+01 4.029870e+01
      vertex   -1.390576e+01 2.000000e+01 4.279754e+01
    endloop
  endfacet
  facet normal 0.000000e+00 1.000000e+00 0.000000e+00
    outer loop
      vertex   -1.390576e+01 2.000000e+01 4.279754e+01
      vertex   -1.183277e+01 2.000000e+01 4.029870e+01
      vertex   -1.744743e+01 2.000000e+01 3.820454e+01
    endloop
  endfacet
  facet normal 0.000000e+00 1.000000e+00 0.000000e+00
    outer loop
      vertex   -1.390576e+01 2.000000e+01 4.279754e+01
      vertex   -1.744743e+01 2.000000e+01 3.820454e+01
      vertex   -1.972670e+01 2.000000e+01 4.044573e+01
    endloop
  endfacet
  facet normal 0.000000e+00 1.000000e+00 0.000000e+00
    outer loop
      vertex   -1.972670e+01 2.000000e+01 4.044573e+01
      vertex   -1.744743e+01 2.000000e+01 3.820454e+01
      vertex   -2.270691e+01 2.000000e+01 3.533265e+01
    endloop
  endfacet
  facet normal 0.000000e+00 1.000000e+00 0.000000e+00
    outer loop
      vertex   -1.972670e+01 2.000000e+01 4.044573e+01
      vertex   -2.270691e+01 2.000000e+01 3.533265e+01
      vertex   -2.516368e+01 2.000000e+01 3.730669e+01
    endloop
  endfacet
  facet normal 0.000000e+00 1.000000e+00 0.000000e+00
    outer loop
      vertex   -2.516368e+01 2.000000e+01 3.730669e+01
      vertex   -2.270691e+01 2.000000e+01 3.533265e+01
      vertex   -2.750415e+01 2.000000e+01 3.174148e+01
    endloop
  endfacet
  facet normal 0.000000e+00 1.000000e+00 0.000000e+00
    outer loop
      vertex   -2.516368e+01 2.000000e+01 3.730669e+01
      vertex   -2.750415e+01 2.000000e+01 3.174148e+01
      vertex   -3.011088e+01 2.000000e+01 3.344152e+01
    endloop
  endfacet
  facet normal 0.000000e+00 1.000000e+00 0.000000e+00
    outer loop
      vertex   -3.011088e+01 2.000000e+01 3.344152e+01
      vertex   -2.750415e+01 2.000000e+01 3.174148e+01
      vertex   -3.174148e+01 2.000000e+01 2.750415e+01
    endloop
  endfacet
  facet normal 0.000000e+00 1.000000e+00 0.000000e+00
    outer loop
      vertex   -3.011088e+01 2.000000e+01 3.344152e+01
      vertex   -3.174148e+01 2.000000e+01 2.750415e+01
      vertex   -3.447200e+01 2.000000e+01 2.892544e+01
    endloop
  endfacet
  facet normal 0.000000e+00 1.000000e+00 0.000000e+00
    outer loop
      vertex   -3.447200e+01 2.000000e+01 2.892544e+01
      vertex   -3.174148e+01 2.000000e+01 2.750415e+01
      vertex   -3.533265e+01 2.000000e+01 2.270691e+01
    endloop
  endfacet
  facet normal 0.000000e+00 1.000000e+00 0.000000e+00
    outer loop
      vertex   -3.447200e+01 2.000000e+01 2.892544e+01
      vertex   -3.533265e+01 2.000000e+01 2.270691e+01
      vertex   -3.816216e+01 2.000000e+01 2.384637e+01
    endloop
  endfacet
  facet normal 0.000000e+00 1.000000e+00 0.000000e+00
    outer loop
      vertex   -3.816216e+01 2.000000e+01 2.384637e+01
      vertex   -3.533265e+01 2.000000e+01 2.270691e+01
      vertex   -3.820454e+01 2.000000e+01 1.744743e+01
    endloop
  endfacet
  facet normal 0.000000e+00 1.000000e+00 0.000000e+00
    outer loop
      vertex   -3.816216e+01 2.000000e+01 2.384637e+01
      vertex   -3.820454e+01 2.000000e+01 1.744743e+01
      vertex   -4.110955e+01 2.000000e+01 1.830315e+01
    endloop
  endfacet
  facet normal 0.000000e+00 1.000000e+00 0.000000e+00
    outer loop
      vertex   -4.110955e+01 2.000000e+01 1.830315e+01
      vertex   -3.820454e+01 2.000000e+01 1.744743e+01
      vertex   -4.029870e+01 2.000000e+01 1.183277e+01
    endloop
  endfacet
  facet normal 0.000000e+00 1.000000e+00 0.000000e+00
    outer loop
      vertex   -4.110955e+01 2.000000e+01 1.830315e+01
      vertex   -4.029870e+01 2.000000e+01 1.183277e+01
      vertex   -4.325678e+01 2.000000e+01 1.240368e+01
    endloop
  endfacet
  facet normal 0.000000e+00 1.000000e+00 0.000000e+00
    outer loop
      vertex   -4.325678e+01 2.000000e+01 1.240368e+01
      vertex   -4.029870e+01 2.000000e+01 1.183277e+01
      vertex   -4.157250e+01 2.000000e+01 5.977223e+00
    endloop
  endfacet
  facet normal 0.000000e+00 1.000000e+00 0.000000e+00
    outer loop
      vertex   -4.325678e+01 2.000000e+01 1.240368e+01
      vertex   -4.157250e+01 2.000000e+01 5.977223e+00
      vertex   -4.456206e+01 2.000000e+01 6.262790e+00
    endloop
  endfacet
  facet normal 0.000000e+00 1.000000e+00 0.000000e+00
    outer loop
      vertex   -4.456206e+01 2.000000e+01 6.262790e+00
      vertex   -4.157250e+01 2.000000e+01 5.977223e+00
      vertex   -4.200000e+01 2.000000e+01 5.143517e-15
    endloop
  endfacet
  facet normal -0.000000e+00 -1.000000e+00 0.000000e+00
    outer loop
      vertex   -4.157250e+01 0.000000e+00 5.977223e+00
      vertex   -4.456206e+01 0.000000e+00 6.262790e+00
      vertex   -4.200000e+01 0.000000e+00 5.143517e-15
    endloop
  endfacet
  facet normal 0.000000e+00 -1.000000e+00 0.000000e+00
    outer loop
      vertex   -4.200000e+01 0.000000e+00 5.143517e-15
      vertex   -4.456206e+01 0.000000e+00 6.262790e+00
      vertex   -4.500000e+01 0.000000e+00 5.510911e-15
    endloop
  endfacet
  facet normal -0.000000e+00 -1.000000e+00 0.000000e+00
    outer loop
      vertex   -4.200000e+01 0.000000e+00 5.143517e-15
      vertex   -4.500000e+01 0.000000e+00 5.510911e-15
      vertex   -4.456206e+01 0.000000e+00 -6.262790e+00
    endloop
  endfacet
  facet normal 0.000000e+00 -1.000000e+00 0.000000e+00
    outer loop
      vertex   -4.456206e+01 0.000000e+00 6.262790e+00
      vertex   -4.157250e+01 0.000000e+00 5.977223e+00
      vertex   -4.325678e+01 0.000000e+00 1.240368e+01
    endloop
  endfacet
  facet normal 0.000000e+00 -1.000000e+00 0.000000e+00
    outer loop
      vertex   -4.325678e+01 0.000000e+00 1.240368e+01
      vertex   -4.157250e+01 0.000000e+00 5.977223e+00
      vertex   -4.029870e+01 0.000000e+00 1.183277e+01
    endloop
  endfacet
  facet normal 0.000000e+00 -1.000000e+00 0.000000e+00
    outer loop
      vertex   -4.325678e+01 0.000000e+00 1.240368e+01
      vertex   -4.029870e+01 0.000000e+00 1.183277e+01
      vertex   -4.110955e+01 0.000000e+00 1.830315e+01
    endloop
  endfacet
  facet normal 0.000000e+00 -1.000000e+00 0.000000e+00
    outer loop
      vertex   -4.110955e+01 0.000000e+00 1.830315e+01
      vertex   -4.029870e+01 0.000000e+00 1.183277e+01
      vertex   -3.820454e+01 0.000000e+00 1.744743e+01
    endloop
  endfacet
  facet normal 0.000000e+00 -1.000000e+00 0.000000e+00
    outer loop
      vertex   -4.110955e+01 0.000000e+00 1.830315e+01
      vertex   -3.820454e+01 0.000000e+00 1.744743e+01
      vertex   -3.816216e+01 0.000000e+00 2.384637e+01
    endloop
  endfacet
  facet normal 0.000000e+00 -1.000000e+00 -0.000000e+00
    outer loop
      vertex   -3.816216e+01 0.000000e+00 2.384637e+01
      vertex   -3.820454e+01 0.000000e+00 1.744743e+01
      vertex   -3.533265e+01 0.000000e+00 2.270691e+01
    endloop
  endfacet
  facet normal 0.000000e+00 -1.000000e+00 0.000000e+00
    outer loop
      vertex   -3.816216e+01 0.000000e+00 2.384637e+01
      vertex   -3.533265e+01 0.000000e+00 2.270691e+01
      vertex   -3.447200e+01 0.000000e+00 2.892544e+01
    endloop
  endfacet
  facet normal 0.000000e+00 -1.000000e+00 -0.000000e+00
    outer loop
      vertex   -3.447200e+01 0.000000e+00 2.892544e+01
      vertex   -3.533265e+01 0.000000e+00 2.270691e+01
      vertex   -3.174148e+01 0.000000e+00 2.750415e+01
    endloop
  endfacet
  facet normal 0.000000e+00 -1.000000e+00 0.000000e+00
    outer loop
      vertex   -3.447200e+01 0.000000e+00 2.892544e+01
      vertex   -3.174148e+01 0.000000e+00 2.750415e+01
      vertex   -3.011088e+01 0.000000e+00 3.344152e+01
    endloop
  endfacet
  facet normal 0.000000e+00 -1.000000e+00 -0.000000e+00
    outer loop
      vertex   -3.011088e+01 0.000000e+00 3.344152e+01
      vertex   -3.174148e+01 0.000000e+00 2.750415e+01
      vertex   -2.750415e+01 0.000000e+00 3.174148e+01
    endloop
  endfacet
  facet normal 0.000000e+00 -1.000000e+00 0.000000e+00
    outer loop
      vertex   -3.011088e+01 0.000000e+00 3.344152e+01
      vertex   -2.750415e+01 0.000000e+00 3.174148e+01
      vertex   -2.516368e+01 0.000000e+00 3.730669e+01
    endloop
  endfacet
  facet normal 0.000000e+00 -1.000000e+00 -0.000000e+00
    outer loop
      vertex   -2.516368e+01 0.000000e+00 3.730669e+01
      vertex   -2.750415e+01 0.000000e+00 3.174148e+01
      vertex   -2.270691e+01 0.000000e+00 3.533265e+01
    endloop
  endfacet
  facet normal 0.000000e+00 -1.000000e+00 0.000000e+00
    outer loop
      vertex   -2.516368e+01 0.000000e+00 3.730669e+01
      vertex   -2.270691e+01 0.000000e+00 3.533265e+01
      vertex   -1.972670e+01 0.000000e+00 4.044573e+01
    endloop
  endfacet
  facet normal 0.000000e+00 -1.000000e+00 -0.000000e+00
    outer loop
      vertex   -1.972670e+01 0.000000e+00 4.044573e+01
      vertex   -2.270691e+01 0.000000e+00 3.533265e+01
      vertex   -1.744743e+01 0.000000e+00 3.820454e+01
    endloop
  endfacet
  facet normal 0.000000e+00 -1.000000e+00 0.000000e+00
    outer loop
      vertex   -1.972670e+01 0.000000e+00 4.044573e+01
      vertex   -1.744743e+01 0.000000e+00 3.820454e+01
      vertex   -1.390576e+01 0.000000e+00 4.279754e+01
    endloop
  endfacet
  facet normal 0.000000e+00 -1.000000e+00 -0.000000e+00
    outer loop
      vertex   -1.390576e+01 0.000000e+00 4.279754e+01
      vertex   -1.744743e+01 0.000000e+00 3.820454e+01
      vertex   -1.183277e+01 0.000000e+00 4.029870e+01
    endloop
  endfacet
  facet normal 0.000000e+00 -1.000000e+00 0.000000e+00
    outer loop
      vertex   -1.390576e+01 0.000000e+00 4.279754e+01
      vertex   -1.183277e+01 0.000000e+00 4.029870e+01
      vertex   -7.814168e+00 0.000000e+00 4.431635e+01
    endloop
  endfacet
  facet normal 0.000000e+00 -1.000000e+00 -0.000000e+00
    outer loop
      vertex   -7.814168e+00 0.000000e+00 4.431635e+01
      vertex   -1.183277e+01 0.000000e+00 4.029870e+01
      vertex   -5.977223e+00 0.000000e+00 4.157250e+01
    endloop
  endfacet
  facet normal 0.000000e+00 -1.000000e+00 0.000000e+00
    outer loop
      vertex   -7.814168e+00 0.000000e+00 4.431635e+01
      vertex   -5.977223e+00 0.000000e+00 4.157250e+01
      vertex   -1.570477e+00 0.000000e+00 4.497259e+01
    endloop
  endfacet
  facet normal 0.000000e+00 -1.000000e+00 -0.000000e+00
    outer loop
      vertex   -1.570477e+00 0.000000e+00 4.497259e+01
      vertex   -5.977223e+00 0.000000e+00 4.157250e+01
      vertex   2.571758e-15 0.000000e+00 4.200000e+01
    endloop
  endfacet
  facet normal 0.000000e+00 -1.000000e+00 0.000000e+00
    outer loop
      vertex   -1.570477e+00 0.000000e+00 4.497259e+01
      vertex   2.571758e-15 0.000000e+00 4.200000e+01
      vertex   4.703781e+00 0.000000e+00 4.475349e+01
    endloop
  endfacet
  facet normal 0.000000e+00 -1.000000e+00 -0.000000e+00
    outer loop
      vertex   4.703781e+00 0.000000e+00 4.475349e+01
      vertex   2.571758e-15 0.000000e+00 4.200000e+01
      vertex   5.977223e+00 0.000000e+00 4.157250e+01
    endloop
  endfacet
  facet normal 0.000000e+00 -1.000000e+00 0.000000e+00
    outer loop
      vertex   4.703781e+00 0.000000e+00 4.475349e+01
      vertex   5.977223e+00 0.000000e+00 4.157250e+01
      vertex   1.088649e+01 0.000000e+00 4.366331e+01
    endloop
  endfacet
  facet normal 0.000000e+00 -1.000000e+00 -0.000000e+00
    outer loop
      vertex   1.088649e+01 0.000000e+00 4.366331e+01
      vertex   5.977223e+00 0.000000e+00 4.157250e+01
      vertex   1.183277e+01 0.000000e+00 4.029870e+01
    endloop
  endfacet
  facet normal 0.000000e+00 -1.000000e+00 0.000000e+00
    outer loop
      vertex   1.088649e+01 0.000000e+00 4.366331e+01
      vertex   1.183277e+01 0.000000e+00 4.029870e+01
      vertex   1.685730e+01 0.000000e+00 4.172327e+01
    endloop
  endfacet
  facet normal 0.000000e+00 -1.000000e+00 -0.000000e+00
    outer loop
      vertex   1.685730e+01 0.000000e+00 4.172327e+01
      vertex   1.183277e+01 0.000000e+00 4.029870e+01
      vertex   1.744743e+01 0.000000e+00 3.820454e+01
    endloop
  endfacet
  facet normal 0.000000e+00 -1.000000e+00 0.000000e+00
    outer loop
      vertex   1.685730e+01 0.000000e+00 4.172327e+01
      vertex   1.744743e+01 0.000000e+00 3.820454e+01
      vertex   2.250000e+01 0.000000e+00 3.897114e+01
    endloop
  endfacet
  facet normal 0.000000e+00 -1.000000e+00 -0.000000e+00
    outer loop
      vertex   2.250000e+01 0.000000e+00 3.897114e+01
      vertex   1.744743e+01 0.000000e+00 3.820454e+01
      vertex   2.270691e+01 0.000000e+00 3.533265e+01
    endloop
  endfacet
  facet normal 0.000000e+00 -1.000000e+00 0.000000e+00
    outer loop
      vertex   2.250000e+01 0.000000e+00 3.897114e+01
      vertex   2.270691e+01 0.000000e+00 3.533265e+01
      vertex   2.770477e+01 0.000000e+00 3.546048e+01
    endloop
  endfacet
  facet normal 0.000000e+00 -1.000000e+00 0.000000e+00
    outer loop
      vertex   2.770477e+01 0.000000e+00 3.546048e+01
      vertex   2.270691e+01 0.000000e+00 3.533265e+01
      vertex   2.750415e+01 0.000000e+00 3.174148e+01
    endloop
  endfacet
  facet normal 0.000000e+00 -1.000000e+00 -0.000000e+00
    outer loop
      vertex   2.770477e+01 0.000000e+00 3.546048e+01
      vertex   2.750415e+01 0.000000e+00 3.174148e+01
      vertex   3.237029e+01 0.000000e+00 3.125963e+01
    endloop
  endfacet
  facet normal -0.000000e+00 -1.000000e+00 0.000000e+00
    outer loop
      vertex   3.237029e+01 0.000000e+00 3.125963e+01
      vertex   2.750415e+01 0.000000e+00 3.174148e+01
      vertex   3.174148e+01 0.000000e+00 2.750415e+01
    endloop
  endfacet
  facet normal 0.000000e+00 -1.000000e+00 -0.000000e+00
    outer loop
      vertex   3.237029e+01 0.000000e+00 3.125963e+01
      vertex   3.174148e+01 0.000000e+00 2.750415e+01
      vertex   3.640576e+01 0.000000e+00 2.645034e+01
    endloop
  endfacet
  facet normal -0.000000e+00 -1.000000e+00 0.000000e+00
    outer loop
      vertex   3.640576e+01 0.000000e+00 2.645034e+01
      vertex   3.174148e+01 0.000000e+00 2.750415e+01
      vertex   3.533265e+01 0.000000e+00 2.270691e+01
    endloop
  endfacet
  facet normal 0.000000e+00 -1.000000e+00 -0.000000e+00
    outer loop
      vertex   3.640576e+01 0.000000e+00 2.645034e+01
      vertex   3.533265e+01 0.000000e+00 2.270691e+01
      vertex   3.973264e+01 0.000000e+00 2.112622e+01
    endloop
  endfacet
  facet normal -0.000000e+00 -1.000000e+00 0.000000e+00
    outer loop
      vertex   3.973264e+01 0.000000e+00 2.112622e+01
      vertex   3.533265e+01 0.000000e+00 2.270691e+01
      vertex   3.820454e+01 0.000000e+00 1.744743e+01
    endloop
  endfacet
  facet normal 0.000000e+00 -1.000000e+00 -0.000000e+00
    outer loop
      vertex   3.973264e+01 0.000000e+00 2.112622e+01
      vertex   3.820454e+01 0.000000e+00 1.744743e+01
      vertex   4.228617e+01 0.000000e+00 1.539091e+01
    endloop
  endfacet
  facet normal -0.000000e+00 -1.000000e+00 0.000000e+00
    outer loop
      vertex   4.228617e+01 0.000000e+00 1.539091e+01
      vertex   3.820454e+01 0.000000e+00 1.744743e+01
      vertex   4.029870e+01 0.000000e+00 1.183277e+01
    endloop
  endfacet
  facet normal 0.000000e+00 -1.000000e+00 -0.000000e+00
    outer loop
      vertex   4.228617e+01 0.000000e+00 1.539091e+01
      vertex   4.029870e+01 0.000000e+00 1.183277e+01
      vertex   4.401664e+01 0.000000e+00 9.356026e+00
    endloop
  endfacet
  facet normal -0.000000e+00 -1.000000e+00 0.000000e+00
    outer loop
      vertex   4.401664e+01 0.000000e+00 9.356026e+00
      vertex   4.029870e+01 0.000000e+00 1.183277e+01
      vertex   4.157250e+01 0.000000e+00 5.977223e+00
    endloop
  endfacet
  facet normal 0.000000e+00 -1.000000e+00 -0.000000e+00
    outer loop
      vertex   4.401664e+01 0.000000e+00 9.356026e+00
      vertex   4.157250e+01 0.000000e+00 5.977223e+00
      vertex   4.489038e+01 0.000000e+00 3.139041e+00
    endloop
  endfacet
  facet normal -0.000000e+00 -1.000000e+00 0.000000e+00
    outer loop
      vertex   4.489038e+01 0.000000e+00 3.139041e+00
      vertex   4.157250e+01 0.000000e+00 5.977223e+00
      vertex   4.200000e+01 0.000000e+00 0.000000e+00
    endloop
  endfacet
  facet normal 0.000000e+00 -1.000000e+00 -0.000000e+00
    outer loop
      vertex   4.489038e+01 0.000000e+00 3.139041e+00
      vertex   4.200000e+01 0.000000e+00 0.000000e+00
      vertex   4.489038e+01 0.000000e+00 -3.139041e+00
    endloop
  endfacet
  facet normal -0.000000e+00 -1.000000e+00 0.000000e+00
    outer loop
      vertex   4.489038e+01 0.000000e+00 -3.139041e+00
      vertex   4.200000e+01 0.000000e+00 0.000000e+00
      vertex   4.157250e+01 0.000000e+00 -5.977223e+00
    endloop
  endfacet
  facet normal 0.000000e+00 -1.000000e+00 0.000000e+00
    outer loop
      vertex   4.489038e+01 0.000000e+00 -3.139041e+00
      vertex   4.157250e+01 0.000000e+00 -5.977223e+00
      vertex   4.401664e+01 0.000000e+00 -9.356026e+00
    endloop
  endfacet
  facet normal -0.000000e+00 -1.000000e+00 0.000000e+00
    outer loop
      vertex   4.401664e+01 0.000000e+00 -9.356026e+00
      vertex   4.157250e+01 0.000000e+00 -5.977223e+00
      vertex   4.029870e+01 0.000000e+00 -1.183277e+01
    endloop
  endfacet
  facet normal 0.000000e+00 -1.000000e+00 0.000000e+00
    outer loop
      vertex   4.401664e+01 0.000000e+00 -9.356026e+00
      vertex   4.029870e+01 0.000000e+00 -1.183277e+01
      vertex   4.228617e+01 0.000000e+00 -1.539091e+01
    endloop
  endfacet
  facet normal -0.000000e+00 -1.000000e+00 0.000000e+00
    outer loop
      vertex   4.228617e+01 0.000000e+00 -1.539091e+01
      vertex   4.029870e+01 0.000000e+00 -1.183277e+01
      vertex   3.820454e+01 0.000000e+00 -1.744743e+01
    endloop
  endfacet
  facet normal 0.000000e+00 -1.000000e+00 0.000000e+00
    outer loop
      vertex   4.228617e+01 0.000000e+00 -1.539091e+01
      vertex   3.820454e+01 0.000000e+00 -1.744743e+01
      vertex   3.973264e+01 0.000000e+00 -2.112622e+01
    endloop
  endfacet
  facet normal -0.000000e+00 -1.000000e+00 0.000000e+00
    outer loop
      vertex   3.973264e+01 0.000000e+00 -2.112622e+01
      vertex   3.820454e+01 0.000000e+00 -1.744743e+01
      vertex   3.533265e+01 0.000000e+00 -2.270691e+01
    endloop
  endfacet
  facet normal 0.000000e+00 -1.000000e+00 0.000000e+00
    outer loop
      vertex   3.973264e+01 0.000000e+00 -2.112622e+01
      vertex   3.533265e+01 0.000000e+00 -2.270691e+01
      vertex   3.640576e+01 0.000000e+00 -2.645034e+01
    endloop
  endfacet
  facet normal -0.000000e+00 -1.000000e+00 0.000000e+00
    outer loop
      vertex   3.640576e+01 0.000000e+00 -2.645034e+01
      vertex   3.533265e+01 0.000000e+00 -2.270691e+01
      vertex   3.174148e+01 0.000000e+00 -2.750415e+01
    endloop
  endfacet
  facet normal 0.000000e+00 -1.000000e+00 0.000000e+00
    outer loop
      vertex   3.640576e+01 0.000000e+00 -2.645034e+01
      vertex   3.174148e+01 0.000000e+00 -2.750415e+01
      vertex   3.237029e+01 0.000000e+00 -3.125963e+01
    endloop
  endfacet
  facet normal -0.000000e+00 -1.000000e+00 0.000000e+00
    outer loop
      vertex   3.237029e+01 0.000000e+00 -3.125963e+01
      vertex   3.174148e+01 0.000000e+00 -2.750415e+01
      vertex   2.750415e+01 0.000000e+00 -3.174148e+01
    endloop
  endfacet
  facet normal 0.000000e+00 -1.000000e+00 0.000000e+00
    outer loop
      vertex   3.237029e+01 0.000000e+00 -3.125963e+01
      vertex   2.750415e+01 0.000000e+00 -3.174148e+01
      vertex   2.770477e+01 0.000000e+00 -3.546048e+01
    endloop
  endfacet
  facet normal 0.000000e+00 -1.000000e+00 0.000000e+00
    outer loop
      vertex   2.770477e+01 0.000000e+00 -3.546048e+01
      vertex   2.750415e+01 0.000000e+00 -3.174148e+01
      vertex   2.270691e+01 0.000000e+00 -3.533265e+01
    endloop
  endfacet
  facet normal -0.000000e+00 -1.000000e+00 0.000000e+00
    outer loop
      vertex   2.770477e+01 0.000000e+00 -3.546048e+01
      vertex   2.270691e+01 0.000000e+00 -3.533265e+01
      vertex   2.250000e+01 0.000000e+00 -3.897114e+01
    endloop
  endfacet
  facet normal 0.000000e+00 -1.000000e+00 0.000000e+00
    outer loop
      vertex   2.250000e+01 0.000000e+00 -3.897114e+01
      vertex   2.270691e+01 0.000000e+00 -3.533265e+01
      vertex   1.744743e+01 0.000000e+00 -3.820454e+01
    endloop
  endfacet
  facet normal -0.000000e+00 -1.000000e+00 0.000000e+00
    outer loop
      vertex   2.250000e+01 0.000000e+00 -3.897114e+01
      vertex   1.744743e+01 0.000000e+00 -3.820454e+01
      vertex   1.685730e+01 0.000000e+00 -4.172327e+01
    endloop
  endfacet
  facet normal 0.000000e+00 -1.000000e+00 0.000000e+00
    outer loop
      vertex   1.685730e+01 0.000000e+00 -4.172327e+01
      vertex   1.744743e+01 0.000000e+00 -3.820454e+01
      vertex   1.183277e+01 0.000000e+00 -4.029870e+01
    endloop
  endfacet
  facet normal -0.000000e+00 -1.000000e+00 0.000000e+00
    outer loop
      vertex   1.685730e+01 0.000000e+00 -4.172327e+01
      vertex   1.183277e+01 0.000000e+00 -4.029870e+01
      vertex   1.088649e+01 0.000000e+00 -4.366331e+01
    endloop
  endfacet
  facet normal 0.000000e+00 -1.000000e+00 0.000000e+00
    outer loop
      vertex   1.088649e+01 0.000000e+00 -4.366331e+01
      vertex   1.183277e+01 0.000000e+00 -4.029870e+01
      vertex   5.977223e+00 0.000000e+00 -4.157250e+01
    endloop
  endfacet
  facet normal -0.000000e+00 -1.000000e+00 0.000000e+00
    outer loop
      vertex   1.088649e+01 0.000000e+00 -4.366331e+01
      vertex   5.977223e+00 0.000000e+00 -4.157250e+01
      vertex   4.703781e+00 0.000000e+00 -4.475349e+01
    endloop
  endfacet
  facet normal 0.000000e+00 -1.000000e+00 0.000000e+00
    outer loop
      vertex   4.703781e+00 0.000000e+00 -4.475349e+01
      vertex   5.977223e+00 0.000000e+00 -4.157250e+01
      vertex   2.571758e-15 0.000000e+00 -4.200000e+01
    endloop
  endfacet
  facet normal -0.000000e+00 -1.000000e+00 0.000000e+00
    outer loop
      vertex   4.703781e+00 0.000000e+00 -4.475349e+01
      vertex   2.571758e-15 0.000000e+00 -4.200000e+01
      vertex   -1.570477e+00 0.000000e+00 -4.497259e+01
    endloop
  endfacet
  facet normal 0.000000e+00 -1.000000e+00 0.000000e+00
    outer loop
      vertex   -1.570477e+00 0.000000e+00 -4.497259e+01
      vertex   2.571758e-15 0.000000e+00 -4.200000e+01
      vertex   -5.977223e+00 0.000000e+00 -4.157250e+01
    endloop
  endfacet
  facet normal 0.000000e+00 -1.000000e+00 0.000000e+00
    outer loop
      vertex   -1.570477e+00 0.000000e+00 -4.497259e+01
      vertex   -5.977223e+00 0.000000e+00 -4.157250e+01
      vertex   -7.814168e+00 0.000000e+00 -4.431635e+01
    endloop
  endfacet
  facet normal 0.000000e+00 -1.000000e+00 0.000000e+00
    outer loop
      vertex   -7.814168e+00 0.000000e+00 -4.431635e+01
      vertex   -5.977223e+00 0.000000e+00 -4.157250e+01
      vertex   -1.183277e+01 0.000000e+00 -4.029870e+01
    endloop
  endfacet
  facet normal 0.000000e+00 -1.000000e+00 0.000000e+00
    outer loop
      vertex   -7.814168e+00 0.000000e+00 -4.431635e+01
      vertex   -1.183277e+01 0.000000e+00 -4.029870e+01
      vertex   -1.390576e+01 0.000000e+00 -4.279754e+01
    endloop
  endfacet
  facet normal 0.000000e+00 -1.000000e+00 0.000000e+00
    outer loop
      vertex   -1.390576e+01 0.000000e+00 -4.279754e+01
      vertex   -1.183277e+01 0.000000e+00 -4.029870e+01
      vertex   -1.744743e+01 0.000000e+00 -3.820454e+01
    endloop
  endfacet
  facet normal 0.000000e+00 -1.000000e+00 0.000000e+00
    outer loop
      vertex   -1.390576e+01 0.000000e+00 -4.279754e+01
      vertex   -1.744743e+01 0.000000e+00 -3.820454e+01
      vertex   -1.972670e+01 0.000000e+00 -4.044573e+01
    endloop
  endfacet
  facet normal 0.000000e+00 -1.000000e+00 0.000000e+00
    outer loop
      vertex   -1.972670e+01 0.000000e+00 -4.044573e+01
      vertex   -1.744743e+01 0.000000e+00 -3.820454e+01
      vertex   -2.270691e+01 0.000000e+00 -3.533265e+01
    endloop
  endfacet
  facet normal 0.000000e+00 -1.000000e+00 0.000000e+00
    outer loop
      vertex   -1.972670e+01 0.000000e+00 -4.044573e+01
      vertex   -2.270691e+01 0.000000e+00 -3.533265e+01
      vertex   -2.516368e+01 0.000000e+00 -3.730669e+01
    endloop
  endfacet
  facet normal 0.000000e+00 -1.000000e+00 0.000000e+00
    outer loop
      vertex   -2.516368e+01 0.000000e+00 -3.730669e+01
      vertex   -2.270691e+01 0.000000e+00 -3.533265e+01
      vertex   -2.750415e+01 0.000000e+00 -3.174148e+01
    endloop
  endfacet
  facet normal 0.000000e+00 -1.000000e+00 0.000000e+00
    outer loop
      vertex   -2.516368e+01 0.000000e+00 -3.730669e+01
      vertex   -2.750415e+01 0.000000e+00 -3.174148e+01
      vertex   -3.011088e+01 0.000000e+00 -3.344152e+01
    endloop
  endfacet
  facet normal 0.000000e+00 -1.000000e+00 0.000000e+00
    outer loop
      vertex   -3.011088e+01 0.000000e+00 -3.344152e+01
      vertex   -2.750415e+01 0.000000e+00 -3.174148e+01
      vertex   -3.174148e+01 0.000000e+00 -2.750415e+01
    endloop
  endfacet
  facet normal 0.000000e+00 -1.000000e+00 0.000000e+00
    outer loop
      vertex   -3.011088e+01 0.000000e+00 -3.344152e+01
      vertex   -3.174148e+01 0.000000e+00 -2.750415e+01
      vertex   -3.447200e+01 0.000000e+00 -2.892544e+01
    endloop
  endfacet
  facet normal 0.000000e+00 -1.000000e+00 0.000000e+00
    outer loop
      vertex   -3.447200e+01 0.000000e+00 -2.892544e+01
      vertex   -3.174148e+01 0.000000e+00 -2.750415e+01
      vertex   -3.533265e+01 0.000000e+00 -2.270691e+01
    endloop
  endfacet
  facet normal 0.000000e+00 -1.000000e+00 0.000000e+00
    outer loop
      vertex   -3.447200e+01 0.000000e+00 -2.892544e+01
      vertex   -3.533265e+01 0.000000e+00 -2.270691e+01
      vertex   -3.816216e+01 0.000000e+00 -2.384637e+01
    endloop
  endfacet
  facet normal 0.000000e+00 -1.000000e+00 0.000000e+00
    outer loop
      vertex   -3.816216e+01 0.000000e+00 -2.384637e+01
      vertex   -3.533265e+01 0.000000e+00 -2.270691e+01
      vertex   -3.820454e+01 0.000000e+00 -1.744743e+01
    endloop
  endfacet
  facet normal 0.000000e+00 -1.000000e+00 0.000000e+00
    outer loop
      vertex   -3.816216e+01 0.000000e+00 -2.384637e+01
      vertex   -3.820454e+01 0.000000e+00 -1.744743e+01
      vertex   -4.110955e+01 0.000000e+00 -1.830315e+01
    endloop
  endfacet
  facet normal 0.000000e+00 -1.000000e+00 0.000000e+00
    outer loop
      vertex   -4.110955e+01 0.000000e+00 -1.830315e+01
      vertex   -3.820454e+01 0.000000e+00 -1.744743e+01
      vertex   -4.029870e+01 0.000000e+00 -1.183277e+01
    endloop
  endfacet
  facet normal 0.000000e+00 -1.000000e+00 0.000000e+00
    outer loop
      vertex   -4.110955e+01 0.000000e+00 -1.830315e+01
      vertex   -4.029870e+01 0.000000e+00 -1.183277e+01
      vertex   -4.325678e+01 0.000000e+00 -1.240368e+01
    endloop
  endfacet
  facet normal 0.000000e+00 -1.000000e+00 0.000000e+00
    outer loop
      vertex   -4.325678e+01 0.000000e+00 -1.240368e+01
      vertex   -4.029870e+01 0.000000e+00 -1.183277e+01
      vertex   -4.157250e+01 0.000000e+00 -5.977223e+00
    endloop
  endfacet
  facet normal 0.000000e+00 -1.000000e+00 0.000000e+00
    outer loop
      vertex   -4.325678e+01 0.000000e+00 -1.240368e+01
      vertex   -4.157250e+01 0.000000e+00 -5.977223e+00
      vertex   -4.456206e+01 0.000000e+00 -6.262790e+00
    endloop
  endfacet
  facet normal 0.000000e+00 -1.000000e+00 0.000000e+00
    outer loop
      vertex   -4.456206e+01 0.000000e+00 -6.262790e+00
      vertex   -4.157250e+01 0.000000e+00 -5.977223e+00
      vertex   -4.200000e+01 0.000000e+00 5.143517e-15
    endloop
  endfacet
endsolid
