solid ASCII
  facet normal 0.000000e+00 0.000000e+00 1.000000e+00
    outer loop
      vertex   1.957500e+01 2.397246e-15 6.962799e+01
      vertex   1.947457e+01 1.980370e+00 6.962799e+01
      vertex   0.000000e+00 0.000000e+00 6.962799e+01
    endloop
  endfacet
  facet normal 0.000000e+00 0.000000e+00 1.000000e+00
    outer loop
      vertex   1.957500e+01 2.397246e-15 6.962799e+01
      vertex   0.000000e+00 0.000000e+00 6.962799e+01
      vertex   1.947457e+01 -1.980370e+00 6.962799e+01
    endloop
  endfacet
  facet normal 0.000000e+00 -0.000000e+00 1.000000e+00
    outer loop
      vertex   1.798860e+01 -7.719516e+00 6.962799e+01
      vertex   1.867727e+01 -5.860034e+00 6.962799e+01
      vertex   0.000000e+00 0.000000e+00 6.962799e+01
    endloop
  endfacet
  facet normal 0.000000e+00 0.000000e+00 1.000000e+00
    outer loop
      vertex   0.000000e+00 0.000000e+00 6.962799e+01
      vertex   1.867727e+01 -5.860034e+00 6.962799e+01
      vertex   1.917430e+01 -3.940418e+00 6.962799e+01
    endloop
  endfacet
  facet normal 0.000000e+00 0.000000e+00 1.000000e+00
    outer loop
      vertex   0.000000e+00 0.000000e+00 6.962799e+01
      vertex   1.917430e+01 -3.940418e+00 6.962799e+01
      vertex   1.947457e+01 -1.980370e+00 6.962799e+01
    endloop
  endfacet
  facet normal 0.000000e+00 -0.000000e+00 1.000000e+00
    outer loop
      vertex   1.485269e+01 -1.275062e+01 6.962799e+01
      vertex   1.606645e+01 -1.118258e+01 6.962799e+01
      vertex   0.000000e+00 0.000000e+00 6.962799e+01
    endloop
  endfacet
  facet normal 0.000000e+00 0.000000e+00 1.000000e+00
    outer loop
      vertex   0.000000e+00 0.000000e+00 6.962799e+01
      vertex   1.606645e+01 -1.118258e+01 6.962799e+01
      vertex   1.711534e+01 -9.499786e+00 6.962799e+01
    endloop
  endfacet
  facet normal 0.000000e+00 0.000000e+00 1.000000e+00
    outer loop
      vertex   0.000000e+00 0.000000e+00 6.962799e+01
      vertex   1.711534e+01 -9.499786e+00 6.962799e+01
      vertex   1.798860e+01 -7.719516e+00 6.962799e+01
    endloop
  endfacet
  facet normal 0.000000e+00 -0.000000e+00 1.000000e+00
    outer loop
      vertex   1.035447e+01 -1.661221e+01 6.962799e+01
      vertex   1.198197e+01 -1.547943e+01 6.962799e+01
      vertex   0.000000e+00 0.000000e+00 6.962799e+01
    endloop
  endfacet
  facet normal 0.000000e+00 0.000000e+00 1.000000e+00
    outer loop
      vertex   0.000000e+00 0.000000e+00 6.962799e+01
      vertex   1.198197e+01 -1.547943e+01 6.962799e+01
      vertex   1.348653e+01 -1.418782e+01 6.962799e+01
    endloop
  endfacet
  facet normal 0.000000e+00 0.000000e+00 1.000000e+00
    outer loop
      vertex   0.000000e+00 0.000000e+00 6.962799e+01
      vertex   1.348653e+01 -1.418782e+01 6.962799e+01
      vertex   1.485269e+01 -1.275062e+01 6.962799e+01
    endloop
  endfacet
  facet normal 0.000000e+00 -0.000000e+00 1.000000e+00
    outer loop
      vertex   4.906524e+00 -1.895011e+01 6.962799e+01
      vertex   6.798500e+00 -1.835650e+01 6.962799e+01
      vertex   0.000000e+00 0.000000e+00 6.962799e+01
    endloop
  endfacet
  facet normal 0.000000e+00 0.000000e+00 1.000000e+00
    outer loop
      vertex   0.000000e+00 0.000000e+00 6.962799e+01
      vertex   6.798500e+00 -1.835650e+01 6.962799e+01
      vertex   8.620717e+00 -1.757453e+01 6.962799e+01
    endloop
  endfacet
  facet normal 0.000000e+00 0.000000e+00 1.000000e+00
    outer loop
      vertex   0.000000e+00 0.000000e+00 6.962799e+01
      vertex   8.620717e+00 -1.757453e+01 6.962799e+01
      vertex   1.035447e+01 -1.661221e+01 6.962799e+01
    endloop
  endfacet
  facet normal 0.000000e+00 0.000000e+00 1.000000e+00
    outer loop
      vertex   -9.914576e-01 -1.954988e+01 6.962799e+01
      vertex   9.914576e-01 -1.954988e+01 6.962799e+01
      vertex   0.000000e+00 0.000000e+00 6.962799e+01
    endloop
  endfacet
  facet normal 0.000000e+00 0.000000e+00 1.000000e+00
    outer loop
      vertex   0.000000e+00 0.000000e+00 6.962799e+01
      vertex   9.914576e-01 -1.954988e+01 6.962799e+01
      vertex   2.964198e+00 -1.934927e+01 6.962799e+01
    endloop
  endfacet
  facet normal 0.000000e+00 0.000000e+00 1.000000e+00
    outer loop
      vertex   0.000000e+00 0.000000e+00 6.962799e+01
      vertex   2.964198e+00 -1.934927e+01 6.962799e+01
      vertex   4.906524e+00 -1.895011e+01 6.962799e+01
    endloop
  endfacet
  facet normal -0.000000e+00 0.000000e+00 1.000000e+00
    outer loop
      vertex   -6.798500e+00 -1.835650e+01 6.962799e+01
      vertex   -4.906524e+00 -1.895011e+01 6.962799e+01
      vertex   0.000000e+00 0.000000e+00 6.962799e+01
    endloop
  endfacet
  facet normal 0.000000e+00 0.000000e+00 1.000000e+00
    outer loop
      vertex   0.000000e+00 0.000000e+00 6.962799e+01
      vertex   -4.906524e+00 -1.895011e+01 6.962799e+01
      vertex   -2.964198e+00 -1.934927e+01 6.962799e+01
    endloop
  endfacet
  facet normal 0.000000e+00 0.000000e+00 1.000000e+00
    outer loop
      vertex   0.000000e+00 0.000000e+00 6.962799e+01
      vertex   -2.964198e+00 -1.934927e+01 6.962799e+01
      vertex   -9.914576e-01 -1.954988e+01 6.962799e+01
    endloop
  endfacet
  facet normal -0.000000e+00 0.000000e+00 1.000000e+00
    outer loop
      vertex   -1.198197e+01 -1.547943e+01 6.962799e+01
      vertex   -1.035447e+01 -1.661221e+01 6.962799e+01
      vertex   0.000000e+00 0.000000e+00 6.962799e+01
    endloop
  endfacet
  facet normal 0.000000e+00 0.000000e+00 1.000000e+00
    outer loop
      vertex   0.000000e+00 0.000000e+00 6.962799e+01
      vertex   -1.035447e+01 -1.661221e+01 6.962799e+01
      vertex   -8.620717e+00 -1.757453e+01 6.962799e+01
    endloop
  endfacet
  facet normal 0.000000e+00 0.000000e+00 1.000000e+00
    outer loop
      vertex   0.000000e+00 0.000000e+00 6.962799e+01
      vertex   -8.620717e+00 -1.757453e+01 6.962799e+01
      vertex   -6.798500e+00 -1.835650e+01 6.962799e+01
    endloop
  endfacet
  facet normal -0.000000e+00 0.000000e+00 1.000000e+00
    outer loop
      vertex   -1.606645e+01 -1.118258e+01 6.962799e+01
      vertex   -1.485269e+01 -1.275062e+01 6.962799e+01
      vertex   0.000000e+00 0.000000e+00 6.962799e+01
    endloop
  endfacet
  facet normal 0.000000e+00 0.000000e+00 1.000000e+00
    outer loop
      vertex   0.000000e+00 0.000000e+00 6.962799e+01
      vertex   -1.485269e+01 -1.275062e+01 6.962799e+01
      vertex   -1.348653e+01 -1.418782e+01 6.962799e+01
    endloop
  endfacet
  facet normal 0.000000e+00 0.000000e+00 1.000000e+00
    outer loop
      vertex   0.000000e+00 0.000000e+00 6.962799e+01
      vertex   -1.348653e+01 -1.418782e+01 6.962799e+01
      vertex   -1.198197e+01 -1.547943e+01 6.962799e+01
    endloop
  endfacet
  facet normal -0.000000e+00 0.000000e+00 1.000000e+00
    outer loop
      vertex   -1.867727e+01 -5.860034e+00 6.962799e+01
      vertex   -1.798860e+01 -7.719516e+00 6.962799e+01
      vertex   0.000000e+00 0.000000e+00 6.962799e+01
    endloop
  endfacet
  facet normal 0.000000e+00 0.000000e+00 1.000000e+00
    outer loop
      vertex   0.000000e+00 0.000000e+00 6.962799e+01
      vertex   -1.798860e+01 -7.719516e+00 6.962799e+01
      vertex   -1.711534e+01 -9.499786e+00 6.962799e+01
    endloop
  endfacet
  facet normal 0.000000e+00 0.000000e+00 1.000000e+00
    outer loop
      vertex   0.000000e+00 0.000000e+00 6.962799e+01
      vertex   -1.711534e+01 -9.499786e+00 6.962799e+01
      vertex   -1.606645e+01 -1.118258e+01 6.962799e+01
    endloop
  endfacet
  facet normal -0.000000e+00 0.000000e+00 1.000000e+00
    outer loop
      vertex   -1.957500e+01 0.000000e+00 6.962799e+01
      vertex   -1.947457e+01 -1.980370e+00 6.962799e+01
      vertex   0.000000e+00 0.000000e+00 6.962799e+01
    endloop
  endfacet
  facet normal 0.000000e+00 0.000000e+00 1.000000e+00
    outer loop
      vertex   0.000000e+00 0.000000e+00 6.962799e+01
      vertex   -1.947457e+01 -1.980370e+00 6.962799e+01
      vertex   -1.917430e+01 -3.940418e+00 6.962799e+01
    endloop
  endfacet
  facet normal 0.000000e+00 0.000000e+00 1.000000e+00
    outer loop
      vertex   0.000000e+00 0.000000e+00 6.962799e+01
      vertex   -1.917430e+01 -3.940418e+00 6.962799e+01
      vertex   -1.867727e+01 -5.860034e+00 6.962799e+01
    endloop
  endfacet
  facet normal 0.000000e+00 0.000000e+00 1.000000e+00
    outer loop
      vertex   -1.867727e+01 5.860034e+00 6.962799e+01
      vertex   -1.917430e+01 3.940418e+00 6.962799e+01
      vertex   0.000000e+00 0.000000e+00 6.962799e+01
    endloop
  endfacet
  facet normal 0.000000e+00 0.000000e+00 1.000000e+00
    outer loop
      vertex   0.000000e+00 0.000000e+00 6.962799e+01
      vertex   -1.917430e+01 3.940418e+00 6.962799e+01
      vertex   -1.947457e+01 1.980370e+00 6.962799e+01
    endloop
  endfacet
  facet normal 0.000000e+00 0.000000e+00 1.000000e+00
    outer loop
      vertex   0.000000e+00 0.000000e+00 6.962799e+01
      vertex   -1.947457e+01 1.980370e+00 6.962799e+01
      vertex   -1.957500e+01 0.000000e+00 6.962799e+01
    endloop
  endfacet
  facet normal 0.000000e+00 0.000000e+00 1.000000e+00
    outer loop
      vertex   -1.606645e+01 1.118258e+01 6.962799e+01
      vertex   -1.711534e+01 9.499786e+00 6.962799e+01
      vertex   0.000000e+00 0.000000e+00 6.962799e+01
    endloop
  endfacet
  facet normal 0.000000e+00 0.000000e+00 1.000000e+00
    outer loop
      vertex   0.000000e+00 0.000000e+00 6.962799e+01
      vertex   -1.711534e+01 9.499786e+00 6.962799e+01
      vertex   -1.798860e+01 7.719516e+00 6.962799e+01
    endloop
  endfacet
  facet normal 0.000000e+00 0.000000e+00 1.000000e+00
    outer loop
      vertex   0.000000e+00 0.000000e+00 6.962799e+01
      vertex   -1.798860e+01 7.719516e+00 6.962799e+01
      vertex   -1.867727e+01 5.860034e+00 6.962799e+01
    endloop
  endfacet
  facet normal 0.000000e+00 0.000000e+00 1.000000e+00
    outer loop
      vertex   -1.198197e+01 1.547943e+01 6.962799e+01
      vertex   -1.348653e+01 1.418782e+01 6.962799e+01
      vertex   0.000000e+00 0.000000e+00 6.962799e+01
    endloop
  endfacet
  facet normal 0.000000e+00 0.000000e+00 1.000000e+00
    outer loop
      vertex   0.000000e+00 0.000000e+00 6.962799e+01
      vertex   -1.348653e+01 1.418782e+01 6.962799e+01
      vertex   -1.485269e+01 1.275062e+01 6.962799e+01
    endloop
  endfacet
  facet normal 0.000000e+00 0.000000e+00 1.000000e+00
    outer loop
      vertex   0.000000e+00 0.000000e+00 6.962799e+01
      vertex   -1.485269e+01 1.275062e+01 6.962799e+01
      vertex   -1.606645e+01 1.118258e+01 6.962799e+01
    endloop
  endfacet
  facet normal 0.000000e+00 0.000000e+00 1.000000e+00
    outer loop
      vertex   -6.798500e+00 1.835650e+01 6.962799e+01
      vertex   -8.620717e+00 1.757453e+01 6.962799e+01
      vertex   0.000000e+00 0.000000e+00 6.962799e+01
    endloop
  endfacet
  facet normal 0.000000e+00 0.000000e+00 1.000000e+00
    outer loop
      vertex   0.000000e+00 0.000000e+00 6.962799e+01
      vertex   -8.620717e+00 1.757453e+01 6.962799e+01
      vertex   -1.035447e+01 1.661221e+01 6.962799e+01
    endloop
  endfacet
  facet normal 0.000000e+00 0.000000e+00 1.000000e+00
    outer loop
      vertex   0.000000e+00 0.000000e+00 6.962799e+01
      vertex   -1.035447e+01 1.661221e+01 6.962799e+01
      vertex   -1.198197e+01 1.547943e+01 6.962799e+01
    endloop
  endfacet
  facet normal 0.000000e+00 0.000000e+00 1.000000e+00
    outer loop
      vertex   -9.914576e-01 1.954988e+01 6.962799e+01
      vertex   -2.964198e+00 1.934927e+01 6.962799e+01
      vertex   0.000000e+00 0.000000e+00 6.962799e+01
    endloop
  endfacet
  facet normal 0.000000e+00 0.000000e+00 1.000000e+00
    outer loop
      vertex   0.000000e+00 0.000000e+00 6.962799e+01
      vertex   -2.964198e+00 1.934927e+01 6.962799e+01
      vertex   -4.906524e+00 1.895011e+01 6.962799e+01
    endloop
  endfacet
  facet normal 0.000000e+00 0.000000e+00 1.000000e+00
    outer loop
      vertex   0.000000e+00 0.000000e+00 6.962799e+01
      vertex   -4.906524e+00 1.895011e+01 6.962799e+01
      vertex   -6.798500e+00 1.835650e+01 6.962799e+01
    endloop
  endfacet
  facet normal 0.000000e+00 0.000000e+00 1.000000e+00
    outer loop
      vertex   4.906524e+00 1.895011e+01 6.962799e+01
      vertex   2.964198e+00 1.934927e+01 6.962799e+01
      vertex   0.000000e+00 0.000000e+00 6.962799e+01
    endloop
  endfacet
  facet normal 0.000000e+00 0.000000e+00 1.000000e+00
    outer loop
      vertex   0.000000e+00 0.000000e+00 6.962799e+01
      vertex   2.964198e+00 1.934927e+01 6.962799e+01
      vertex   9.914576e-01 1.954988e+01 6.962799e+01
    endloop
  endfacet
  facet normal 0.000000e+00 -0.000000e+00 1.000000e+00
    outer loop
      vertex   0.000000e+00 0.000000e+00 6.962799e+01
      vertex   9.914576e-01 1.954988e+01 6.962799e+01
      vertex   -9.914576e-01 1.954988e+01 6.962799e+01
    endloop
  endfacet
  facet normal 0.000000e+00 0.000000e+00 1.000000e+00
    outer loop
      vertex   1.035447e+01 1.661221e+01 6.962799e+01
      vertex   8.620717e+00 1.757453e+01 6.962799e+01
      vertex   0.000000e+00 0.000000e+00 6.962799e+01
    endloop
  endfacet
  facet normal 0.000000e+00 0.000000e+00 1.000000e+00
    outer loop
      vertex   0.000000e+00 0.000000e+00 6.962799e+01
      vertex   8.620717e+00 1.757453e+01 6.962799e+01
      vertex   6.798500e+00 1.835650e+01 6.962799e+01
    endloop
  endfacet
  facet normal 0.000000e+00 0.000000e+00 1.000000e+00
    outer loop
      vertex   0.000000e+00 0.000000e+00 6.962799e+01
      vertex   6.798500e+00 1.835650e+01 6.962799e+01
      vertex   4.906524e+00 1.895011e+01 6.962799e+01
    endloop
  endfacet
  facet normal 0.000000e+00 0.000000e+00 1.000000e+00
    outer loop
      vertex   1.485269e+01 1.275062e+01 6.962799e+01
      vertex   1.348653e+01 1.418782e+01 6.962799e+01
      vertex   0.000000e+00 0.000000e+00 6.962799e+01
    endloop
  endfacet
  facet normal 0.000000e+00 0.000000e+00 1.000000e+00
    outer loop
      vertex   0.000000e+00 0.000000e+00 6.962799e+01
      vertex   1.348653e+01 1.418782e+01 6.962799e+01
      vertex   1.198197e+01 1.547943e+01 6.962799e+01
    endloop
  endfacet
  facet normal 0.000000e+00 0.000000e+00 1.000000e+00
    outer loop
      vertex   0.000000e+00 0.000000e+00 6.962799e+01
      vertex   1.198197e+01 1.547943e+01 6.962799e+01
      vertex   1.035447e+01 1.661221e+01 6.962799e+01
    endloop
  endfacet
  facet normal 0.000000e+00 0.000000e+00 1.000000e+00
    outer loop
      vertex   1.798860e+01 7.719516e+00 6.962799e+01
      vertex   1.711534e+01 9.499786e+00 6.962799e+01
      vertex   0.000000e+00 0.000000e+00 6.962799e+01
    endloop
  endfacet
  facet normal 0.000000e+00 0.000000e+00 1.000000e+00
    outer loop
      vertex   0.000000e+00 0.000000e+00 6.962799e+01
      vertex   1.711534e+01 9.499786e+00 6.962799e+01
      vertex   1.606645e+01 1.118258e+01 6.962799e+01
    endloop
  endfacet
  facet normal 0.000000e+00 0.000000e+00 1.000000e+00
    outer loop
      vertex   0.000000e+00 0.000000e+00 6.962799e+01
      vertex   1.606645e+01 1.118258e+01 6.962799e+01
      vertex   1.485269e+01 1.275062e+01 6.962799e+01
    endloop
  endfacet
  facet normal 0.000000e+00 0.000000e+00 1.000000e+00
    outer loop
      vertex   1.947457e+01 1.980370e+00 6.962799e+01
      vertex   1.917430e+01 3.940418e+00 6.962799e+01
      vertex   0.000000e+00 0.000000e+00 6.962799e+01
    endloop
  endfacet
  facet normal 0.000000e+00 0.000000e+00 1.000000e+00
    outer loop
      vertex   0.000000e+00 0.000000e+00 6.962799e+01
      vertex   1.917430e+01 3.940418e+00 6.962799e+01
      vertex   1.867727e+01 5.860034e+00 6.962799e+01
    endloop
  endfacet
  facet normal 0.000000e+00 0.000000e+00 1.000000e+00
    outer loop
      vertex   0.000000e+00 0.000000e+00 6.962799e+01
      vertex   1.867727e+01 5.860034e+00 6.962799e+01
      vertex   1.798860e+01 7.719516e+00 6.962799e+01
    endloop
  endfacet
endsolid
