solid Exported from Blender-2.82 (sub 7)
facet normal -0.000000 0.000000 1.000000
outer loop
vertex -0.000000 0.000000 0.040000
vertex -0.000000 0.020000 0.040000
vertex -0.009294 0.017709 0.040000
endloop
endfacet
facet normal 0.000000 0.000000 1.000000
outer loop
vertex -0.000000 0.000000 0.040000
vertex -0.009294 0.017709 0.040000
vertex -0.016460 0.011361 0.040000
endloop
endfacet
facet normal 0.000000 0.000000 1.000000
outer loop
vertex -0.000000 0.000000 0.040000
vertex -0.016460 0.011361 0.040000
vertex -0.019854 0.002411 0.040000
endloop
endfacet
facet normal -0.000000 0.000000 1.000000
outer loop
vertex -0.000000 0.000000 0.040000
vertex -0.019854 0.002411 0.040000
vertex -0.018700 -0.007092 0.040000
endloop
endfacet
facet normal 0.000000 0.000000 1.000000
outer loop
vertex -0.000000 0.000000 0.040000
vertex -0.018700 -0.007092 0.040000
vertex -0.013262 -0.014970 0.040000
endloop
endfacet
facet normal -0.000000 0.000000 1.000000
outer loop
vertex -0.000000 0.000000 0.040000
vertex -0.013262 -0.014970 0.040000
vertex -0.004786 -0.019419 0.040000
endloop
endfacet
facet normal 0.000000 0.000000 1.000000
outer loop
vertex -0.000000 0.000000 0.040000
vertex -0.004786 -0.019419 0.040000
vertex 0.004786 -0.019419 0.040000
endloop
endfacet
facet normal 0.000000 0.000000 1.000000
outer loop
vertex -0.000000 0.000000 0.040000
vertex 0.004786 -0.019419 0.040000
vertex 0.013262 -0.014970 0.040000
endloop
endfacet
facet normal 0.000000 0.000000 1.000000
outer loop
vertex -0.000000 0.000000 0.040000
vertex 0.013262 -0.014970 0.040000
vertex 0.018700 -0.007092 0.040000
endloop
endfacet
facet normal 0.000000 0.000000 1.000000
outer loop
vertex -0.000000 0.000000 0.040000
vertex 0.018700 -0.007092 0.040000
vertex 0.019854 0.002411 0.040000
endloop
endfacet
facet normal 0.000000 0.000000 1.000000
outer loop
vertex -0.000000 0.000000 0.040000
vertex 0.019854 0.002411 0.040000
vertex 0.016460 0.011361 0.040000
endloop
endfacet
facet normal 0.000000 0.000000 1.000000
outer loop
vertex -0.000000 0.000000 0.040000
vertex 0.016460 0.011361 0.040000
vertex 0.009294 0.017709 0.040000
endloop
endfacet
facet normal -0.000000 0.000000 1.000000
outer loop
vertex -0.000000 0.000000 0.040000
vertex 0.009294 0.017709 0.040000
vertex -0.000000 0.020000 0.040000
endloop
endfacet
endsolid Exported from Blender-2.82 (sub 7)
