solid ASCII
  facet normal -1.000000e+00 -2.960595e-16 -0.000000e+00
    outer loop
      vertex   2.100000e+01 -2.400000e+01 0.000000e+00
      vertex   2.100000e+01 2.400000e+01 0.000000e+00
      vertex   2.100000e+01 -2.400000e+01 -4.000000e+00
    endloop
  endfacet
  facet normal -1.000000e+00 -2.960595e-16 0.000000e+00
    outer loop
      vertex   2.100000e+01 -2.400000e+01 -4.000000e+00
      vertex   2.100000e+01 2.400000e+01 0.000000e+00
      vertex   2.100000e+01 2.400000e+01 -4.000000e+00
    endloop
  endfacet
  facet normal 1.000000e+00 4.440892e-16 0.000000e+00
    outer loop
      vertex   2.200000e+01 2.400000e+01 0.000000e+00
      vertex   2.200000e+01 -2.400000e+01 0.000000e+00
      vertex   2.200000e+01 2.400000e+01 -4.000000e+00
    endloop
  endfacet
  facet normal 1.000000e+00 4.440892e-16 0.000000e+00
    outer loop
      vertex   2.200000e+01 2.400000e+01 -4.000000e+00
      vertex   2.200000e+01 -2.400000e+01 0.000000e+00
      vertex   2.200000e+01 -2.400000e+01 -4.000000e+00
    endloop
  endfacet
  facet normal 0.000000e+00 0.000000e+00 -1.000000e+00
    outer loop
      vertex   2.100000e+01 -2.400000e+01 -4.000000e+00
      vertex   2.100000e+01 2.400000e+01 -4.000000e+00
      vertex   2.200000e+01 -2.400000e+01 -4.000000e+00
    endloop
  endfacet
  facet normal 0.000000e+00 0.000000e+00 -1.000000e+00
    outer loop
      vertex   2.200000e+01 -2.400000e+01 -4.000000e+00
      vertex   2.100000e+01 2.400000e+01 -4.000000e+00
      vertex   2.200000e+01 2.400000e+01 -4.000000e+00
    endloop
  endfacet
  facet normal 0.000000e+00 -0.000000e+00 -1.000000e+00
    outer loop
      vertex   2.100000e+01 2.400000e+01 0.000000e+00
      vertex   2.100000e+01 -2.400000e+01 0.000000e+00
      vertex   -1.000000e+00 2.400000e+01 0.000000e+00
    endloop
  endfacet
  facet normal 0.000000e+00 0.000000e+00 -1.000000e+00
    outer loop
      vertex   -1.000000e+00 2.400000e+01 0.000000e+00
      vertex   2.100000e+01 -2.400000e+01 0.000000e+00
      vertex   -1.000000e+00 -2.400000e+01 0.000000e+00
    endloop
  endfacet
  facet normal 0.000000e+00 0.000000e+00 -1.000000e+00
    outer loop
      vertex   2.200000e+01 -2.400000e+01 0.000000e+00
      vertex   2.200000e+01 2.400000e+01 0.000000e+00
      vertex   3.300000e+01 -2.400000e+01 0.000000e+00
    endloop
  endfacet
  facet normal 0.000000e+00 0.000000e+00 -1.000000e+00
    outer loop
      vertex   3.300000e+01 -2.400000e+01 0.000000e+00
      vertex   2.200000e+01 2.400000e+01 0.000000e+00
      vertex   3.300000e+01 2.400000e+01 0.000000e+00
    endloop
  endfacet
  facet normal 1.000000e+00 9.251859e-17 0.000000e+00
    outer loop
      vertex   -1.000000e+00 2.400000e+01 0.000000e+00
      vertex   -1.000000e+00 -2.400000e+01 0.000000e+00
      vertex   -1.000000e+00 2.400000e+01 -4.000000e+00
    endloop
  endfacet
  facet normal 1.000000e+00 9.251859e-17 0.000000e+00
    outer loop
      vertex   -1.000000e+00 2.400000e+01 -4.000000e+00
      vertex   -1.000000e+00 -2.400000e+01 0.000000e+00
      vertex   -1.000000e+00 -2.400000e+01 -4.000000e+00
    endloop
  endfacet
  facet normal -1.000000e+00 0.000000e+00 0.000000e+00
    outer loop
      vertex   -2.000000e+00 -2.400000e+01 0.000000e+00
      vertex   -2.000000e+00 2.400000e+01 0.000000e+00
      vertex   -2.000000e+00 -2.400000e+01 -4.000000e+00
    endloop
  endfacet
  facet normal -1.000000e+00 0.000000e+00 0.000000e+00
    outer loop
      vertex   -2.000000e+00 -2.400000e+01 -4.000000e+00
      vertex   -2.000000e+00 2.400000e+01 0.000000e+00
      vertex   -2.000000e+00 2.400000e+01 -4.000000e+00
    endloop
  endfacet
  facet normal 0.000000e+00 0.000000e+00 -1.000000e+00
    outer loop
      vertex   -2.000000e+00 -2.400000e+01 -4.000000e+00
      vertex   -2.000000e+00 2.400000e+01 -4.000000e+00
      vertex   -1.000000e+00 -2.400000e+01 -4.000000e+00
    endloop
  endfacet
  facet normal 0.000000e+00 0.000000e+00 -1.000000e+00
    outer loop
      vertex   -1.000000e+00 -2.400000e+01 -4.000000e+00
      vertex   -2.000000e+00 2.400000e+01 -4.000000e+00
      vertex   -1.000000e+00 2.400000e+01 -4.000000e+00
    endloop
  endfacet
  facet normal -0.000000e+00 -0.000000e+00 -1.000000e+00
    outer loop
      vertex   -2.000000e+00 2.400000e+01 0.000000e+00
      vertex   -2.000000e+00 -2.400000e+01 0.000000e+00
      vertex   -1.300000e+01 2.400000e+01 0.000000e+00
    endloop
  endfacet
  facet normal 0.000000e+00 0.000000e+00 -1.000000e+00
    outer loop
      vertex   -1.300000e+01 2.400000e+01 0.000000e+00
      vertex   -2.000000e+00 -2.400000e+01 0.000000e+00
      vertex   -1.300000e+01 -2.400000e+01 0.000000e+00
    endloop
  endfacet
  facet normal 0.000000e+00 -1.000000e+00 0.000000e+00
    outer loop
      vertex   -1.300000e+01 -2.400000e+01 0.000000e+00
      vertex   -2.000000e+00 -2.400000e+01 0.000000e+00
      vertex   -1.300000e+01 -2.400000e+01 1.000000e+00
    endloop
  endfacet
  facet normal 0.000000e+00 -1.000000e+00 0.000000e+00
    outer loop
      vertex   -1.300000e+01 -2.400000e+01 1.000000e+00
      vertex   -2.000000e+00 -2.400000e+01 0.000000e+00
      vertex   -1.000000e+00 -2.400000e+01 0.000000e+00
    endloop
  endfacet
  facet normal 3.229740e-16 -1.000000e+00 3.875688e-15
    outer loop
      vertex   -1.300000e+01 -2.400000e+01 1.000000e+00
      vertex   -1.000000e+00 -2.400000e+01 0.000000e+00
      vertex   2.100000e+01 -2.400000e+01 0.000000e+00
    endloop
  endfacet
  facet normal 0.000000e+00 -1.000000e+00 0.000000e+00
    outer loop
      vertex   -2.000000e+00 -2.400000e+01 -4.000000e+00
      vertex   -1.000000e+00 -2.400000e+01 -4.000000e+00
      vertex   -2.000000e+00 -2.400000e+01 0.000000e+00
    endloop
  endfacet
  facet normal 0.000000e+00 -1.000000e+00 0.000000e+00
    outer loop
      vertex   -2.000000e+00 -2.400000e+01 0.000000e+00
      vertex   -1.000000e+00 -2.400000e+01 -4.000000e+00
      vertex   -1.000000e+00 -2.400000e+01 0.000000e+00
    endloop
  endfacet
  facet normal 0.000000e+00 -1.000000e+00 0.000000e+00
    outer loop
      vertex   2.100000e+01 -2.400000e+01 -4.000000e+00
      vertex   2.200000e+01 -2.400000e+01 -4.000000e+00
      vertex   2.100000e+01 -2.400000e+01 0.000000e+00
    endloop
  endfacet
  facet normal 0.000000e+00 -1.000000e+00 0.000000e+00
    outer loop
      vertex   2.100000e+01 -2.400000e+01 0.000000e+00
      vertex   2.200000e+01 -2.400000e+01 -4.000000e+00
      vertex   2.200000e+01 -2.400000e+01 0.000000e+00
    endloop
  endfacet
  facet normal 0.000000e+00 -1.000000e+00 7.105427e-15
    outer loop
      vertex   2.100000e+01 -2.400000e+01 0.000000e+00
      vertex   2.200000e+01 -2.400000e+01 0.000000e+00
      vertex   3.300000e+01 -2.400000e+01 1.000000e+00
    endloop
  endfacet
  facet normal 6.459479e-16 -1.000000e+00 0.000000e+00
    outer loop
      vertex   3.300000e+01 -2.400000e+01 1.000000e+00
      vertex   2.200000e+01 -2.400000e+01 0.000000e+00
      vertex   3.300000e+01 -2.400000e+01 0.000000e+00
    endloop
  endfacet
  facet normal 3.089316e-16 -1.000000e+00 3.398248e-15
    outer loop
      vertex   3.300000e+01 -2.400000e+01 1.000000e+00
      vertex   -1.300000e+01 -2.400000e+01 1.000000e+00
      vertex   2.100000e+01 -2.400000e+01 0.000000e+00
    endloop
  endfacet
  facet normal -1.000000e+00 -5.181041e-16 -3.681351e-30
    outer loop
      vertex   -1.300000e+01 2.400000e+01 0.000000e+00
      vertex   -1.300000e+01 -2.400000e+01 0.000000e+00
      vertex   -1.300000e+01 2.400000e+01 1.000000e+00
    endloop
  endfacet
  facet normal -1.000000e+00 -5.181041e-16 0.000000e+00
    outer loop
      vertex   -1.300000e+01 2.400000e+01 1.000000e+00
      vertex   -1.300000e+01 -2.400000e+01 0.000000e+00
      vertex   -1.300000e+01 -2.400000e+01 1.000000e+00
    endloop
  endfacet
  facet normal -3.229740e-16 1.000000e+00 0.000000e+00
    outer loop
      vertex   3.300000e+01 2.400000e+01 0.000000e+00
      vertex   2.200000e+01 2.400000e+01 0.000000e+00
      vertex   3.300000e+01 2.400000e+01 1.000000e+00
    endloop
  endfacet
  facet normal 0.000000e+00 1.000000e+00 -3.552714e-15
    outer loop
      vertex   3.300000e+01 2.400000e+01 1.000000e+00
      vertex   2.200000e+01 2.400000e+01 0.000000e+00
      vertex   2.100000e+01 2.400000e+01 0.000000e+00
    endloop
  endfacet
  facet normal -3.229740e-16 1.000000e+00 3.229740e-16
    outer loop
      vertex   3.300000e+01 2.400000e+01 1.000000e+00
      vertex   2.100000e+01 2.400000e+01 0.000000e+00
      vertex   -1.000000e+00 2.400000e+01 0.000000e+00
    endloop
  endfacet
  facet normal 0.000000e+00 1.000000e+00 -0.000000e+00
    outer loop
      vertex   2.200000e+01 2.400000e+01 -4.000000e+00
      vertex   2.100000e+01 2.400000e+01 -4.000000e+00
      vertex   2.200000e+01 2.400000e+01 0.000000e+00
    endloop
  endfacet
  facet normal 0.000000e+00 1.000000e+00 0.000000e+00
    outer loop
      vertex   2.200000e+01 2.400000e+01 0.000000e+00
      vertex   2.100000e+01 2.400000e+01 -4.000000e+00
      vertex   2.100000e+01 2.400000e+01 0.000000e+00
    endloop
  endfacet
  facet normal 0.000000e+00 1.000000e+00 -0.000000e+00
    outer loop
      vertex   -1.000000e+00 2.400000e+01 -4.000000e+00
      vertex   -2.000000e+00 2.400000e+01 -4.000000e+00
      vertex   -1.000000e+00 2.400000e+01 0.000000e+00
    endloop
  endfacet
  facet normal 0.000000e+00 1.000000e+00 0.000000e+00
    outer loop
      vertex   -1.000000e+00 2.400000e+01 0.000000e+00
      vertex   -2.000000e+00 2.400000e+01 -4.000000e+00
      vertex   -2.000000e+00 2.400000e+01 0.000000e+00
    endloop
  endfacet
  facet normal 0.000000e+00 1.000000e+00 7.105427e-15
    outer loop
      vertex   -1.000000e+00 2.400000e+01 0.000000e+00
      vertex   -2.000000e+00 2.400000e+01 0.000000e+00
      vertex   -1.300000e+01 2.400000e+01 1.000000e+00
    endloop
  endfacet
  facet normal 0.000000e+00 1.000000e+00 7.105427e-15
    outer loop
      vertex   -1.300000e+01 2.400000e+01 1.000000e+00
      vertex   -2.000000e+00 2.400000e+01 0.000000e+00
      vertex   -1.300000e+01 2.400000e+01 0.000000e+00
    endloop
  endfacet
  facet normal -3.861645e-16 1.000000e+00 2.471453e-15
    outer loop
      vertex   -1.300000e+01 2.400000e+01 1.000000e+00
      vertex   3.300000e+01 2.400000e+01 1.000000e+00
      vertex   -1.000000e+00 2.400000e+01 0.000000e+00
    endloop
  endfacet
  facet normal 1.000000e+00 1.480297e-16 -0.000000e+00
    outer loop
      vertex   3.300000e+01 -2.400000e+01 0.000000e+00
      vertex   3.300000e+01 2.400000e+01 0.000000e+00
      vertex   3.300000e+01 -2.400000e+01 1.000000e+00
    endloop
  endfacet
  facet normal 1.000000e+00 1.480297e-16 0.000000e+00
    outer loop
      vertex   3.300000e+01 -2.400000e+01 1.000000e+00
      vertex   3.300000e+01 2.400000e+01 0.000000e+00
      vertex   3.300000e+01 2.400000e+01 1.000000e+00
    endloop
  endfacet
  facet normal 0.000000e+00 0.000000e+00 1.000000e+00
    outer loop
      vertex   3.300000e+01 -2.400000e+01 1.000000e+00
      vertex   3.300000e+01 2.400000e+01 1.000000e+00
      vertex   -1.300000e+01 -2.400000e+01 1.000000e+00
    endloop
  endfacet
  facet normal 0.000000e+00 -0.000000e+00 1.000000e+00
    outer loop
      vertex   -1.300000e+01 -2.400000e+01 1.000000e+00
      vertex   3.300000e+01 2.400000e+01 1.000000e+00
      vertex   -1.300000e+01 2.400000e+01 1.000000e+00
    endloop
  endfacet
endsolid
