solid ASCII
  facet normal -0.000000e+00 0.000000e+00 1.000000e+00
    outer loop
      vertex   2.100000e+01 2.400000e+01 0.000000e+00
      vertex   2.100000e+01 -2.400000e+01 0.000000e+00
      vertex   2.200000e+01 2.400000e+01 0.000000e+00
    endloop
  endfacet
  facet normal 0.000000e+00 0.000000e+00 1.000000e+00
    outer loop
      vertex   2.200000e+01 2.400000e+01 0.000000e+00
      vertex   2.100000e+01 -2.400000e+01 0.000000e+00
      vertex   2.200000e+01 -2.400000e+01 0.000000e+00
    endloop
  endfacet
  facet normal -0.000000e+00 -1.000000e+00 -0.000000e+00
    outer loop
      vertex   2.200000e+01 -2.400000e+01 0.000000e+00
      vertex   2.100000e+01 -2.400000e+01 0.000000e+00
      vertex   2.200000e+01 -2.400000e+01 -4.000000e+00
    endloop
  endfacet
  facet normal 0.000000e+00 -1.000000e+00 0.000000e+00
    outer loop
      vertex   2.200000e+01 -2.400000e+01 -4.000000e+00
      vertex   2.100000e+01 -2.400000e+01 0.000000e+00
      vertex   2.100000e+01 -2.400000e+01 -4.000000e+00
    endloop
  endfacet
  facet normal -1.000000e+00 -2.960595e-16 -0.000000e+00
    outer loop
      vertex   2.100000e+01 -2.400000e+01 0.000000e+00
      vertex   2.100000e+01 2.400000e+01 0.000000e+00
      vertex   2.100000e+01 -2.400000e+01 -4.000000e+00
    endloop
  endfacet
  facet normal -1.000000e+00 -2.960595e-16 0.000000e+00
    outer loop
      vertex   2.100000e+01 -2.400000e+01 -4.000000e+00
      vertex   2.100000e+01 2.400000e+01 0.000000e+00
      vertex   2.100000e+01 2.400000e+01 -4.000000e+00
    endloop
  endfacet
  facet normal 1.000000e+00 4.440892e-16 0.000000e+00
    outer loop
      vertex   2.200000e+01 2.400000e+01 0.000000e+00
      vertex   2.200000e+01 -2.400000e+01 0.000000e+00
      vertex   2.200000e+01 2.400000e+01 -4.000000e+00
    endloop
  endfacet
  facet normal 1.000000e+00 4.440892e-16 0.000000e+00
    outer loop
      vertex   2.200000e+01 2.400000e+01 -4.000000e+00
      vertex   2.200000e+01 -2.400000e+01 0.000000e+00
      vertex   2.200000e+01 -2.400000e+01 -4.000000e+00
    endloop
  endfacet
  facet normal 0.000000e+00 0.000000e+00 -1.000000e+00
    outer loop
      vertex   2.100000e+01 -2.400000e+01 -4.000000e+00
      vertex   2.100000e+01 2.400000e+01 -4.000000e+00
      vertex   2.200000e+01 -2.400000e+01 -4.000000e+00
    endloop
  endfacet
  facet normal 0.000000e+00 0.000000e+00 -1.000000e+00
    outer loop
      vertex   2.200000e+01 -2.400000e+01 -4.000000e+00
      vertex   2.100000e+01 2.400000e+01 -4.000000e+00
      vertex   2.200000e+01 2.400000e+01 -4.000000e+00
    endloop
  endfacet
  facet normal -0.000000e+00 1.000000e+00 0.000000e+00
    outer loop
      vertex   2.100000e+01 2.400000e+01 0.000000e+00
      vertex   2.200000e+01 2.400000e+01 0.000000e+00
      vertex   2.100000e+01 2.400000e+01 -4.000000e+00
    endloop
  endfacet
  facet normal 0.000000e+00 1.000000e+00 0.000000e+00
    outer loop
      vertex   2.100000e+01 2.400000e+01 -4.000000e+00
      vertex   2.200000e+01 2.400000e+01 0.000000e+00
      vertex   2.200000e+01 2.400000e+01 -4.000000e+00
    endloop
  endfacet
  facet normal 0.000000e+00 0.000000e+00 -1.000000e+00
    outer loop
      vertex   -2.000000e+00 -2.400000e+01 -4.000000e+00
      vertex   -2.000000e+00 2.400000e+01 -4.000000e+00
      vertex   -1.000000e+00 -2.400000e+01 -4.000000e+00
    endloop
  endfacet
  facet normal 0.000000e+00 0.000000e+00 -1.000000e+00
    outer loop
      vertex   -1.000000e+00 -2.400000e+01 -4.000000e+00
      vertex   -2.000000e+00 2.400000e+01 -4.000000e+00
      vertex   -1.000000e+00 2.400000e+01 -4.000000e+00
    endloop
  endfacet
  facet normal -1.000000e+00 0.000000e+00 0.000000e+00
    outer loop
      vertex   -2.000000e+00 -2.400000e+01 0.000000e+00
      vertex   -2.000000e+00 2.400000e+01 0.000000e+00
      vertex   -2.000000e+00 -2.400000e+01 -4.000000e+00
    endloop
  endfacet
  facet normal -1.000000e+00 0.000000e+00 0.000000e+00
    outer loop
      vertex   -2.000000e+00 -2.400000e+01 -4.000000e+00
      vertex   -2.000000e+00 2.400000e+01 0.000000e+00
      vertex   -2.000000e+00 2.400000e+01 -4.000000e+00
    endloop
  endfacet
  facet normal 1.000000e+00 9.251859e-17 0.000000e+00
    outer loop
      vertex   -1.000000e+00 2.400000e+01 0.000000e+00
      vertex   -1.000000e+00 -2.400000e+01 0.000000e+00
      vertex   -1.000000e+00 2.400000e+01 -4.000000e+00
    endloop
  endfacet
  facet normal 1.000000e+00 9.251859e-17 0.000000e+00
    outer loop
      vertex   -1.000000e+00 2.400000e+01 -4.000000e+00
      vertex   -1.000000e+00 -2.400000e+01 0.000000e+00
      vertex   -1.000000e+00 -2.400000e+01 -4.000000e+00
    endloop
  endfacet
  facet normal -0.000000e+00 -1.000000e+00 -0.000000e+00
    outer loop
      vertex   -1.000000e+00 -2.400000e+01 0.000000e+00
      vertex   -2.000000e+00 -2.400000e+01 0.000000e+00
      vertex   -1.000000e+00 -2.400000e+01 -4.000000e+00
    endloop
  endfacet
  facet normal 0.000000e+00 -1.000000e+00 0.000000e+00
    outer loop
      vertex   -1.000000e+00 -2.400000e+01 -4.000000e+00
      vertex   -2.000000e+00 -2.400000e+01 0.000000e+00
      vertex   -2.000000e+00 -2.400000e+01 -4.000000e+00
    endloop
  endfacet
  facet normal -0.000000e+00 1.000000e+00 0.000000e+00
    outer loop
      vertex   -2.000000e+00 2.400000e+01 0.000000e+00
      vertex   -1.000000e+00 2.400000e+01 0.000000e+00
      vertex   -2.000000e+00 2.400000e+01 -4.000000e+00
    endloop
  endfacet
  facet normal 0.000000e+00 1.000000e+00 0.000000e+00
    outer loop
      vertex   -2.000000e+00 2.400000e+01 -4.000000e+00
      vertex   -1.000000e+00 2.400000e+01 0.000000e+00
      vertex   -1.000000e+00 2.400000e+01 -4.000000e+00
    endloop
  endfacet
  facet normal -0.000000e+00 0.000000e+00 1.000000e+00
    outer loop
      vertex   -2.000000e+00 2.400000e+01 0.000000e+00
      vertex   -2.000000e+00 -2.400000e+01 0.000000e+00
      vertex   -1.000000e+00 2.400000e+01 0.000000e+00
    endloop
  endfacet
  facet normal 0.000000e+00 0.000000e+00 1.000000e+00
    outer loop
      vertex   -1.000000e+00 2.400000e+01 0.000000e+00
      vertex   -2.000000e+00 -2.400000e+01 0.000000e+00
      vertex   -1.000000e+00 -2.400000e+01 0.000000e+00
    endloop
  endfacet
endsolid
