solid ASCII
  facet normal 0.000000e+00 -0.000000e+00 -1.000000e+00
    outer loop
      vertex   3.300000e+01 2.400000e+01 0.000000e+00
      vertex   3.300000e+01 -2.400000e+01 0.000000e+00
      vertex   -1.300000e+01 2.400000e+01 0.000000e+00
    endloop
  endfacet
  facet normal 0.000000e+00 0.000000e+00 -1.000000e+00
    outer loop
      vertex   -1.300000e+01 2.400000e+01 0.000000e+00
      vertex   3.300000e+01 -2.400000e+01 0.000000e+00
      vertex   -1.300000e+01 -2.400000e+01 0.000000e+00
    endloop
  endfacet
  facet normal -2.316987e-16 1.000000e+00 0.000000e+00
    outer loop
      vertex   3.300000e+01 2.400000e+01 0.000000e+00
      vertex   -1.300000e+01 2.400000e+01 0.000000e+00
      vertex   3.300000e+01 2.400000e+01 1.000000e+00
    endloop
  endfacet
  facet normal -3.861645e-16 1.000000e+00 7.105427e-15
    outer loop
      vertex   3.300000e+01 2.400000e+01 1.000000e+00
      vertex   -1.300000e+01 2.400000e+01 0.000000e+00
      vertex   -1.300000e+01 2.400000e+01 1.000000e+00
    endloop
  endfacet
  facet normal 3.089316e-16 -1.000000e+00 0.000000e+00
    outer loop
      vertex   -1.300000e+01 -2.400000e+01 0.000000e+00
      vertex   3.300000e+01 -2.400000e+01 0.000000e+00
      vertex   -1.300000e+01 -2.400000e+01 1.000000e+00
    endloop
  endfacet
  facet normal 3.089316e-16 -1.000000e+00 0.000000e+00
    outer loop
      vertex   -1.300000e+01 -2.400000e+01 1.000000e+00
      vertex   3.300000e+01 -2.400000e+01 0.000000e+00
      vertex   3.300000e+01 -2.400000e+01 1.000000e+00
    endloop
  endfacet
  facet normal -1.000000e+00 -5.181041e-16 -3.681351e-30
    outer loop
      vertex   -1.300000e+01 2.400000e+01 0.000000e+00
      vertex   -1.300000e+01 -2.400000e+01 0.000000e+00
      vertex   -1.300000e+01 2.400000e+01 1.000000e+00
    endloop
  endfacet
  facet normal -1.000000e+00 -5.181041e-16 0.000000e+00
    outer loop
      vertex   -1.300000e+01 2.400000e+01 1.000000e+00
      vertex   -1.300000e+01 -2.400000e+01 0.000000e+00
      vertex   -1.300000e+01 -2.400000e+01 1.000000e+00
    endloop
  endfacet
  facet normal 1.000000e+00 1.480297e-16 -0.000000e+00
    outer loop
      vertex   3.300000e+01 -2.400000e+01 0.000000e+00
      vertex   3.300000e+01 2.400000e+01 0.000000e+00
      vertex   3.300000e+01 -2.400000e+01 1.000000e+00
    endloop
  endfacet
  facet normal 1.000000e+00 1.480297e-16 0.000000e+00
    outer loop
      vertex   3.300000e+01 -2.400000e+01 1.000000e+00
      vertex   3.300000e+01 2.400000e+01 0.000000e+00
      vertex   3.300000e+01 2.400000e+01 1.000000e+00
    endloop
  endfacet
  facet normal 0.000000e+00 0.000000e+00 1.000000e+00
    outer loop
      vertex   3.300000e+01 -2.400000e+01 1.000000e+00
      vertex   3.300000e+01 2.400000e+01 1.000000e+00
      vertex   -1.300000e+01 -2.400000e+01 1.000000e+00
    endloop
  endfacet
  facet normal 0.000000e+00 -0.000000e+00 1.000000e+00
    outer loop
      vertex   -1.300000e+01 -2.400000e+01 1.000000e+00
      vertex   3.300000e+01 2.400000e+01 1.000000e+00
      vertex   -1.300000e+01 2.400000e+01 1.000000e+00
    endloop
  endfacet
endsolid
