solid Created by Gmsh
facet normal 0 -0 1
  outer loop
    vertex 0.01066047522120617 -0.008778539597194313 0.0275161951642541
    vertex 0.01271851501030555 -0.005067930025581698 0.0275161951642541
    vertex 0.007831073429472516 -0.004273640355464198 0.0275161951642541
  endloop
endfacet
facet normal 0 0 1
  outer loop
    vertex 0.01271851501030555 -0.005067930025581698 0.0275161951642541
    vertex 0.01039425870966952 -0.001430585057900469 0.0275161951642541
    vertex 0.007831073429472516 -0.004273640355464198 0.0275161951642541
  endloop
endfacet
facet normal 0 0 1
  outer loop
    vertex -0.001251847709747983 -0.01830136570821871 0.0275161951642541
    vertex -0.003725329252915553 -0.01299496030902622 0.0275161951642541
    vertex -0.006143075176684391 -0.01728495695244767 0.0275161951642541
  endloop
endfacet
facet normal 0 0 1
  outer loop
    vertex 0.0008096961889232525 -0.01360335640728396 0.0275161951642541
    vertex -0.003725329252915553 -0.01299496030902622 0.0275161951642541
    vertex -0.001251847709747983 -0.01830136570821871 0.0275161951642541
  endloop
endfacet
facet normal 0 -0 1
  outer loop
    vertex 0.007511236030377285 0.006346782869634425 0.0275161951642541
    vertex 0.007955396610859528 0.01138343224838973 0.0275161951642541
    vertex 0.00324650783457045 0.009478216393582633 0.0275161951642541
  endloop
endfacet
facet normal 0 0 1
  outer loop
    vertex -0.001425179397401326 -0.008404444863009196 0.0275161951642541
    vertex -0.003725329252915553 -0.01299496030902622 0.0275161951642541
    vertex 0.0008096961889232525 -0.01360335640728396 0.0275161951642541
  endloop
endfacet
facet normal 0 0 1
  outer loop
    vertex 0.0113699493681524 0.008444225547464677 0.0275161951642541
    vertex 0.007955396610859528 0.01138343224838973 0.0275161951642541
    vertex 0.007511236030377285 0.006346782869634425 0.0275161951642541
  endloop
endfacet
facet normal 0 -0 1
  outer loop
    vertex 0.0008096961889232525 -0.01360335640728396 0.0275161951642541
    vertex 0.003562518245213937 -0.01032805142084537 0.0275161951642541
    vertex -0.001425179397401326 -0.008404444863009196 0.0275161951642541
  endloop
endfacet
facet normal 0 -0 1
  outer loop
    vertex 0.00324650783457045 0.009478216393582633 0.0275161951642541
    vertex 0.004863712728607477 0.01378482999135577 0.0275161951642541
    vertex 0.0009449427116356785 0.01381457345354077 0.0275161951642541
  endloop
endfacet
facet normal 0 0 1
  outer loop
    vertex 0.007831073429472516 -0.004273640355464198 0.0275161951642541
    vertex 0.006551859076463786 -0.008128377447983932 0.0275161951642541
    vertex 0.01066047522120617 -0.008778539597194313 0.0275161951642541
  endloop
endfacet
facet normal 0 0 1
  outer loop
    vertex 0.0009449427116356785 0.01381457345354077 0.0275161951642541
    vertex -0.0009639443981082487 0.01051435664715086 0.0275161951642541
    vertex 0.00324650783457045 0.009478216393582633 0.0275161951642541
  endloop
endfacet
facet normal 0 0 1
  outer loop
    vertex -0.001199009168427431 -0.003243350435981039 0.0275161951642541
    vertex -0.005624393242009106 -0.005316240849787312 0.0275161951642541
    vertex -0.001425179397401326 -0.008404444863009196 0.0275161951642541
  endloop
endfacet
facet normal 0 0 1
  outer loop
    vertex -0.005318386427280367 -0.0004571875761402393 0.0275161951642541
    vertex -0.005624393242009106 -0.005316240849787312 0.0275161951642541
    vertex -0.001199009168427431 -0.003243350435981039 0.0275161951642541
  endloop
endfacet
facet normal 0 -0 1
  outer loop
    vertex -0.000832639092724406 0.001701508832871919 0.0275161951642541
    vertex -0.0006241415461323732 0.006443477650077191 0.0275161951642541
    vertex -0.004873301061939248 0.004281552877109789 0.0275161951642541
  endloop
endfacet
facet normal -0 0 1
  outer loop
    vertex 0.003290974837960765 -0.001051496947872012 0.0275161951642541
    vertex 0.007831073429472516 -0.004273640355464198 0.0275161951642541
    vertex 0.007373279385372029 0.001064324220580549 0.0275161951642541
  endloop
endfacet
facet normal 0 0 1
  outer loop
    vertex 0.01834413010950274 0 0.0275161951642541
    vertex 0.01432331933839132 -0.001359862301183179 0.0275161951642541
    vertex 0.01766388000379746 -0.004949187073228191 0.0275161951642541
  endloop
endfacet
facet normal 0 -0 1
  outer loop
    vertex -0.01057869886046507 -0.01498660201293008 0.0275161951642541
    vertex -0.009451213493020949 -0.01011977865078507 0.0275161951642541
    vertex -0.01422974884409218 -0.01157675936125573 0.0275161951642541
  endloop
endfacet
facet normal 0 0 1
  outer loop
    vertex 0.01567358072508464 -0.009531315582259363 0.0275161951642541
    vertex 0.01066047522120617 -0.008778539597194313 0.0275161951642541
    vertex 0.01252084366585305 -0.0134065500174218 0.0275161951642541
  endloop
endfacet
facet normal 0 0 1
  outer loop
    vertex 0.003732223574998208 -0.01796044589258831 0.0275161951642541
    vertex 0.0008096961889232525 -0.01360335640728396 0.0275161951642541
    vertex -0.001251847709747983 -0.01830136570821871 0.0275161951642541
  endloop
endfacet
facet normal 0 0 1
  outer loop
    vertex -0.001251847709747995 0.01830136570821871 0.0275161951642541
    vertex 0.0009449427116356785 0.01381457345354077 0.0275161951642541
    vertex 0.003732223574998196 0.01796044589258832 0.0275161951642541
  endloop
endfacet
facet normal 0 0 1
  outer loop
    vertex 0.01252084366585304 0.01340655001742181 0.0275161951642541
    vertex 0.0113699493681524 0.008444225547464677 0.0275161951642541
    vertex 0.01567358072508464 0.009531315582259366 0.0275161951642541
  endloop
endfacet
facet normal -0 0 1
  outer loop
    vertex -0.01422974884409218 0.01157675936125573 0.0275161951642541
    vertex -0.009504617415267202 0.01029518980910812 0.0275161951642541
    vertex -0.01057869886046508 0.01498660201293008 0.0275161951642541
  endloop
endfacet
facet normal 0 0 1
  outer loop
    vertex -0.01817327189174626 -0.002497858727596547 0.0275161951642541
    vertex -0.01384685366541969 2.151565376109164e-18 0.0275161951642541
    vertex -0.01817327189174626 0.002497858727596552 0.0275161951642541
  endloop
endfacet
facet normal 0 0 1
  outer loop
    vertex 0.003567120577143248 0.003833640207280455 0.0275161951642541
    vertex 0.00324650783457045 0.009478216393582633 0.0275161951642541
    vertex -0.0006241415461323732 0.006443477650077191 0.0275161951642541
  endloop
endfacet
facet normal 0 0 1
  outer loop
    vertex 0.003290974837960765 -0.001051496947872012 0.0275161951642541
    vertex 0.007373279385372029 0.001064324220580549 0.0275161951642541
    vertex 0.003567120577143248 0.003833640207280455 0.0275161951642541
  endloop
endfacet
facet normal 0 0 1
  outer loop
    vertex 0.002961927241806536 -0.005750552307511459 0.0275161951642541
    vertex 0.007831073429472516 -0.004273640355464198 0.0275161951642541
    vertex 0.003290974837960765 -0.001051496947872012 0.0275161951642541
  endloop
endfacet
facet normal 0 0 1
  outer loop
    vertex 0.003567120577143248 0.003833640207280455 0.0275161951642541
    vertex -0.0006241415461323732 0.006443477650077191 0.0275161951642541
    vertex -0.000832639092724406 0.001701508832871919 0.0275161951642541
  endloop
endfacet
facet normal 0 0 1
  outer loop
    vertex -0.001199009168427431 -0.003243350435981039 0.0275161951642541
    vertex -0.001425179397401326 -0.008404444863009196 0.0275161951642541
    vertex 0.002961927241806536 -0.005750552307511459 0.0275161951642541
  endloop
endfacet
facet normal 0 -0 1
  outer loop
    vertex 0.003290974837960765 -0.001051496947872012 0.0275161951642541
    vertex 0.003567120577143248 0.003833640207280455 0.0275161951642541
    vertex -0.000832639092724406 0.001701508832871919 0.0275161951642541
  endloop
endfacet
facet normal -0 0 1
  outer loop
    vertex -0.001199009168427431 -0.003243350435981039 0.0275161951642541
    vertex 0.002961927241806536 -0.005750552307511459 0.0275161951642541
    vertex 0.003290974837960765 -0.001051496947872012 0.0275161951642541
  endloop
endfacet
facet normal 0 0 1
  outer loop
    vertex -0.001199009168427431 -0.003243350435981039 0.0275161951642541
    vertex 0.003290974837960765 -0.001051496947872012 0.0275161951642541
    vertex -0.000832639092724406 0.001701508832871919 0.0275161951642541
  endloop
endfacet
facet normal -0 0 1
  outer loop
    vertex -0.005318386427280367 -0.0004571875761402393 0.0275161951642541
    vertex -0.001199009168427431 -0.003243350435981039 0.0275161951642541
    vertex -0.000832639092724406 0.001701508832871919 0.0275161951642541
  endloop
endfacet
facet normal 0 0 1
  outer loop
    vertex -0.005318386427280367 -0.0004571875761402393 0.0275161951642541
    vertex -0.000832639092724406 0.001701508832871919 0.0275161951642541
    vertex -0.004873301061939248 0.004281552877109789 0.0275161951642541
  endloop
endfacet
facet normal -0 0 1
  outer loop
    vertex -0.00965363560674604 -0.002431563144147953 0.0275161951642541
    vertex -0.005624393242009106 -0.005316240849787312 0.0275161951642541
    vertex -0.005318386427280367 -0.0004571875761402393 0.0275161951642541
  endloop
endfacet
facet normal 0 -0 1
  outer loop
    vertex -0.005318386427280367 -0.0004571875761402393 0.0275161951642541
    vertex -0.004873301061939248 0.004281552877109789 0.0275161951642541
    vertex -0.009313623746819096 0.002050607743124163 0.0275161951642541
  endloop
endfacet
facet normal -0 0 1
  outer loop
    vertex 0.007511236030377285 0.006346782869634425 0.0275161951642541
    vertex 0.01177864341448051 0.003220588796337618 0.0275161951642541
    vertex 0.0113699493681524 0.008444225547464677 0.0275161951642541
  endloop
endfacet
facet normal 0 0 1
  outer loop
    vertex 0.008439492910973538 0.01628748196867743 0.0275161951642541
    vertex 0.007955396610859528 0.01138343224838973 0.0275161951642541
    vertex 0.01252084366585304 0.01340655001742181 0.0275161951642541
  endloop
endfacet
facet normal 0 0 1
  outer loop
    vertex 0.01252084366585304 0.01340655001742181 0.0275161951642541
    vertex 0.007955396610859528 0.01138343224838973 0.0275161951642541
    vertex 0.0113699493681524 0.008444225547464677 0.0275161951642541
  endloop
endfacet
facet normal 0 0 1
  outer loop
    vertex 0.01177864341448051 0.003220588796337618 0.0275161951642541
    vertex 0.01039425870966952 -0.001430585057900469 0.0275161951642541
    vertex 0.01432331933839132 -0.001359862301183179 0.0275161951642541
  endloop
endfacet
facet normal 0 0 1
  outer loop
    vertex -0.00965363560674604 -0.002431563144147953 0.0275161951642541
    vertex -0.005318386427280367 -0.0004571875761402393 0.0275161951642541
    vertex -0.009313623746819096 0.002050607743124163 0.0275161951642541
  endloop
endfacet
facet normal 0 0 1
  outer loop
    vertex 0.01432331933839132 -0.001359862301183179 0.0275161951642541
    vertex 0.01039425870966952 -0.001430585057900469 0.0275161951642541
    vertex 0.01271851501030555 -0.005067930025581698 0.0275161951642541
  endloop
endfacet
facet normal 0 0 1
  outer loop
    vertex -0.0006241415461323732 0.006443477650077191 0.0275161951642541
    vertex -0.004929877507997312 0.009382186600230944 0.0275161951642541
    vertex -0.004873301061939248 0.004281552877109789 0.0275161951642541
  endloop
endfacet
facet normal 0 -0 1
  outer loop
    vertex -0.00965363560674604 -0.002431563144147953 0.0275161951642541
    vertex -0.009313623746819096 0.002050607743124163 0.0275161951642541
    vertex -0.01384685366541969 2.151565376109164e-18 0.0275161951642541
  endloop
endfacet
facet normal 0 -0 1
  outer loop
    vertex -0.01384685366541969 2.151565376109164e-18 0.0275161951642541
    vertex -0.01324080460018045 0.004369199540696957 0.0275161951642541
    vertex -0.01817327189174626 0.002497858727596552 0.0275161951642541
  endloop
endfacet
facet normal 0 0 1
  outer loop
    vertex -0.01817327189174626 0.002497858727596552 0.0275161951642541
    vertex -0.01324080460018045 0.004369199540696957 0.0275161951642541
    vertex -0.01682544345272238 0.007308321427907142 0.0275161951642541
  endloop
endfacet
facet normal -0 0 1
  outer loop
    vertex -0.01373491194982958 -0.004306369923434425 0.0275161951642541
    vertex -0.009347373212630569 -0.006305481370417819 0.0275161951642541
    vertex -0.00965363560674604 -0.002431563144147953 0.0275161951642541
  endloop
endfacet
facet normal 0 -0 1
  outer loop
    vertex 0.003567120577143248 0.003833640207280455 0.0275161951642541
    vertex 0.007511236030377285 0.006346782869634425 0.0275161951642541
    vertex 0.00324650783457045 0.009478216393582633 0.0275161951642541
  endloop
endfacet
facet normal 0 0 1
  outer loop
    vertex -0.00320409507454213 0.01376278658543907 0.0275161951642541
    vertex -0.006872072806991222 0.01314234439203118 0.0275161951642541
    vertex -0.004929877507997312 0.009382186600230944 0.0275161951642541
  endloop
endfacet
facet normal 0 0 1
  outer loop
    vertex -0.004929877507997312 0.009382186600230944 0.0275161951642541
    vertex -0.0009639443981082487 0.01051435664715086 0.0275161951642541
    vertex -0.00320409507454213 0.01376278658543907 0.0275161951642541
  endloop
endfacet
facet normal -0 0 1
  outer loop
    vertex -0.001425179397401326 -0.008404444863009196 0.0275161951642541
    vertex 0.003562518245213937 -0.01032805142084537 0.0275161951642541
    vertex 0.002961927241806536 -0.005750552307511459 0.0275161951642541
  endloop
endfacet
facet normal 0 -0 1
  outer loop
    vertex 0.01432331933839132 -0.001359862301183179 0.0275161951642541
    vertex 0.01539621197477128 0.002247378009638496 0.0275161951642541
    vertex 0.01177864341448051 0.003220588796337618 0.0275161951642541
  endloop
endfacet
facet normal 0 -0 1
  outer loop
    vertex -0.01271773819045913 -0.007923342146760036 0.0275161951642541
    vertex -0.009347373212630569 -0.006305481370417819 0.0275161951642541
    vertex -0.01373491194982958 -0.004306369923434425 0.0275161951642541
  endloop
endfacet
facet normal 0 0 1
  outer loop
    vertex 0.007955396610859528 0.01138343224838973 0.0275161951642541
    vertex 0.004863712728607477 0.01378482999135577 0.0275161951642541
    vertex 0.00324650783457045 0.009478216393582633 0.0275161951642541
  endloop
endfacet
facet normal 0 -0 1
  outer loop
    vertex 0.01177864341448051 0.003220588796337618 0.0275161951642541
    vertex 0.01432351968841213 0.00607423881531634 0.0275161951642541
    vertex 0.0113699493681524 0.008444225547464677 0.0275161951642541
  endloop
endfacet
facet normal 0 0 1
  outer loop
    vertex 0.00324650783457045 0.009478216393582633 0.0275161951642541
    vertex -0.0009639443981082487 0.01051435664715086 0.0275161951642541
    vertex -0.0006241415461323732 0.006443477650077191 0.0275161951642541
  endloop
endfacet
facet normal 0 0 1
  outer loop
    vertex -0.004929877507997312 0.009382186600230944 0.0275161951642541
    vertex -0.008858547338340437 0.006321066133595768 0.0275161951642541
    vertex -0.004873301061939248 0.004281552877109789 0.0275161951642541
  endloop
endfacet
facet normal 0 0 1
  outer loop
    vertex -0.009504617415267202 0.01029518980910812 0.0275161951642541
    vertex -0.008858547338340437 0.006321066133595768 0.0275161951642541
    vertex -0.004929877507997312 0.009382186600230944 0.0275161951642541
  endloop
endfacet
facet normal -0 0 1
  outer loop
    vertex 0.007373279385372029 0.001064324220580549 0.0275161951642541
    vertex 0.01039425870966952 -0.001430585057900469 0.0275161951642541
    vertex 0.01177864341448051 0.003220588796337618 0.0275161951642541
  endloop
endfacet
facet normal 0 0 1
  outer loop
    vertex 0.007373279385372029 0.001064324220580549 0.0275161951642541
    vertex 0.01177864341448051 0.003220588796337618 0.0275161951642541
    vertex 0.007511236030377285 0.006346782869634425 0.0275161951642541
  endloop
endfacet
facet normal 0 0 1
  outer loop
    vertex 0.01252084366585305 -0.0134065500174218 0.0275161951642541
    vertex 0.007683702719849677 -0.0118442483646448 0.0275161951642541
    vertex 0.008439492910973545 -0.01628748196867742 0.0275161951642541
  endloop
endfacet
facet normal 0 0 1
  outer loop
    vertex 0.01066047522120617 -0.008778539597194313 0.0275161951642541
    vertex 0.007683702719849677 -0.0118442483646448 0.0275161951642541
    vertex 0.01252084366585305 -0.0134065500174218 0.0275161951642541
  endloop
endfacet
facet normal 0 0 1
  outer loop
    vertex -0.009313623746819096 0.002050607743124163 0.0275161951642541
    vertex -0.01324080460018045 0.004369199540696957 0.0275161951642541
    vertex -0.01384685366541969 2.151565376109164e-18 0.0275161951642541
  endloop
endfacet
facet normal 0 0 1
  outer loop
    vertex 0.006551859076463786 -0.008128377447983932 0.0275161951642541
    vertex 0.003562518245213937 -0.01032805142084537 0.0275161951642541
    vertex 0.007683702719849677 -0.0118442483646448 0.0275161951642541
  endloop
endfacet
facet normal 0 -0 1
  outer loop
    vertex 0.007373279385372029 0.001064324220580549 0.0275161951642541
    vertex 0.007511236030377285 0.006346782869634425 0.0275161951642541
    vertex 0.003567120577143248 0.003833640207280455 0.0275161951642541
  endloop
endfacet
facet normal 0 -0 1
  outer loop
    vertex -0.009313623746819096 0.002050607743124163 0.0275161951642541
    vertex -0.008858547338340437 0.006321066133595768 0.0275161951642541
    vertex -0.01324080460018045 0.004369199540696957 0.0275161951642541
  endloop
endfacet
facet normal 0 -0 1
  outer loop
    vertex -0.01373491194982958 -0.004306369923434425 0.0275161951642541
    vertex -0.00965363560674604 -0.002431563144147953 0.0275161951642541
    vertex -0.01384685366541969 2.151565376109164e-18 0.0275161951642541
  endloop
endfacet
facet normal 0 0 1
  outer loop
    vertex 0.003562518245213937 -0.01032805142084537 0.0275161951642541
    vertex 0.004819850114269262 -0.01411864937758229 0.0275161951642541
    vertex 0.007683702719849677 -0.0118442483646448 0.0275161951642541
  endloop
endfacet
facet normal 0 0 1
  outer loop
    vertex -0.008858547338340437 0.006321066133595768 0.0275161951642541
    vertex -0.01259762987210796 0.008055467515678249 0.0275161951642541
    vertex -0.01324080460018045 0.004369199540696957 0.0275161951642541
  endloop
endfacet
facet normal 0 0 1
  outer loop
    vertex -0.004929877507997312 0.009382186600230944 0.0275161951642541
    vertex -0.006872072806991222 0.01314234439203118 0.0275161951642541
    vertex -0.009504617415267202 0.01029518980910812 0.0275161951642541
  endloop
endfacet
facet normal 0 0 1
  outer loop
    vertex -0.005894454058845235 -0.009304491058711358 0.0275161951642541
    vertex -0.009347373212630569 -0.006305481370417819 0.0275161951642541
    vertex -0.009451213493020949 -0.01011977865078507 0.0275161951642541
  endloop
endfacet
facet normal -0 0 1
  outer loop
    vertex 0.002961927241806536 -0.005750552307511459 0.0275161951642541
    vertex 0.006551859076463786 -0.008128377447983932 0.0275161951642541
    vertex 0.007831073429472516 -0.004273640355464198 0.0275161951642541
  endloop
endfacet
facet normal 0 0 1
  outer loop
    vertex -0.003725329252915553 -0.01299496030902622 0.0275161951642541
    vertex -0.007401898181637577 -0.01305768813681618 0.0275161951642541
    vertex -0.006143075176684391 -0.01728495695244767 0.0275161951642541
  endloop
endfacet
facet normal 0 -0 1
  outer loop
    vertex -0.01422974884409218 -0.01157675936125573 0.0275161951642541
    vertex -0.01271773819045913 -0.007923342146760036 0.0275161951642541
    vertex -0.01682544345272238 -0.007308321427907138 0.0275161951642541
  endloop
endfacet
facet normal 0 0 1
  outer loop
    vertex -0.009451213493020949 -0.01011977865078507 0.0275161951642541
    vertex -0.01271773819045913 -0.007923342146760036 0.0275161951642541
    vertex -0.01422974884409218 -0.01157675936125573 0.0275161951642541
  endloop
endfacet
facet normal 0 0 1
  outer loop
    vertex -0.001251847709747995 0.01830136570821871 0.0275161951642541
    vertex -0.00320409507454213 0.01376278658543907 0.0275161951642541
    vertex 0.0009449427116356785 0.01381457345354077 0.0275161951642541
  endloop
endfacet
facet normal -0 0 1
  outer loop
    vertex -0.01057869886046508 0.01498660201293008 0.0275161951642541
    vertex -0.006872072806991222 0.01314234439203118 0.0275161951642541
    vertex -0.006143075176684391 0.01728495695244767 0.0275161951642541
  endloop
endfacet
facet normal -0 0 1
  outer loop
    vertex -0.006143075176684391 0.01728495695244767 0.0275161951642541
    vertex -0.00320409507454213 0.01376278658543907 0.0275161951642541
    vertex -0.001251847709747995 0.01830136570821871 0.0275161951642541
  endloop
endfacet
facet normal -0 0 1
  outer loop
    vertex -0.01817327189174626 -0.002497858727596547 0.0275161951642541
    vertex -0.01373491194982958 -0.004306369923434425 0.0275161951642541
    vertex -0.01384685366541969 2.151565376109164e-18 0.0275161951642541
  endloop
endfacet
facet normal 0 0 1
  outer loop
    vertex 0.01567358072508464 -0.009531315582259363 0.0275161951642541
    vertex 0.01271851501030555 -0.005067930025581698 0.0275161951642541
    vertex 0.01066047522120617 -0.008778539597194313 0.0275161951642541
  endloop
endfacet
facet normal 0 -0 1
  outer loop
    vertex -0.01682544345272238 -0.007308321427907138 0.0275161951642541
    vertex -0.01373491194982958 -0.004306369923434425 0.0275161951642541
    vertex -0.01817327189174626 -0.002497858727596547 0.0275161951642541
  endloop
endfacet
facet normal 0 0 1
  outer loop
    vertex 0.01766388000379746 -0.004949187073228191 0.0275161951642541
    vertex 0.01271851501030555 -0.005067930025581698 0.0275161951642541
    vertex 0.01567358072508464 -0.009531315582259363 0.0275161951642541
  endloop
endfacet
facet normal 0 -0 1
  outer loop
    vertex -0.009504617415267202 0.01029518980910812 0.0275161951642541
    vertex -0.006872072806991222 0.01314234439203118 0.0275161951642541
    vertex -0.01057869886046508 0.01498660201293008 0.0275161951642541
  endloop
endfacet
facet normal 0 0 1
  outer loop
    vertex 0.01432331933839132 -0.001359862301183179 0.0275161951642541
    vertex 0.01271851501030555 -0.005067930025581698 0.0275161951642541
    vertex 0.01766388000379746 -0.004949187073228191 0.0275161951642541
  endloop
endfacet
facet normal 0 0 1
  outer loop
    vertex 0.008439492910973545 -0.01628748196867742 0.0275161951642541
    vertex 0.004819850114269262 -0.01411864937758229 0.0275161951642541
    vertex 0.003732223574998208 -0.01796044589258831 0.0275161951642541
  endloop
endfacet
facet normal 0 0 1
  outer loop
    vertex -0.01682544345272238 0.007308321427907142 0.0275161951642541
    vertex -0.01259762987210796 0.008055467515678249 0.0275161951642541
    vertex -0.01422974884409218 0.01157675936125573 0.0275161951642541
  endloop
endfacet
facet normal 0 0 1
  outer loop
    vertex 0.003732223574998196 0.01796044589258832 0.0275161951642541
    vertex 0.004863712728607477 0.01378482999135577 0.0275161951642541
    vertex 0.008439492910973538 0.01628748196867743 0.0275161951642541
  endloop
endfacet
facet normal 0 0 1
  outer loop
    vertex 0.01834413010950274 0 0.0275161951642541
    vertex 0.01539621197477128 0.002247378009638496 0.0275161951642541
    vertex 0.01432331933839132 -0.001359862301183179 0.0275161951642541
  endloop
endfacet
facet normal 0 0 1
  outer loop
    vertex -0.006143075176684391 -0.01728495695244767 0.0275161951642541
    vertex -0.007401898181637577 -0.01305768813681618 0.0275161951642541
    vertex -0.01057869886046507 -0.01498660201293008 0.0275161951642541
  endloop
endfacet
facet normal -0 0 1
  outer loop
    vertex 0.0113699493681524 0.008444225547464677 0.0275161951642541
    vertex 0.01432351968841213 0.00607423881531634 0.0275161951642541
    vertex 0.01567358072508464 0.009531315582259366 0.0275161951642541
  endloop
endfacet
facet normal 0 0 1
  outer loop
    vertex -0.004873301061939248 0.004281552877109789 0.0275161951642541
    vertex -0.008858547338340437 0.006321066133595768 0.0275161951642541
    vertex -0.009313623746819096 0.002050607743124163 0.0275161951642541
  endloop
endfacet
facet normal 0 0 1
  outer loop
    vertex -0.001425179397401326 -0.008404444863009196 0.0275161951642541
    vertex -0.005894454058845235 -0.009304491058711358 0.0275161951642541
    vertex -0.003725329252915553 -0.01299496030902622 0.0275161951642541
  endloop
endfacet
facet normal 0 -0 1
  outer loop
    vertex 0.003732223574998208 -0.01796044589258831 0.0275161951642541
    vertex 0.004819850114269262 -0.01411864937758229 0.0275161951642541
    vertex 0.0008096961889232525 -0.01360335640728396 0.0275161951642541
  endloop
endfacet
facet normal 0 0 1
  outer loop
    vertex -0.005624393242009106 -0.005316240849787312 0.0275161951642541
    vertex -0.009347373212630569 -0.006305481370417819 0.0275161951642541
    vertex -0.005894454058845235 -0.009304491058711358 0.0275161951642541
  endloop
endfacet
facet normal 0 0 1
  outer loop
    vertex -0.005624393242009106 -0.005316240849787312 0.0275161951642541
    vertex -0.005894454058845235 -0.009304491058711358 0.0275161951642541
    vertex -0.001425179397401326 -0.008404444863009196 0.0275161951642541
  endloop
endfacet
facet normal 0 0 1
  outer loop
    vertex -0.01422974884409218 0.01157675936125573 0.0275161951642541
    vertex -0.01259762987210796 0.008055467515678249 0.0275161951642541
    vertex -0.009504617415267202 0.01029518980910812 0.0275161951642541
  endloop
endfacet
facet normal -0 0 1
  outer loop
    vertex 0.0009449427116356785 0.01381457345354077 0.0275161951642541
    vertex 0.004863712728607477 0.01378482999135577 0.0275161951642541
    vertex 0.003732223574998196 0.01796044589258832 0.0275161951642541
  endloop
endfacet
facet normal 0 0 1
  outer loop
    vertex -0.00965363560674604 -0.002431563144147953 0.0275161951642541
    vertex -0.009347373212630569 -0.006305481370417819 0.0275161951642541
    vertex -0.005624393242009106 -0.005316240849787312 0.0275161951642541
  endloop
endfacet
facet normal 0 0 1
  outer loop
    vertex 0.01766388000379746 0.004949187073228192 0.0275161951642541
    vertex 0.01539621197477128 0.002247378009638496 0.0275161951642541
    vertex 0.01834413010950274 0 0.0275161951642541
  endloop
endfacet
facet normal 0 0 1
  outer loop
    vertex 0.01567358072508464 0.009531315582259366 0.0275161951642541
    vertex 0.01432351968841213 0.00607423881531634 0.0275161951642541
    vertex 0.01766388000379746 0.004949187073228192 0.0275161951642541
  endloop
endfacet
facet normal 0 -0 1
  outer loop
    vertex 0.007831073429472516 -0.004273640355464198 0.0275161951642541
    vertex 0.01039425870966952 -0.001430585057900469 0.0275161951642541
    vertex 0.007373279385372029 0.001064324220580549 0.0275161951642541
  endloop
endfacet
facet normal 0 0 1
  outer loop
    vertex -0.01057869886046507 -0.01498660201293008 0.0275161951642541
    vertex -0.007401898181637577 -0.01305768813681618 0.0275161951642541
    vertex -0.009451213493020949 -0.01011977865078507 0.0275161951642541
  endloop
endfacet
facet normal 0 0 1
  outer loop
    vertex -0.0006241415461323732 0.006443477650077191 0.0275161951642541
    vertex -0.0009639443981082487 0.01051435664715086 0.0275161951642541
    vertex -0.004929877507997312 0.009382186600230944 0.0275161951642541
  endloop
endfacet
facet normal -0 0 1
  outer loop
    vertex -0.009451213493020949 -0.01011977865078507 0.0275161951642541
    vertex -0.007401898181637577 -0.01305768813681618 0.0275161951642541
    vertex -0.005894454058845235 -0.009304491058711358 0.0275161951642541
  endloop
endfacet
facet normal 0 0 1
  outer loop
    vertex 0.006551859076463786 -0.008128377447983932 0.0275161951642541
    vertex 0.007683702719849677 -0.0118442483646448 0.0275161951642541
    vertex 0.01066047522120617 -0.008778539597194313 0.0275161951642541
  endloop
endfacet
facet normal 0 0 1
  outer loop
    vertex 0.008439492910973538 0.01628748196867743 0.0275161951642541
    vertex 0.004863712728607477 0.01378482999135577 0.0275161951642541
    vertex 0.007955396610859528 0.01138343224838973 0.0275161951642541
  endloop
endfacet
facet normal -0 0 1
  outer loop
    vertex -0.00320409507454213 0.01376278658543907 0.0275161951642541
    vertex -0.0009639443981082487 0.01051435664715086 0.0275161951642541
    vertex 0.0009449427116356785 0.01381457345354077 0.0275161951642541
  endloop
endfacet
facet normal 0 0 1
  outer loop
    vertex 0.002961927241806536 -0.005750552307511459 0.0275161951642541
    vertex 0.003562518245213937 -0.01032805142084537 0.0275161951642541
    vertex 0.006551859076463786 -0.008128377447983932 0.0275161951642541
  endloop
endfacet
facet normal 0 -0 1
  outer loop
    vertex -0.01324080460018045 0.004369199540696957 0.0275161951642541
    vertex -0.01259762987210796 0.008055467515678249 0.0275161951642541
    vertex -0.01682544345272238 0.007308321427907142 0.0275161951642541
  endloop
endfacet
facet normal -0 0 1
  outer loop
    vertex 0.0008096961889232525 -0.01360335640728396 0.0275161951642541
    vertex 0.004819850114269262 -0.01411864937758229 0.0275161951642541
    vertex 0.003562518245213937 -0.01032805142084537 0.0275161951642541
  endloop
endfacet
facet normal 0 0 1
  outer loop
    vertex 0.007683702719849677 -0.0118442483646448 0.0275161951642541
    vertex 0.004819850114269262 -0.01411864937758229 0.0275161951642541
    vertex 0.008439492910973545 -0.01628748196867742 0.0275161951642541
  endloop
endfacet
facet normal 0 0 1
  outer loop
    vertex -0.009504617415267202 0.01029518980910812 0.0275161951642541
    vertex -0.01259762987210796 0.008055467515678249 0.0275161951642541
    vertex -0.008858547338340437 0.006321066133595768 0.0275161951642541
  endloop
endfacet
facet normal 0 0 1
  outer loop
    vertex -0.005894454058845235 -0.009304491058711358 0.0275161951642541
    vertex -0.007401898181637577 -0.01305768813681618 0.0275161951642541
    vertex -0.003725329252915553 -0.01299496030902622 0.0275161951642541
  endloop
endfacet
facet normal 0 0 1
  outer loop
    vertex -0.006143075176684391 0.01728495695244767 0.0275161951642541
    vertex -0.006872072806991222 0.01314234439203118 0.0275161951642541
    vertex -0.00320409507454213 0.01376278658543907 0.0275161951642541
  endloop
endfacet
facet normal -0 0 1
  outer loop
    vertex -0.01682544345272238 -0.007308321427907138 0.0275161951642541
    vertex -0.01271773819045913 -0.007923342146760036 0.0275161951642541
    vertex -0.01373491194982958 -0.004306369923434425 0.0275161951642541
  endloop
endfacet
facet normal 0 -0 1
  outer loop
    vertex -0.009451213493020949 -0.01011977865078507 0.0275161951642541
    vertex -0.009347373212630569 -0.006305481370417819 0.0275161951642541
    vertex -0.01271773819045913 -0.007923342146760036 0.0275161951642541
  endloop
endfacet
facet normal 0 0 1
  outer loop
    vertex 0.01766388000379746 0.004949187073228192 0.0275161951642541
    vertex 0.01432351968841213 0.00607423881531634 0.0275161951642541
    vertex 0.01539621197477128 0.002247378009638496 0.0275161951642541
  endloop
endfacet
facet normal 0 0 1
  outer loop
    vertex 0.01539621197477128 0.002247378009638496 0.0275161951642541
    vertex 0.01432351968841213 0.00607423881531634 0.0275161951642541
    vertex 0.01177864341448051 0.003220588796337618 0.0275161951642541
  endloop
endfacet
endsolid Created by Gmsh
